G04 Layer: BottomPasteMaskLayer*
G04 EasyEDA v6.1.51, Thu, 11 Jul 2019 05:23:43 GMT*
G04 97ee957230b044f1988730904329927e,674c0623d3a246009f606e19fc16e94a,10*
G04 Gerber Generator version 0.2*
G04 Scale: 100 percent, Rotated: No, Reflected: No *
G04 Dimensions in millimeters *
G04 leading zeros omitted , absolute positions ,3 integer and 3 decimal *
%FSLAX33Y33*%
%MOMM*%
G90*
G71D02*

%ADD17C,0.599999*%
%ADD21R,3.999992X7.000011*%
%ADD25R,0.999998X1.099998*%
%ADD30R,0.810260X0.810260*%
%ADD31C,0.699999*%
%ADD32C,0.450012*%
%ADD42R,0.999998X1.999996*%

%LPD*%
G54D17*
G01X59309Y10172D02*
G01X59309Y8572D01*
G01X58039Y10172D02*
G01X58039Y8572D01*
G01X56769Y10172D02*
G01X56769Y8572D01*
G01X55499Y10172D02*
G01X55499Y8572D01*
G01X54229Y10172D02*
G01X54229Y8572D01*
G01X52959Y10172D02*
G01X52959Y8572D01*
G01X51689Y10172D02*
G01X51689Y8572D01*
G01X50419Y10172D02*
G01X50419Y8572D01*
G01X59309Y15709D02*
G01X59309Y14109D01*
G01X58039Y15709D02*
G01X58039Y14109D01*
G01X56769Y15709D02*
G01X56769Y14109D01*
G01X55499Y15709D02*
G01X55499Y14109D01*
G01X54229Y15709D02*
G01X54229Y14109D01*
G01X52959Y15709D02*
G01X52959Y14109D01*
G01X51689Y15709D02*
G01X51689Y14109D01*
G01X50419Y15709D02*
G01X50419Y14109D01*
G54D32*
G01X8931Y22174D02*
G01X7731Y22174D01*
G01X8931Y21374D02*
G01X7731Y21374D01*
G01X8931Y20574D02*
G01X7731Y20574D01*
G01X8931Y19773D02*
G01X7731Y19773D01*
G01X8931Y18976D02*
G01X7731Y18976D01*
G01X8931Y18176D02*
G01X7731Y18176D01*
G01X8931Y17376D02*
G01X7731Y17376D01*
G01X8931Y16576D02*
G01X7731Y16576D01*
G01X9906Y15611D02*
G01X9906Y14411D01*
G01X10706Y15611D02*
G01X10706Y14411D01*
G01X11506Y15611D02*
G01X11506Y14411D01*
G01X12306Y15611D02*
G01X12306Y14411D01*
G01X13103Y15611D02*
G01X13103Y14411D01*
G01X13903Y15611D02*
G01X13903Y14411D01*
G01X14704Y15611D02*
G01X14704Y14411D01*
G01X15504Y15611D02*
G01X15504Y14411D01*
G01X17694Y16586D02*
G01X16494Y16586D01*
G01X17694Y17386D02*
G01X16494Y17386D01*
G01X17694Y18186D02*
G01X16494Y18186D01*
G01X17694Y18986D02*
G01X16494Y18986D01*
G01X17694Y19784D02*
G01X16494Y19784D01*
G01X17694Y20584D02*
G01X16494Y20584D01*
G01X17694Y21384D02*
G01X16494Y21384D01*
G01X17694Y22184D02*
G01X16494Y22184D01*
G01X15494Y24348D02*
G01X15494Y23149D01*
G01X14693Y24348D02*
G01X14693Y23149D01*
G01X13893Y24348D02*
G01X13893Y23149D01*
G01X13093Y24348D02*
G01X13093Y23149D01*
G01X12296Y24348D02*
G01X12296Y23149D01*
G01X11496Y24348D02*
G01X11496Y23149D01*
G01X10695Y24348D02*
G01X10695Y23149D01*
G01X9895Y24348D02*
G01X9895Y23149D01*
G54D31*
G01X21603Y3124D02*
G01X20103Y3124D01*
G01X21603Y4394D02*
G01X20103Y4394D01*
G01X21603Y5664D02*
G01X20103Y5664D01*
G01X21603Y6934D02*
G01X20103Y6934D01*
G01X27648Y3124D02*
G01X26148Y3124D01*
G01X27648Y4394D02*
G01X26148Y4394D01*
G01X27648Y5664D02*
G01X26148Y5664D01*
G01X27648Y6934D02*
G01X26148Y6934D01*
G01X23762Y29921D02*
G01X22262Y29921D01*
G01X23762Y31191D02*
G01X22262Y31191D01*
G01X23762Y32461D02*
G01X22262Y32461D01*
G01X23762Y33731D02*
G01X22262Y33731D01*
G01X29807Y29921D02*
G01X28307Y29921D01*
G01X29807Y31191D02*
G01X28307Y31191D01*
G01X29807Y32461D02*
G01X28307Y32461D01*
G01X29807Y33731D02*
G01X28307Y33731D01*
G01X21603Y11379D02*
G01X20103Y11379D01*
G01X21603Y12649D02*
G01X20103Y12649D01*
G01X21603Y13919D02*
G01X20103Y13919D01*
G01X21603Y15189D02*
G01X20103Y15189D01*
G01X27648Y11379D02*
G01X26148Y11379D01*
G01X27648Y12649D02*
G01X26148Y12649D01*
G01X27648Y13919D02*
G01X26148Y13919D01*
G01X27648Y15189D02*
G01X26148Y15189D01*
G36*
G01X60007Y5054D02*
G01X58407Y5054D01*
G01X58407Y3655D01*
G01X60007Y3655D01*
G01X60007Y5054D01*
G37*
G36*
G01X53606Y5054D02*
G01X52006Y5054D01*
G01X52006Y3655D01*
G01X53606Y3655D01*
G01X53606Y5054D01*
G37*
G36*
G01X60162Y2567D02*
G01X58712Y2567D01*
G01X58712Y1267D01*
G01X60162Y1267D01*
G01X60162Y2567D01*
G37*
G36*
G01X53304Y2567D02*
G01X51854Y2567D01*
G01X51854Y1267D01*
G01X53304Y1267D01*
G01X53304Y2567D01*
G37*
G36*
G01X58150Y2867D02*
G01X56250Y2867D01*
G01X56250Y967D01*
G01X58150Y967D01*
G01X58150Y2867D01*
G37*
G36*
G01X55763Y2867D02*
G01X53863Y2867D01*
G01X53863Y967D01*
G01X55763Y967D01*
G01X55763Y2867D01*
G37*
G36*
G01X57503Y5257D02*
G01X57104Y5257D01*
G01X57104Y3909D01*
G01X57503Y3909D01*
G01X57503Y5257D01*
G37*
G36*
G01X54912Y5257D02*
G01X54513Y5257D01*
G01X54513Y3909D01*
G01X54912Y3909D01*
G01X54912Y5257D01*
G37*
G36*
G01X56868Y5257D02*
G01X56469Y5257D01*
G01X56469Y3909D01*
G01X56868Y3909D01*
G01X56868Y5257D01*
G37*
G36*
G01X55547Y5257D02*
G01X55148Y5257D01*
G01X55148Y3909D01*
G01X55547Y3909D01*
G01X55547Y5257D01*
G37*
G36*
G01X56207Y5257D02*
G01X55808Y5257D01*
G01X55808Y3909D01*
G01X56207Y3909D01*
G01X56207Y5257D01*
G37*
G36*
G01X15570Y30535D02*
G01X15570Y28036D01*
G01X16068Y28036D01*
G01X16068Y30535D01*
G01X15570Y30535D01*
G37*
G36*
G01X16769Y30086D02*
G01X16769Y28486D01*
G01X17266Y28486D01*
G01X17266Y30086D01*
G01X16769Y30086D01*
G37*
G36*
G01X17967Y30535D02*
G01X17967Y28036D01*
G01X18465Y28036D01*
G01X18465Y30535D01*
G01X17967Y30535D01*
G37*
G54D25*
G01X46127Y1981D03*
G01X44728Y1981D03*
G01X46127Y3759D03*
G01X44728Y3759D03*
G36*
G01X44236Y4975D02*
G01X45237Y4975D01*
G01X45237Y6075D01*
G01X44236Y6075D01*
G01X44236Y4975D01*
G37*
G36*
G01X45636Y4975D02*
G01X46636Y4975D01*
G01X46636Y6075D01*
G01X45636Y6075D01*
G01X45636Y4975D01*
G37*
G01X34989Y3886D03*
G01X33590Y3886D03*
G01X34989Y5664D03*
G01X33590Y5664D03*
G36*
G01X33091Y1557D02*
G01X34089Y1557D01*
G01X34089Y2659D01*
G01X33091Y2659D01*
G01X33091Y1557D01*
G37*
G36*
G01X34490Y1557D02*
G01X35488Y1557D01*
G01X35488Y2659D01*
G01X34490Y2659D01*
G01X34490Y1557D01*
G37*
G36*
G01X22207Y718D02*
G01X23007Y718D01*
G01X23007Y1719D01*
G01X22207Y1719D01*
G01X22207Y718D01*
G37*
G36*
G01X24747Y718D02*
G01X25547Y718D01*
G01X25547Y1719D01*
G01X24747Y1719D01*
G01X24747Y718D01*
G37*
G36*
G01X44267Y10320D02*
G01X45265Y10320D01*
G01X45265Y11422D01*
G01X44267Y11422D01*
G01X44267Y10320D01*
G37*
G36*
G01X45666Y10320D02*
G01X46664Y10320D01*
G01X46664Y11422D01*
G01X45666Y11422D01*
G01X45666Y10320D01*
G37*
G36*
G01X44267Y8542D02*
G01X45265Y8542D01*
G01X45265Y9644D01*
G01X44267Y9644D01*
G01X44267Y8542D01*
G37*
G36*
G01X45666Y8542D02*
G01X46664Y8542D01*
G01X46664Y9644D01*
G01X45666Y9644D01*
G01X45666Y8542D01*
G37*
G36*
G01X51887Y18321D02*
G01X52885Y18321D01*
G01X52885Y19423D01*
G01X51887Y19423D01*
G01X51887Y18321D01*
G37*
G36*
G01X53286Y18321D02*
G01X54284Y18321D01*
G01X54284Y19423D01*
G01X53286Y19423D01*
G01X53286Y18321D01*
G37*
G36*
G01X50236Y27211D02*
G01X51234Y27211D01*
G01X51234Y28313D01*
G01X50236Y28313D01*
G01X50236Y27211D01*
G37*
G36*
G01X51635Y27211D02*
G01X52633Y27211D01*
G01X52633Y28313D01*
G01X51635Y28313D01*
G01X51635Y27211D01*
G37*
G01X56960Y18872D03*
G01X55561Y18872D03*
G01X55309Y27762D03*
G01X53910Y27762D03*
G01X46165Y12522D03*
G01X44766Y12522D03*
G01X47054Y17348D03*
G01X45655Y17348D03*
G01X26099Y22682D03*
G01X24700Y22682D03*
G01X15458Y7504D03*
G01X14058Y7504D03*
G36*
G01X2242Y19055D02*
G01X2242Y18056D01*
G01X3345Y18056D01*
G01X3345Y19055D01*
G01X2242Y19055D01*
G37*
G36*
G01X2242Y17655D02*
G01X2242Y16657D01*
G01X3345Y16657D01*
G01X3345Y17655D01*
G01X2242Y17655D01*
G37*
G01X34354Y30048D03*
G01X32955Y30048D03*
G01X34354Y33477D03*
G01X32955Y33477D03*
G01X34354Y31699D03*
G01X32955Y31699D03*
G36*
G01X24239Y27007D02*
G01X25039Y27007D01*
G01X25039Y28008D01*
G01X24239Y28008D01*
G01X24239Y27007D01*
G37*
G36*
G01X26779Y27007D02*
G01X27579Y27007D01*
G01X27579Y28008D01*
G01X26779Y28008D01*
G01X26779Y27007D01*
G37*
G01X34989Y10236D03*
G01X33590Y10236D03*
G01X34989Y13792D03*
G01X33590Y13792D03*
G01X34989Y12014D03*
G01X33590Y12014D03*
G36*
G01X22207Y8973D02*
G01X23007Y8973D01*
G01X23007Y9974D01*
G01X22207Y9974D01*
G01X22207Y8973D01*
G37*
G36*
G01X24747Y8973D02*
G01X25547Y8973D01*
G01X25547Y9974D01*
G01X24747Y9974D01*
G01X24747Y8973D01*
G37*
G36*
G01X9146Y27839D02*
G01X9146Y29363D01*
G01X6606Y29363D01*
G01X6606Y27839D01*
G01X9146Y27839D01*
G37*
G36*
G01X14226Y27839D02*
G01X14226Y29363D01*
G01X11686Y29363D01*
G01X11686Y27839D01*
G01X14226Y27839D01*
G37*
G36*
G01X3345Y19832D02*
G01X3345Y20830D01*
G01X2242Y20830D01*
G01X2242Y19832D01*
G01X3345Y19832D01*
G37*
G36*
G01X3345Y21231D02*
G01X3345Y22230D01*
G01X2242Y22230D01*
G01X2242Y21231D01*
G01X3345Y21231D01*
G37*
G36*
G01X18735Y8485D02*
G01X18735Y10085D01*
G01X17135Y10085D01*
G01X17135Y8485D01*
G01X18735Y8485D01*
G37*
G36*
G01X18735Y11284D02*
G01X18735Y12884D01*
G01X17135Y12884D01*
G01X17135Y11284D01*
G01X18735Y11284D01*
G37*
G01X18869Y31963D03*
G01X17469Y31963D03*
G36*
G01X13916Y33535D02*
G01X13916Y32535D01*
G01X15016Y32535D01*
G01X15016Y33535D01*
G01X13916Y33535D01*
G37*
G36*
G01X13916Y32135D02*
G01X13916Y31135D01*
G01X15016Y31135D01*
G01X15016Y32135D01*
G01X13916Y32135D01*
G37*
G54D30*
G01X11961Y33643D03*
G01X10437Y33643D03*
G36*
G01X7000Y6814D02*
G01X7000Y7815D01*
G01X9001Y7815D01*
G01X9001Y6814D01*
G01X7000Y6814D01*
G37*
G36*
G01X6997Y8745D02*
G01X6997Y9745D01*
G01X8996Y9745D01*
G01X8996Y8745D01*
G01X6997Y8745D01*
G37*
G36*
G01X7000Y10624D02*
G01X7000Y11625D01*
G01X9001Y11625D01*
G01X9001Y10624D01*
G01X7000Y10624D01*
G37*
G54D21*
G01X2413Y31191D03*
G54D42*
G01X6096Y1600D03*
G01X13716Y1600D03*
G01X11811Y1600D03*
G01X9906Y1600D03*
G01X8001Y1600D03*
G54D21*
G01X2413Y3886D03*
M00*
M02*
