G04 Layer: BottomSolderMaskLayer*
G04 EasyEDA v6.1.51, Thu, 11 Jul 2019 05:23:43 GMT*
G04 97ee957230b044f1988730904329927e,674c0623d3a246009f606e19fc16e94a,10*
G04 Gerber Generator version 0.2*
G04 Scale: 100 percent, Rotated: No, Reflected: No *
G04 Dimensions in millimeters *
G04 leading zeros omitted , absolute positions ,3 integer and 3 decimal *
%FSLAX33Y33*%
%MOMM*%
G90*
G71D02*

%ADD49C,4.101592*%
%ADD50C,0.803199*%
%ADD51R,4.203192X7.203211*%
%ADD55R,1.203198X1.303198*%
%ADD60R,1.013460X1.013460*%
%ADD61C,0.653212*%
%ADD62C,0.903199*%
%ADD72R,1.203198X2.203196*%

%LPD*%
G54D49*
G01X54168Y31553D02*
G01X44939Y31553D01*
G01X33782Y20396D01*
G01X58166Y22809D02*
G01X44450Y22809D01*
G01X42545Y20904D01*
G54D50*
G01X59309Y10172D02*
G01X59309Y8572D01*
G01X58039Y10172D02*
G01X58039Y8572D01*
G01X56769Y10172D02*
G01X56769Y8572D01*
G01X55499Y10172D02*
G01X55499Y8572D01*
G01X54229Y10172D02*
G01X54229Y8572D01*
G01X52959Y10172D02*
G01X52959Y8572D01*
G01X51689Y10172D02*
G01X51689Y8572D01*
G01X50419Y10172D02*
G01X50419Y8572D01*
G01X59309Y15709D02*
G01X59309Y14109D01*
G01X58039Y15709D02*
G01X58039Y14109D01*
G01X56769Y15709D02*
G01X56769Y14109D01*
G01X55499Y15709D02*
G01X55499Y14109D01*
G01X54229Y15709D02*
G01X54229Y14109D01*
G01X52959Y15709D02*
G01X52959Y14109D01*
G01X51689Y15709D02*
G01X51689Y14109D01*
G01X50419Y15709D02*
G01X50419Y14109D01*
G54D61*
G01X8931Y22174D02*
G01X7731Y22174D01*
G01X8931Y21374D02*
G01X7731Y21374D01*
G01X8931Y20574D02*
G01X7731Y20574D01*
G01X8931Y19773D02*
G01X7731Y19773D01*
G01X8931Y18976D02*
G01X7731Y18976D01*
G01X8931Y18176D02*
G01X7731Y18176D01*
G01X8931Y17376D02*
G01X7731Y17376D01*
G01X8931Y16576D02*
G01X7731Y16576D01*
G01X9906Y15611D02*
G01X9906Y14411D01*
G01X10706Y15611D02*
G01X10706Y14411D01*
G01X11506Y15611D02*
G01X11506Y14411D01*
G01X12306Y15611D02*
G01X12306Y14411D01*
G01X13103Y15611D02*
G01X13103Y14411D01*
G01X13903Y15611D02*
G01X13903Y14411D01*
G01X14704Y15611D02*
G01X14704Y14411D01*
G01X15504Y15611D02*
G01X15504Y14411D01*
G01X17694Y16586D02*
G01X16494Y16586D01*
G01X17694Y17386D02*
G01X16494Y17386D01*
G01X17694Y18186D02*
G01X16494Y18186D01*
G01X17694Y18986D02*
G01X16494Y18986D01*
G01X17694Y19784D02*
G01X16494Y19784D01*
G01X17694Y20584D02*
G01X16494Y20584D01*
G01X17694Y21384D02*
G01X16494Y21384D01*
G01X17694Y22184D02*
G01X16494Y22184D01*
G01X15494Y24348D02*
G01X15494Y23149D01*
G01X14693Y24348D02*
G01X14693Y23149D01*
G01X13893Y24348D02*
G01X13893Y23149D01*
G01X13093Y24348D02*
G01X13093Y23149D01*
G01X12296Y24348D02*
G01X12296Y23149D01*
G01X11496Y24348D02*
G01X11496Y23149D01*
G01X10695Y24348D02*
G01X10695Y23149D01*
G01X9895Y24348D02*
G01X9895Y23149D01*
G54D62*
G01X21603Y3124D02*
G01X20103Y3124D01*
G01X21603Y4394D02*
G01X20103Y4394D01*
G01X21603Y5664D02*
G01X20103Y5664D01*
G01X21603Y6934D02*
G01X20103Y6934D01*
G01X27648Y3124D02*
G01X26148Y3124D01*
G01X27648Y4394D02*
G01X26148Y4394D01*
G01X27648Y5664D02*
G01X26148Y5664D01*
G01X27648Y6934D02*
G01X26148Y6934D01*
G01X23762Y29921D02*
G01X22262Y29921D01*
G01X23762Y31191D02*
G01X22262Y31191D01*
G01X23762Y32461D02*
G01X22262Y32461D01*
G01X23762Y33731D02*
G01X22262Y33731D01*
G01X29807Y29921D02*
G01X28307Y29921D01*
G01X29807Y31191D02*
G01X28307Y31191D01*
G01X29807Y32461D02*
G01X28307Y32461D01*
G01X29807Y33731D02*
G01X28307Y33731D01*
G01X21603Y11379D02*
G01X20103Y11379D01*
G01X21603Y12649D02*
G01X20103Y12649D01*
G01X21603Y13919D02*
G01X20103Y13919D01*
G01X21603Y15189D02*
G01X20103Y15189D01*
G01X27648Y11379D02*
G01X26148Y11379D01*
G01X27648Y12649D02*
G01X26148Y12649D01*
G01X27648Y13919D02*
G01X26148Y13919D01*
G01X27648Y15189D02*
G01X26148Y15189D01*
G36*
G01X58305Y3553D02*
G01X58305Y5156D01*
G01X60109Y5156D01*
G01X60109Y3553D01*
G01X58305Y3553D01*
G37*
G36*
G01X51904Y3553D02*
G01X51904Y5156D01*
G01X53708Y5156D01*
G01X53708Y3553D01*
G01X51904Y3553D01*
G37*
G36*
G01X58610Y1165D02*
G01X58610Y2669D01*
G01X60264Y2669D01*
G01X60264Y1165D01*
G01X58610Y1165D01*
G37*
G36*
G01X51752Y1165D02*
G01X51752Y2669D01*
G01X53406Y2669D01*
G01X53406Y1165D01*
G01X51752Y1165D01*
G37*
G36*
G01X56149Y866D02*
G01X56149Y2969D01*
G01X58252Y2969D01*
G01X58252Y866D01*
G01X56149Y866D01*
G37*
G36*
G01X53761Y866D02*
G01X53761Y2969D01*
G01X55864Y2969D01*
G01X55864Y866D01*
G01X53761Y866D01*
G37*
G36*
G01X57002Y3807D02*
G01X57002Y5359D01*
G01X57604Y5359D01*
G01X57604Y3807D01*
G01X57002Y3807D01*
G37*
G36*
G01X54411Y3807D02*
G01X54411Y5359D01*
G01X55013Y5359D01*
G01X55013Y3807D01*
G01X54411Y3807D01*
G37*
G36*
G01X56367Y3807D02*
G01X56367Y5359D01*
G01X56969Y5359D01*
G01X56969Y3807D01*
G01X56367Y3807D01*
G37*
G36*
G01X55046Y3807D02*
G01X55046Y5359D01*
G01X55648Y5359D01*
G01X55648Y3807D01*
G01X55046Y3807D01*
G37*
G36*
G01X55707Y3807D02*
G01X55707Y5359D01*
G01X56309Y5359D01*
G01X56309Y3807D01*
G01X55707Y3807D01*
G37*
G36*
G01X15468Y27934D02*
G01X15468Y30637D01*
G01X16169Y30637D01*
G01X16169Y27934D01*
G01X15468Y27934D01*
G37*
G36*
G01X16667Y28384D02*
G01X16667Y30187D01*
G01X17368Y30187D01*
G01X17368Y28384D01*
G01X16667Y28384D01*
G37*
G36*
G01X17866Y27934D02*
G01X17866Y30637D01*
G01X18567Y30637D01*
G01X18567Y27934D01*
G01X17866Y27934D01*
G37*
G54D55*
G01X46127Y1981D03*
G01X44728Y1981D03*
G01X46127Y3759D03*
G01X44728Y3759D03*
G36*
G01X44135Y4874D02*
G01X44135Y6177D01*
G01X45339Y6177D01*
G01X45339Y4874D01*
G01X44135Y4874D01*
G37*
G36*
G01X45534Y4874D02*
G01X45534Y6177D01*
G01X46738Y6177D01*
G01X46738Y4874D01*
G01X45534Y4874D01*
G37*
G01X34989Y3886D03*
G01X33590Y3886D03*
G01X34989Y5664D03*
G01X33590Y5664D03*
G36*
G01X32989Y1455D02*
G01X32989Y2760D01*
G01X34190Y2760D01*
G01X34190Y1455D01*
G01X32989Y1455D01*
G37*
G36*
G01X34389Y1455D02*
G01X34389Y2760D01*
G01X35590Y2760D01*
G01X35590Y1455D01*
G01X34389Y1455D01*
G37*
G36*
G01X22105Y617D02*
G01X22105Y1821D01*
G01X23108Y1821D01*
G01X23108Y617D01*
G01X22105Y617D01*
G37*
G36*
G01X24645Y617D02*
G01X24645Y1821D01*
G01X25648Y1821D01*
G01X25648Y617D01*
G01X24645Y617D01*
G37*
G36*
G01X44165Y10218D02*
G01X44165Y11523D01*
G01X45366Y11523D01*
G01X45366Y10218D01*
G01X44165Y10218D01*
G37*
G36*
G01X45565Y10218D02*
G01X45565Y11523D01*
G01X46766Y11523D01*
G01X46766Y10218D01*
G01X45565Y10218D01*
G37*
G36*
G01X44165Y8440D02*
G01X44165Y9745D01*
G01X45366Y9745D01*
G01X45366Y8440D01*
G01X44165Y8440D01*
G37*
G36*
G01X45565Y8440D02*
G01X45565Y9745D01*
G01X46766Y9745D01*
G01X46766Y8440D01*
G01X45565Y8440D01*
G37*
G36*
G01X51785Y18219D02*
G01X51785Y19524D01*
G01X52986Y19524D01*
G01X52986Y18219D01*
G01X51785Y18219D01*
G37*
G36*
G01X53185Y18219D02*
G01X53185Y19524D01*
G01X54386Y19524D01*
G01X54386Y18219D01*
G01X53185Y18219D01*
G37*
G36*
G01X50134Y27109D02*
G01X50134Y28414D01*
G01X51335Y28414D01*
G01X51335Y27109D01*
G01X50134Y27109D01*
G37*
G36*
G01X51534Y27109D02*
G01X51534Y28414D01*
G01X52735Y28414D01*
G01X52735Y27109D01*
G01X51534Y27109D01*
G37*
G01X56960Y18872D03*
G01X55561Y18872D03*
G01X55309Y27762D03*
G01X53910Y27762D03*
G01X46165Y12522D03*
G01X44766Y12522D03*
G01X47054Y17348D03*
G01X45655Y17348D03*
G01X26099Y22682D03*
G01X24700Y22682D03*
G01X15458Y7504D03*
G01X14058Y7504D03*
G36*
G01X2141Y17955D02*
G01X2141Y19156D01*
G01X3446Y19156D01*
G01X3446Y17955D01*
G01X2141Y17955D01*
G37*
G36*
G01X2141Y16555D02*
G01X2141Y17757D01*
G01X3446Y17757D01*
G01X3446Y16555D01*
G01X2141Y16555D01*
G37*
G01X34354Y30048D03*
G01X32955Y30048D03*
G01X34354Y33477D03*
G01X32955Y33477D03*
G01X34354Y31699D03*
G01X32955Y31699D03*
G36*
G01X24137Y26906D02*
G01X24137Y28110D01*
G01X25140Y28110D01*
G01X25140Y26906D01*
G01X24137Y26906D01*
G37*
G36*
G01X26677Y26906D02*
G01X26677Y28110D01*
G01X27680Y28110D01*
G01X27680Y26906D01*
G01X26677Y26906D01*
G37*
G01X34989Y10236D03*
G01X33590Y10236D03*
G01X34989Y13792D03*
G01X33590Y13792D03*
G01X34989Y12014D03*
G01X33590Y12014D03*
G36*
G01X22105Y8872D02*
G01X22105Y10076D01*
G01X23108Y10076D01*
G01X23108Y8872D01*
G01X22105Y8872D01*
G37*
G36*
G01X24645Y8872D02*
G01X24645Y10076D01*
G01X25648Y10076D01*
G01X25648Y8872D01*
G01X24645Y8872D01*
G37*
G36*
G01X6504Y27736D02*
G01X6504Y29464D01*
G01X9248Y29464D01*
G01X9248Y27736D01*
G01X6504Y27736D01*
G37*
G36*
G01X11584Y27736D02*
G01X11584Y29464D01*
G01X14328Y29464D01*
G01X14328Y27736D01*
G01X11584Y27736D01*
G37*
G36*
G01X2141Y19730D02*
G01X2141Y20932D01*
G01X3446Y20932D01*
G01X3446Y19730D01*
G01X2141Y19730D01*
G37*
G36*
G01X2141Y21130D02*
G01X2141Y22331D01*
G01X3446Y22331D01*
G01X3446Y21130D01*
G01X2141Y21130D01*
G37*
G36*
G01X17033Y8384D02*
G01X17033Y10187D01*
G01X18836Y10187D01*
G01X18836Y8384D01*
G01X17033Y8384D01*
G37*
G36*
G01X17033Y11183D02*
G01X17033Y12987D01*
G01X18836Y12987D01*
G01X18836Y11183D01*
G01X17033Y11183D01*
G37*
G01X18869Y31963D03*
G01X17469Y31963D03*
G36*
G01X13815Y32433D02*
G01X13815Y33637D01*
G01X15118Y33637D01*
G01X15118Y32433D01*
G01X13815Y32433D01*
G37*
G36*
G01X13815Y31033D02*
G01X13815Y32237D01*
G01X15118Y32237D01*
G01X15118Y31033D01*
G01X13815Y31033D01*
G37*
G54D60*
G01X11961Y33643D03*
G01X10437Y33643D03*
G36*
G01X6898Y6713D02*
G01X6898Y7917D01*
G01X9103Y7917D01*
G01X9103Y6713D01*
G01X6898Y6713D01*
G37*
G36*
G01X6896Y8643D02*
G01X6896Y9847D01*
G01X9098Y9847D01*
G01X9098Y8643D01*
G01X6896Y8643D01*
G37*
G36*
G01X6898Y10523D02*
G01X6898Y11727D01*
G01X9103Y11727D01*
G01X9103Y10523D01*
G01X6898Y10523D01*
G37*
G54D51*
G01X2413Y31191D03*
G54D72*
G01X6096Y1600D03*
G01X13716Y1600D03*
G01X11811Y1600D03*
G01X9906Y1600D03*
G01X8001Y1600D03*
G54D51*
G01X2413Y3886D03*
M00*
M02*
