G04 Layer: TopSilkLayer*
G04 EasyEDA v6.1.51, Thu, 11 Jul 2019 05:23:43 GMT*
G04 97ee957230b044f1988730904329927e,674c0623d3a246009f606e19fc16e94a,10*
G04 Gerber Generator version 0.2*
G04 Scale: 100 percent, Rotated: No, Reflected: No *
G04 Dimensions in millimeters *
G04 leading zeros omitted , absolute positions ,3 integer and 3 decimal *
%FSLAX33Y33*%
%MOMM*%
G90*
G71D02*

%ADD10C,0.254000*%
%ADD12C,0.200000*%
%ADD13C,0.399999*%
%ADD14C,0.299999*%
%ADD43C,0.228600*%
%ADD44C,0.129032*%
%ADD45C,0.152400*%
%ADD46C,0.180010*%

%LPD*%
G54D10*
G01X7543Y11607D02*
G01X7543Y15468D01*
G01X12420Y11582D02*
G01X12420Y15468D01*
G01X7543Y11582D02*
G01X12420Y11582D01*
G01X7543Y15468D02*
G01X12420Y15468D01*
G54D12*
G01X10248Y26637D02*
G01X10248Y27738D01*
G01X11849Y27738D01*
G01X11849Y26637D01*
G01X10248Y25838D02*
G01X10248Y24738D01*
G01X11248Y24738D01*
G01X11849Y24738D01*
G01X11849Y25838D01*
G01X7384Y20307D02*
G01X8484Y20307D01*
G01X8484Y18707D01*
G01X7384Y18707D01*
G01X6584Y20307D02*
G01X5484Y20307D01*
G01X5484Y19307D01*
G01X5484Y18707D01*
G01X6584Y18707D01*
G54D43*
G01X6180Y17178D02*
G01X6180Y12178D01*
G01X3979Y12178D01*
G01X3979Y17178D01*
G01X6180Y17178D01*
G54D12*
G01X9379Y5626D02*
G01X8279Y5626D01*
G01X8279Y7226D01*
G01X9379Y7226D01*
G01X10179Y5626D02*
G01X11279Y5626D01*
G01X11279Y6626D01*
G01X11279Y7226D01*
G01X10179Y7226D01*
G01X10438Y22083D02*
G01X11538Y22083D01*
G01X11538Y20483D01*
G01X10438Y20483D01*
G01X9638Y22083D02*
G01X8538Y22083D01*
G01X8538Y21083D01*
G01X8538Y20483D01*
G01X9638Y20483D01*
G01X7384Y22085D02*
G01X8484Y22085D01*
G01X8484Y20485D01*
G01X7384Y20485D01*
G01X6584Y22085D02*
G01X5484Y22085D01*
G01X5484Y21085D01*
G01X5484Y20485D01*
G01X6584Y20485D01*
G01X7384Y23863D02*
G01X8484Y23863D01*
G01X8484Y22263D01*
G01X7384Y22263D01*
G01X6584Y23863D02*
G01X5484Y23863D01*
G01X5484Y22863D01*
G01X5484Y22263D01*
G01X6584Y22263D01*
G01X7384Y25641D02*
G01X8484Y25641D01*
G01X8484Y24041D01*
G01X7384Y24041D01*
G01X6584Y25641D02*
G01X5484Y25641D01*
G01X5484Y24641D01*
G01X5484Y24041D01*
G01X6584Y24041D01*
G54D10*
G01X23786Y7805D02*
G01X16386Y7805D01*
G01X16386Y7805D02*
G01X16386Y14405D01*
G01X23786Y14405D02*
G01X23786Y7805D01*
G01X16386Y14405D02*
G01X23786Y14405D01*
G54D43*
G01X14774Y27211D02*
G01X19774Y27211D01*
G01X19774Y25011D01*
G01X14774Y25011D01*
G01X14774Y27211D01*
G54D10*
G01X36558Y34514D02*
G01X36558Y26564D01*
G01X43705Y26564D01*
G01X43705Y34514D01*
G01X36558Y34514D01*
G01X37532Y26564D02*
G01X37532Y25264D01*
G01X38031Y25264D01*
G01X38031Y26564D01*
G01X42254Y26568D02*
G01X42254Y25268D01*
G01X42754Y25268D01*
G01X42754Y26568D01*
G01X36685Y19782D02*
G01X36685Y11832D01*
G01X43832Y11832D01*
G01X43832Y19782D01*
G01X36685Y19782D01*
G01X37659Y11832D02*
G01X37659Y10532D01*
G01X38158Y10532D01*
G01X38158Y11832D01*
G01X42381Y11836D02*
G01X42381Y10536D01*
G01X42881Y10536D01*
G01X42881Y11836D01*
G54D43*
G01X20235Y24925D02*
G01X25235Y24925D01*
G01X25235Y22725D01*
G01X20235Y22725D01*
G01X20235Y24925D01*
G54D10*
G01X28176Y34387D02*
G01X28176Y26437D01*
G01X35323Y26437D01*
G01X35323Y34387D01*
G01X28176Y34387D01*
G01X29150Y26437D02*
G01X29150Y25137D01*
G01X29649Y25137D01*
G01X29649Y26437D01*
G01X33872Y26441D02*
G01X33872Y25141D01*
G01X34372Y25141D01*
G01X34372Y26441D01*
G01X28176Y19782D02*
G01X28176Y11832D01*
G01X35323Y11832D01*
G01X35323Y19782D01*
G01X28176Y19782D01*
G01X29150Y11832D02*
G01X29150Y10532D01*
G01X29649Y10532D01*
G01X29649Y11832D01*
G01X33872Y11836D02*
G01X33872Y10536D01*
G01X34372Y10536D01*
G01X34372Y11836D01*
G54D43*
G01X20236Y27205D02*
G01X25236Y27205D01*
G01X25236Y25005D01*
G01X20236Y25005D01*
G01X20236Y27205D01*
G54D10*
G01X45067Y34387D02*
G01X45067Y26437D01*
G01X52214Y26437D01*
G01X52214Y34387D01*
G01X45067Y34387D01*
G01X46041Y26437D02*
G01X46041Y25137D01*
G01X46540Y25137D01*
G01X46540Y26437D01*
G01X50763Y26441D02*
G01X50763Y25141D01*
G01X51263Y25141D01*
G01X51263Y26441D01*
G01X45194Y19782D02*
G01X45194Y11832D01*
G01X52341Y11832D01*
G01X52341Y19782D01*
G01X45194Y19782D01*
G01X46168Y11832D02*
G01X46168Y10532D01*
G01X46667Y10532D01*
G01X46667Y11832D01*
G01X50890Y11836D02*
G01X50890Y10536D01*
G01X51390Y10536D01*
G01X51390Y11836D01*
G54D43*
G01X20246Y22595D02*
G01X25246Y22595D01*
G01X25246Y20395D01*
G01X20246Y20395D01*
G01X20246Y22595D01*
G01X14774Y24925D02*
G01X19774Y24925D01*
G01X19774Y22725D01*
G01X14774Y22725D01*
G01X14774Y24925D01*
G01X14774Y22639D02*
G01X19774Y22639D01*
G01X19774Y20439D01*
G01X14774Y20439D01*
G01X14774Y22639D01*
G01X14774Y20226D02*
G01X19774Y20226D01*
G01X19774Y18026D01*
G01X14774Y18026D01*
G01X14774Y20226D01*
G01X14774Y17940D02*
G01X19774Y17940D01*
G01X19774Y15740D01*
G01X14774Y15740D01*
G01X14774Y17940D01*
G54D12*
G01X27197Y12445D02*
G01X27197Y11345D01*
G01X25596Y11345D01*
G01X25596Y12445D01*
G01X27197Y13245D02*
G01X27197Y14345D01*
G01X26197Y14345D01*
G01X25596Y14345D01*
G01X25596Y13245D01*
G54D44*
G01X26102Y16183D02*
G01X26102Y15167D01*
G01X26711Y15167D02*
G01X26711Y16183D01*
G01X26406Y15776D02*
G01X26406Y15573D01*
G01X26508Y15472D02*
G01X26508Y15878D01*
G01X26508Y15878D02*
G01X26305Y15675D01*
G01X26305Y15675D02*
G01X26508Y15472D01*
G01X27219Y15167D02*
G01X25594Y15167D01*
G01X25594Y15167D02*
G01X25594Y16183D01*
G01X25594Y16183D02*
G01X27219Y16183D01*
G01X27219Y16183D02*
G01X27219Y15167D01*
G54D45*
G01X12696Y12626D02*
G01X13474Y12626D01*
G01X13631Y12677D01*
G01X13735Y12781D01*
G01X13786Y12939D01*
G01X13786Y13043D01*
G01X13735Y13198D01*
G01X13631Y13302D01*
G01X13474Y13353D01*
G01X12696Y13353D01*
G01X12956Y13749D02*
G01X12902Y13749D01*
G01X12798Y13800D01*
G01X12747Y13853D01*
G01X12696Y13957D01*
G01X12696Y14163D01*
G01X12747Y14267D01*
G01X12798Y14321D01*
G01X12902Y14371D01*
G01X13006Y14371D01*
G01X13110Y14321D01*
G01X13268Y14216D01*
G01X13786Y13696D01*
G01X13786Y14425D01*
G01X8236Y27735D02*
G01X8236Y26645D01*
G01X8236Y27735D02*
G01X8704Y27735D01*
G01X8859Y27684D01*
G01X8912Y27633D01*
G01X8963Y27529D01*
G01X8963Y27425D01*
G01X8912Y27321D01*
G01X8859Y27267D01*
G01X8704Y27217D01*
G01X8236Y27217D01*
G01X8600Y27217D02*
G01X8963Y26645D01*
G01X9359Y27476D02*
G01X9359Y27529D01*
G01X9410Y27633D01*
G01X9463Y27684D01*
G01X9567Y27735D01*
G01X9773Y27735D01*
G01X9877Y27684D01*
G01X9931Y27633D01*
G01X9981Y27529D01*
G01X9981Y27425D01*
G01X9931Y27321D01*
G01X9827Y27163D01*
G01X9306Y26645D01*
G01X10035Y26645D01*
G01X4208Y19756D02*
G01X4155Y19860D01*
G01X4051Y19964D01*
G01X3949Y20015D01*
G01X3741Y20015D01*
G01X3637Y19964D01*
G01X3533Y19860D01*
G01X3479Y19756D01*
G01X3428Y19601D01*
G01X3428Y19342D01*
G01X3479Y19184D01*
G01X3533Y19080D01*
G01X3637Y18976D01*
G01X3741Y18925D01*
G01X3949Y18925D01*
G01X4051Y18976D01*
G01X4155Y19080D01*
G01X4208Y19184D01*
G01X5069Y20015D02*
G01X4551Y19288D01*
G01X5331Y19288D01*
G01X5069Y20015D02*
G01X5069Y18925D01*
G01X4970Y11625D02*
G01X4917Y11729D01*
G01X4813Y11833D01*
G01X4711Y11887D01*
G01X4503Y11887D01*
G01X4399Y11833D01*
G01X4295Y11729D01*
G01X4241Y11625D01*
G01X4191Y11470D01*
G01X4191Y11211D01*
G01X4241Y11054D01*
G01X4295Y10949D01*
G01X4399Y10845D01*
G01X4503Y10795D01*
G01X4711Y10795D01*
G01X4813Y10845D01*
G01X4917Y10949D01*
G01X4970Y11054D01*
G01X5936Y11887D02*
G01X5417Y11887D01*
G01X5364Y11417D01*
G01X5417Y11470D01*
G01X5572Y11521D01*
G01X5727Y11521D01*
G01X5885Y11470D01*
G01X5989Y11366D01*
G01X6040Y11211D01*
G01X6040Y11107D01*
G01X5989Y10949D01*
G01X5885Y10845D01*
G01X5727Y10795D01*
G01X5572Y10795D01*
G01X5417Y10845D01*
G01X5364Y10899D01*
G01X5313Y11003D01*
G01X6406Y6676D02*
G01X6353Y6780D01*
G01X6249Y6884D01*
G01X6147Y6935D01*
G01X5939Y6935D01*
G01X5835Y6884D01*
G01X5731Y6780D01*
G01X5677Y6676D01*
G01X5626Y6521D01*
G01X5626Y6262D01*
G01X5677Y6104D01*
G01X5731Y6000D01*
G01X5835Y5896D01*
G01X5939Y5845D01*
G01X6147Y5845D01*
G01X6249Y5896D01*
G01X6353Y6000D01*
G01X6406Y6104D01*
G01X7008Y6935D02*
G01X6853Y6884D01*
G01X6800Y6780D01*
G01X6800Y6676D01*
G01X6853Y6572D01*
G01X6957Y6521D01*
G01X7163Y6467D01*
G01X7321Y6417D01*
G01X7425Y6312D01*
G01X7476Y6208D01*
G01X7476Y6053D01*
G01X7425Y5949D01*
G01X7371Y5896D01*
G01X7217Y5845D01*
G01X7008Y5845D01*
G01X6853Y5896D01*
G01X6800Y5949D01*
G01X6749Y6053D01*
G01X6749Y6208D01*
G01X6800Y6312D01*
G01X6904Y6417D01*
G01X7062Y6467D01*
G01X7267Y6521D01*
G01X7371Y6572D01*
G01X7425Y6676D01*
G01X7425Y6780D01*
G01X7371Y6884D01*
G01X7217Y6935D01*
G01X7008Y6935D01*
G01X9932Y23034D02*
G01X9879Y23138D01*
G01X9775Y23243D01*
G01X9673Y23293D01*
G01X9465Y23293D01*
G01X9361Y23243D01*
G01X9257Y23138D01*
G01X9203Y23034D01*
G01X9152Y22879D01*
G01X9152Y22620D01*
G01X9203Y22463D01*
G01X9257Y22359D01*
G01X9361Y22254D01*
G01X9465Y22204D01*
G01X9673Y22204D01*
G01X9775Y22254D01*
G01X9879Y22359D01*
G01X9932Y22463D01*
G01X10951Y22930D02*
G01X10897Y22775D01*
G01X10793Y22671D01*
G01X10638Y22620D01*
G01X10588Y22620D01*
G01X10430Y22671D01*
G01X10326Y22775D01*
G01X10275Y22930D01*
G01X10275Y22983D01*
G01X10326Y23138D01*
G01X10430Y23243D01*
G01X10588Y23293D01*
G01X10638Y23293D01*
G01X10793Y23243D01*
G01X10897Y23138D01*
G01X10951Y22930D01*
G01X10951Y22671D01*
G01X10897Y22412D01*
G01X10793Y22254D01*
G01X10638Y22204D01*
G01X10534Y22204D01*
G01X10379Y22254D01*
G01X10326Y22359D01*
G01X3428Y21920D02*
G01X3428Y20830D01*
G01X3428Y21920D02*
G01X3896Y21920D01*
G01X4051Y21869D01*
G01X4104Y21818D01*
G01X4155Y21714D01*
G01X4155Y21610D01*
G01X4104Y21506D01*
G01X4051Y21452D01*
G01X3896Y21402D01*
G01X3428Y21402D01*
G01X3792Y21402D02*
G01X4155Y20830D01*
G01X4602Y21920D02*
G01X5173Y21920D01*
G01X4864Y21506D01*
G01X5019Y21506D01*
G01X5123Y21452D01*
G01X5173Y21402D01*
G01X5227Y21247D01*
G01X5227Y21142D01*
G01X5173Y20985D01*
G01X5069Y20881D01*
G01X4914Y20830D01*
G01X4759Y20830D01*
G01X4602Y20881D01*
G01X4551Y20934D01*
G01X4498Y21038D01*
G01X3428Y23571D02*
G01X3428Y22481D01*
G01X3428Y23571D02*
G01X3896Y23571D01*
G01X4051Y23520D01*
G01X4104Y23469D01*
G01X4155Y23365D01*
G01X4155Y23261D01*
G01X4104Y23157D01*
G01X4051Y23103D01*
G01X3896Y23053D01*
G01X3428Y23053D01*
G01X3792Y23053D02*
G01X4155Y22481D01*
G01X5019Y23571D02*
G01X4498Y22844D01*
G01X5278Y22844D01*
G01X5019Y23571D02*
G01X5019Y22481D01*
G01X3428Y25349D02*
G01X3428Y24259D01*
G01X3428Y25349D02*
G01X3896Y25349D01*
G01X4051Y25298D01*
G01X4104Y25247D01*
G01X4155Y25143D01*
G01X4155Y25039D01*
G01X4104Y24935D01*
G01X4051Y24881D01*
G01X3896Y24831D01*
G01X3428Y24831D01*
G01X3792Y24831D02*
G01X4155Y24259D01*
G01X5123Y25349D02*
G01X4602Y25349D01*
G01X4551Y24881D01*
G01X4602Y24935D01*
G01X4759Y24986D01*
G01X4914Y24986D01*
G01X5069Y24935D01*
G01X5173Y24831D01*
G01X5227Y24676D01*
G01X5227Y24571D01*
G01X5173Y24414D01*
G01X5069Y24310D01*
G01X4914Y24259D01*
G01X4759Y24259D01*
G01X4602Y24310D01*
G01X4551Y24363D01*
G01X4498Y24467D01*
G01X19126Y13915D02*
G01X19126Y12823D01*
G01X19126Y12823D02*
G01X19749Y12823D01*
G01X20196Y13915D02*
G01X20767Y13915D01*
G01X20457Y13498D01*
G01X20612Y13498D01*
G01X20716Y13447D01*
G01X20767Y13394D01*
G01X20821Y13239D01*
G01X20821Y13135D01*
G01X20767Y12980D01*
G01X20663Y12876D01*
G01X20508Y12823D01*
G01X20353Y12823D01*
G01X20196Y12876D01*
G01X20145Y12927D01*
G01X20092Y13031D01*
G01X12971Y26474D02*
G01X12918Y26578D01*
G01X12814Y26682D01*
G01X12712Y26735D01*
G01X12504Y26735D01*
G01X12400Y26682D01*
G01X12296Y26578D01*
G01X12242Y26474D01*
G01X12192Y26319D01*
G01X12192Y26060D01*
G01X12242Y25902D01*
G01X12296Y25798D01*
G01X12400Y25694D01*
G01X12504Y25643D01*
G01X12712Y25643D01*
G01X12814Y25694D01*
G01X12918Y25798D01*
G01X12971Y25902D01*
G01X13314Y26527D02*
G01X13418Y26578D01*
G01X13573Y26735D01*
G01X13573Y25643D01*
G01X13970Y26474D02*
G01X13970Y26527D01*
G01X14020Y26631D01*
G01X14071Y26682D01*
G01X14175Y26735D01*
G01X14384Y26735D01*
G01X14488Y26682D01*
G01X14541Y26631D01*
G01X14592Y26527D01*
G01X14592Y26423D01*
G01X14541Y26319D01*
G01X14437Y26164D01*
G01X13916Y25643D01*
G01X14643Y25643D01*
G01X40099Y25955D02*
G01X39995Y25901D01*
G01X39891Y25797D01*
G01X39837Y25693D01*
G01X39786Y25538D01*
G01X39786Y25279D01*
G01X39837Y25122D01*
G01X39891Y25020D01*
G01X39995Y24916D01*
G01X40099Y24863D01*
G01X40307Y24863D01*
G01X40409Y24916D01*
G01X40513Y25020D01*
G01X40566Y25122D01*
G01X40617Y25279D01*
G01X40617Y25538D01*
G01X40566Y25693D01*
G01X40513Y25797D01*
G01X40409Y25901D01*
G01X40307Y25955D01*
G01X40099Y25955D01*
G01X40254Y25071D02*
G01X40566Y24758D01*
G01X41064Y25955D02*
G01X41636Y25955D01*
G01X41323Y25538D01*
G01X41481Y25538D01*
G01X41585Y25487D01*
G01X41636Y25434D01*
G01X41689Y25279D01*
G01X41689Y25175D01*
G01X41636Y25020D01*
G01X41531Y24916D01*
G01X41376Y24863D01*
G01X41221Y24863D01*
G01X41064Y24916D01*
G01X41013Y24967D01*
G01X40960Y25071D01*
G01X40539Y11395D02*
G01X40435Y11341D01*
G01X40331Y11237D01*
G01X40277Y11133D01*
G01X40226Y10978D01*
G01X40226Y10719D01*
G01X40277Y10562D01*
G01X40331Y10460D01*
G01X40435Y10356D01*
G01X40539Y10303D01*
G01X40747Y10303D01*
G01X40849Y10356D01*
G01X40953Y10460D01*
G01X41006Y10562D01*
G01X41057Y10719D01*
G01X41057Y10978D01*
G01X41006Y11133D01*
G01X40953Y11237D01*
G01X40849Y11341D01*
G01X40747Y11395D01*
G01X40539Y11395D01*
G01X40694Y10511D02*
G01X41006Y10198D01*
G01X41921Y11395D02*
G01X41400Y10666D01*
G01X42180Y10666D01*
G01X41921Y11395D02*
G01X41921Y10303D01*
G01X26235Y24198D02*
G01X26182Y24302D01*
G01X26078Y24406D01*
G01X25976Y24460D01*
G01X25768Y24460D01*
G01X25664Y24406D01*
G01X25560Y24302D01*
G01X25506Y24198D01*
G01X25455Y24043D01*
G01X25455Y23784D01*
G01X25506Y23627D01*
G01X25560Y23522D01*
G01X25664Y23418D01*
G01X25768Y23368D01*
G01X25976Y23368D01*
G01X26078Y23418D01*
G01X26182Y23522D01*
G01X26235Y23627D01*
G01X26578Y24251D02*
G01X26682Y24302D01*
G01X26837Y24460D01*
G01X26837Y23368D01*
G01X27701Y24460D02*
G01X27180Y23731D01*
G01X27960Y23731D01*
G01X27701Y24460D02*
G01X27701Y23368D01*
G01X31839Y25895D02*
G01X31735Y25841D01*
G01X31631Y25737D01*
G01X31577Y25633D01*
G01X31526Y25478D01*
G01X31526Y25219D01*
G01X31577Y25062D01*
G01X31631Y24960D01*
G01X31735Y24856D01*
G01X31839Y24803D01*
G01X32047Y24803D01*
G01X32149Y24856D01*
G01X32253Y24960D01*
G01X32306Y25062D01*
G01X32357Y25219D01*
G01X32357Y25478D01*
G01X32306Y25633D01*
G01X32253Y25737D01*
G01X32149Y25841D01*
G01X32047Y25895D01*
G01X31839Y25895D01*
G01X31994Y25011D02*
G01X32306Y24698D01*
G01X32700Y25686D02*
G01X32804Y25737D01*
G01X32962Y25895D01*
G01X32962Y24803D01*
G01X31699Y11415D02*
G01X31595Y11361D01*
G01X31491Y11257D01*
G01X31437Y11153D01*
G01X31386Y10998D01*
G01X31386Y10739D01*
G01X31437Y10582D01*
G01X31491Y10480D01*
G01X31595Y10376D01*
G01X31699Y10323D01*
G01X31907Y10323D01*
G01X32009Y10376D01*
G01X32113Y10480D01*
G01X32166Y10582D01*
G01X32217Y10739D01*
G01X32217Y10998D01*
G01X32166Y11153D01*
G01X32113Y11257D01*
G01X32009Y11361D01*
G01X31907Y11415D01*
G01X31699Y11415D01*
G01X31854Y10531D02*
G01X32166Y10218D01*
G01X32613Y11153D02*
G01X32613Y11206D01*
G01X32664Y11311D01*
G01X32717Y11361D01*
G01X32822Y11415D01*
G01X33027Y11415D01*
G01X33131Y11361D01*
G01X33185Y11311D01*
G01X33236Y11206D01*
G01X33236Y11102D01*
G01X33185Y10998D01*
G01X33081Y10843D01*
G01X32560Y10323D01*
G01X33289Y10323D01*
G01X26236Y26351D02*
G01X26183Y26455D01*
G01X26079Y26559D01*
G01X25977Y26613D01*
G01X25769Y26613D01*
G01X25665Y26559D01*
G01X25560Y26455D01*
G01X25507Y26351D01*
G01X25456Y26196D01*
G01X25456Y25937D01*
G01X25507Y25780D01*
G01X25560Y25675D01*
G01X25665Y25571D01*
G01X25769Y25521D01*
G01X25977Y25521D01*
G01X26079Y25571D01*
G01X26183Y25675D01*
G01X26236Y25780D01*
G01X26579Y26404D02*
G01X26683Y26455D01*
G01X26838Y26613D01*
G01X26838Y25521D01*
G01X27493Y26613D02*
G01X27336Y26559D01*
G01X27234Y26404D01*
G01X27181Y26143D01*
G01X27181Y25988D01*
G01X27234Y25729D01*
G01X27336Y25571D01*
G01X27493Y25521D01*
G01X27598Y25521D01*
G01X27752Y25571D01*
G01X27857Y25729D01*
G01X27907Y25988D01*
G01X27907Y26143D01*
G01X27857Y26404D01*
G01X27752Y26559D01*
G01X27598Y26613D01*
G01X27493Y26613D01*
G01X48449Y25935D02*
G01X48345Y25881D01*
G01X48241Y25777D01*
G01X48187Y25673D01*
G01X48136Y25518D01*
G01X48136Y25259D01*
G01X48187Y25102D01*
G01X48241Y25000D01*
G01X48345Y24896D01*
G01X48449Y24843D01*
G01X48657Y24843D01*
G01X48759Y24896D01*
G01X48863Y25000D01*
G01X48916Y25102D01*
G01X48967Y25259D01*
G01X48967Y25518D01*
G01X48916Y25673D01*
G01X48863Y25777D01*
G01X48759Y25881D01*
G01X48657Y25935D01*
G01X48449Y25935D01*
G01X48604Y25051D02*
G01X48916Y24738D01*
G01X49935Y25935D02*
G01X49414Y25935D01*
G01X49363Y25467D01*
G01X49414Y25518D01*
G01X49571Y25572D01*
G01X49726Y25572D01*
G01X49881Y25518D01*
G01X49986Y25414D01*
G01X50039Y25259D01*
G01X50039Y25155D01*
G01X49986Y25000D01*
G01X49881Y24896D01*
G01X49726Y24843D01*
G01X49571Y24843D01*
G01X49414Y24896D01*
G01X49363Y24947D01*
G01X49310Y25051D01*
G01X49029Y11485D02*
G01X48925Y11431D01*
G01X48821Y11327D01*
G01X48767Y11223D01*
G01X48716Y11068D01*
G01X48716Y10809D01*
G01X48767Y10652D01*
G01X48821Y10550D01*
G01X48925Y10446D01*
G01X49029Y10393D01*
G01X49237Y10393D01*
G01X49339Y10446D01*
G01X49443Y10550D01*
G01X49496Y10652D01*
G01X49547Y10809D01*
G01X49547Y11068D01*
G01X49496Y11223D01*
G01X49443Y11327D01*
G01X49339Y11431D01*
G01X49237Y11485D01*
G01X49029Y11485D01*
G01X49184Y10601D02*
G01X49496Y10288D01*
G01X50515Y11327D02*
G01X50461Y11431D01*
G01X50306Y11485D01*
G01X50202Y11485D01*
G01X50047Y11431D01*
G01X49943Y11276D01*
G01X49890Y11017D01*
G01X49890Y10756D01*
G01X49943Y10550D01*
G01X50047Y10446D01*
G01X50202Y10393D01*
G01X50253Y10393D01*
G01X50411Y10446D01*
G01X50515Y10550D01*
G01X50566Y10705D01*
G01X50566Y10756D01*
G01X50515Y10913D01*
G01X50411Y11017D01*
G01X50253Y11068D01*
G01X50202Y11068D01*
G01X50047Y11017D01*
G01X49943Y10913D01*
G01X49890Y10756D01*
G01X26190Y21741D02*
G01X26137Y21845D01*
G01X26033Y21949D01*
G01X25931Y22003D01*
G01X25723Y22003D01*
G01X25619Y21949D01*
G01X25515Y21845D01*
G01X25461Y21741D01*
G01X25410Y21586D01*
G01X25410Y21327D01*
G01X25461Y21170D01*
G01X25515Y21066D01*
G01X25619Y20961D01*
G01X25723Y20911D01*
G01X25931Y20911D01*
G01X26033Y20961D01*
G01X26137Y21066D01*
G01X26190Y21170D01*
G01X26533Y21795D02*
G01X26637Y21845D01*
G01X26792Y22003D01*
G01X26792Y20911D01*
G01X27760Y22003D02*
G01X27239Y22003D01*
G01X27188Y21533D01*
G01X27239Y21586D01*
G01X27394Y21637D01*
G01X27552Y21637D01*
G01X27707Y21586D01*
G01X27811Y21482D01*
G01X27862Y21327D01*
G01X27862Y21223D01*
G01X27811Y21066D01*
G01X27707Y20961D01*
G01X27552Y20911D01*
G01X27394Y20911D01*
G01X27239Y20961D01*
G01X27188Y21015D01*
G01X27135Y21119D01*
G01X12971Y24188D02*
G01X12918Y24292D01*
G01X12814Y24396D01*
G01X12712Y24449D01*
G01X12504Y24449D01*
G01X12400Y24396D01*
G01X12296Y24292D01*
G01X12242Y24188D01*
G01X12192Y24033D01*
G01X12192Y23774D01*
G01X12242Y23616D01*
G01X12296Y23512D01*
G01X12400Y23408D01*
G01X12504Y23357D01*
G01X12712Y23357D01*
G01X12814Y23408D01*
G01X12918Y23512D01*
G01X12971Y23616D01*
G01X13314Y24241D02*
G01X13418Y24292D01*
G01X13573Y24449D01*
G01X13573Y23357D01*
G01X14541Y24292D02*
G01X14488Y24396D01*
G01X14333Y24449D01*
G01X14229Y24449D01*
G01X14071Y24396D01*
G01X13970Y24241D01*
G01X13916Y23979D01*
G01X13916Y23720D01*
G01X13970Y23512D01*
G01X14071Y23408D01*
G01X14229Y23357D01*
G01X14279Y23357D01*
G01X14437Y23408D01*
G01X14541Y23512D01*
G01X14592Y23670D01*
G01X14592Y23720D01*
G01X14541Y23878D01*
G01X14437Y23979D01*
G01X14279Y24033D01*
G01X14229Y24033D01*
G01X14071Y23979D01*
G01X13970Y23878D01*
G01X13916Y23720D01*
G01X12971Y21912D02*
G01X12918Y22016D01*
G01X12814Y22120D01*
G01X12712Y22174D01*
G01X12504Y22174D01*
G01X12400Y22120D01*
G01X12296Y22016D01*
G01X12242Y21912D01*
G01X12192Y21757D01*
G01X12192Y21498D01*
G01X12242Y21341D01*
G01X12296Y21236D01*
G01X12400Y21132D01*
G01X12504Y21082D01*
G01X12712Y21082D01*
G01X12814Y21132D01*
G01X12918Y21236D01*
G01X12971Y21341D01*
G01X13314Y21965D02*
G01X13418Y22016D01*
G01X13573Y22174D01*
G01X13573Y21082D01*
G01X14175Y22174D02*
G01X14020Y22120D01*
G01X13970Y22016D01*
G01X13970Y21912D01*
G01X14020Y21808D01*
G01X14124Y21757D01*
G01X14333Y21704D01*
G01X14488Y21653D01*
G01X14592Y21549D01*
G01X14643Y21445D01*
G01X14643Y21290D01*
G01X14592Y21186D01*
G01X14541Y21132D01*
G01X14384Y21082D01*
G01X14175Y21082D01*
G01X14020Y21132D01*
G01X13970Y21186D01*
G01X13916Y21290D01*
G01X13916Y21445D01*
G01X13970Y21549D01*
G01X14071Y21653D01*
G01X14229Y21704D01*
G01X14437Y21757D01*
G01X14541Y21808D01*
G01X14592Y21912D01*
G01X14592Y22016D01*
G01X14541Y22120D01*
G01X14384Y22174D01*
G01X14175Y22174D01*
G01X20718Y19362D02*
G01X20665Y19466D01*
G01X20561Y19570D01*
G01X20459Y19623D01*
G01X20251Y19623D01*
G01X20147Y19570D01*
G01X20043Y19466D01*
G01X19989Y19362D01*
G01X19939Y19207D01*
G01X19939Y18948D01*
G01X19989Y18790D01*
G01X20043Y18686D01*
G01X20147Y18582D01*
G01X20251Y18531D01*
G01X20459Y18531D01*
G01X20561Y18582D01*
G01X20665Y18686D01*
G01X20718Y18790D01*
G01X21061Y19415D02*
G01X21165Y19466D01*
G01X21320Y19623D01*
G01X21320Y18531D01*
G01X22339Y19258D02*
G01X22288Y19103D01*
G01X22184Y18998D01*
G01X22026Y18948D01*
G01X21976Y18948D01*
G01X21818Y18998D01*
G01X21717Y19103D01*
G01X21663Y19258D01*
G01X21663Y19311D01*
G01X21717Y19466D01*
G01X21818Y19570D01*
G01X21976Y19623D01*
G01X22026Y19623D01*
G01X22184Y19570D01*
G01X22288Y19466D01*
G01X22339Y19258D01*
G01X22339Y18998D01*
G01X22288Y18739D01*
G01X22184Y18582D01*
G01X22026Y18531D01*
G01X21922Y18531D01*
G01X21767Y18582D01*
G01X21717Y18686D01*
G01X20718Y17203D02*
G01X20665Y17307D01*
G01X20561Y17411D01*
G01X20459Y17464D01*
G01X20251Y17464D01*
G01X20147Y17411D01*
G01X20043Y17307D01*
G01X19989Y17203D01*
G01X19939Y17048D01*
G01X19939Y16789D01*
G01X19989Y16631D01*
G01X20043Y16527D01*
G01X20147Y16423D01*
G01X20251Y16372D01*
G01X20459Y16372D01*
G01X20561Y16423D01*
G01X20665Y16527D01*
G01X20718Y16631D01*
G01X21112Y17203D02*
G01X21112Y17256D01*
G01X21165Y17360D01*
G01X21216Y17411D01*
G01X21320Y17464D01*
G01X21529Y17464D01*
G01X21633Y17411D01*
G01X21683Y17360D01*
G01X21737Y17256D01*
G01X21737Y17152D01*
G01X21683Y17048D01*
G01X21579Y16893D01*
G01X21061Y16372D01*
G01X21788Y16372D01*
G01X22443Y17464D02*
G01X22288Y17411D01*
G01X22184Y17256D01*
G01X22131Y16994D01*
G01X22131Y16839D01*
G01X22184Y16580D01*
G01X22288Y16423D01*
G01X22443Y16372D01*
G01X22547Y16372D01*
G01X22702Y16423D01*
G01X22806Y16580D01*
G01X22860Y16839D01*
G01X22860Y16994D01*
G01X22806Y17256D01*
G01X22702Y17411D01*
G01X22547Y17464D01*
G01X22443Y17464D01*
G01X25746Y8127D02*
G01X26836Y8127D01*
G01X25746Y8127D02*
G01X25746Y8595D01*
G01X25797Y8749D01*
G01X25848Y8803D01*
G01X25952Y8854D01*
G01X26056Y8854D01*
G01X26161Y8803D01*
G01X26214Y8749D01*
G01X26265Y8595D01*
G01X26265Y8127D01*
G01X26265Y8490D02*
G01X26836Y8854D01*
G01X26006Y9250D02*
G01X25952Y9250D01*
G01X25848Y9301D01*
G01X25797Y9354D01*
G01X25746Y9458D01*
G01X25746Y9664D01*
G01X25797Y9768D01*
G01X25848Y9821D01*
G01X25952Y9872D01*
G01X26056Y9872D01*
G01X26161Y9821D01*
G01X26318Y9717D01*
G01X26836Y9196D01*
G01X26836Y9925D01*
G01X25746Y10891D02*
G01X25746Y10373D01*
G01X26214Y10319D01*
G01X26161Y10373D01*
G01X26110Y10527D01*
G01X26110Y10682D01*
G01X26161Y10840D01*
G01X26265Y10944D01*
G01X26420Y10995D01*
G01X26524Y10995D01*
G01X26681Y10944D01*
G01X26785Y10840D01*
G01X26836Y10682D01*
G01X26836Y10527D01*
G01X26785Y10373D01*
G01X26732Y10319D01*
G01X26628Y10268D01*
G01X25886Y16453D02*
G01X26976Y16453D01*
G01X26976Y16453D02*
G01X26976Y17075D01*
G01X25886Y17418D02*
G01X26976Y17418D01*
G01X25886Y17418D02*
G01X25886Y18094D01*
G01X26405Y17418D02*
G01X26405Y17834D01*
G01X26976Y17418D02*
G01X26976Y18094D01*
G01X25886Y18436D02*
G01X26976Y18436D01*
G01X25886Y18436D02*
G01X25886Y18802D01*
G01X25937Y18957D01*
G01X26041Y19061D01*
G01X26145Y19112D01*
G01X26300Y19165D01*
G01X26559Y19165D01*
G01X26717Y19112D01*
G01X26821Y19061D01*
G01X26925Y18957D01*
G01X26976Y18802D01*
G01X26976Y18436D01*
G01X26145Y19559D02*
G01X26092Y19559D01*
G01X25988Y19612D01*
G01X25937Y19663D01*
G01X25886Y19767D01*
G01X25886Y19976D01*
G01X25937Y20080D01*
G01X25988Y20131D01*
G01X26092Y20184D01*
G01X26196Y20184D01*
G01X26300Y20131D01*
G01X26458Y20026D01*
G01X26976Y19508D01*
G01X26976Y20235D01*
G54D46*
G01X15366Y6885D02*
G01X15366Y5645D01*
G01X15366Y6885D02*
G01X16134Y6885D01*
G01X15366Y6295D02*
G01X15839Y6295D01*
G01X15366Y5645D02*
G01X16134Y5645D01*
G01X16525Y6885D02*
G01X16525Y5645D01*
G01X16525Y5645D02*
G01X17233Y5645D01*
G01X17622Y6885D02*
G01X17622Y5645D01*
G01X17622Y6885D02*
G01X18392Y6885D01*
G01X17622Y6295D02*
G01X18097Y6295D01*
G01X17622Y5645D02*
G01X18392Y5645D01*
G01X19667Y6590D02*
G01X19608Y6707D01*
G01X19491Y6826D01*
G01X19372Y6885D01*
G01X19136Y6885D01*
G01X19016Y6826D01*
G01X18900Y6707D01*
G01X18841Y6590D01*
G01X18780Y6412D01*
G01X18780Y6118D01*
G01X18841Y5940D01*
G01X18900Y5821D01*
G01X19016Y5704D01*
G01X19136Y5645D01*
G01X19372Y5645D01*
G01X19491Y5704D01*
G01X19608Y5821D01*
G01X19667Y5940D01*
G01X20472Y6885D02*
G01X20472Y5645D01*
G01X20058Y6885D02*
G01X20886Y6885D01*
G01X21274Y6885D02*
G01X21274Y5645D01*
G01X21274Y6885D02*
G01X21808Y6885D01*
G01X21983Y6826D01*
G01X22044Y6768D01*
G01X22103Y6649D01*
G01X22103Y6532D01*
G01X22044Y6412D01*
G01X21983Y6354D01*
G01X21808Y6295D01*
G01X21274Y6295D01*
G01X21688Y6295D02*
G01X22103Y5645D01*
G01X22847Y6885D02*
G01X22727Y6826D01*
G01X22611Y6707D01*
G01X22552Y6590D01*
G01X22491Y6412D01*
G01X22491Y6118D01*
G01X22552Y5940D01*
G01X22611Y5821D01*
G01X22727Y5704D01*
G01X22847Y5645D01*
G01X23083Y5645D01*
G01X23202Y5704D01*
G01X23319Y5821D01*
G01X23378Y5940D01*
G01X23439Y6118D01*
G01X23439Y6412D01*
G01X23378Y6590D01*
G01X23319Y6707D01*
G01X23202Y6826D01*
G01X23083Y6885D01*
G01X22847Y6885D01*
G01X23827Y6885D02*
G01X23827Y5645D01*
G01X23827Y6885D02*
G01X24655Y5645D01*
G01X24655Y6885D02*
G01X24655Y5645D01*
G01X25399Y6885D02*
G01X25280Y6826D01*
G01X25163Y6707D01*
G01X25105Y6590D01*
G01X25044Y6412D01*
G01X25044Y6118D01*
G01X25105Y5940D01*
G01X25163Y5821D01*
G01X25280Y5704D01*
G01X25399Y5645D01*
G01X25636Y5645D01*
G01X25755Y5704D01*
G01X25872Y5821D01*
G01X25930Y5940D01*
G01X25991Y6118D01*
G01X25991Y6412D01*
G01X25930Y6590D01*
G01X25872Y6707D01*
G01X25755Y6826D01*
G01X25636Y6885D01*
G01X25399Y6885D01*
G01X26735Y6885D02*
G01X26616Y6826D01*
G01X26499Y6707D01*
G01X26438Y6590D01*
G01X26380Y6412D01*
G01X26380Y6118D01*
G01X26438Y5940D01*
G01X26499Y5821D01*
G01X26616Y5704D01*
G01X26735Y5645D01*
G01X26972Y5645D01*
G01X27089Y5704D01*
G01X27208Y5821D01*
G01X27266Y5940D01*
G01X27325Y6118D01*
G01X27325Y6412D01*
G01X27266Y6590D01*
G01X27208Y6707D01*
G01X27089Y6826D01*
G01X26972Y6885D01*
G01X26735Y6885D01*
G01X27716Y6885D02*
G01X27716Y5645D01*
G01X27716Y6885D02*
G01X28247Y6885D01*
G01X28425Y6826D01*
G01X28483Y6768D01*
G01X28544Y6649D01*
G01X28544Y6532D01*
G01X28483Y6412D01*
G01X28425Y6354D01*
G01X28247Y6295D01*
G01X27716Y6295D02*
G01X28247Y6295D01*
G01X28425Y6235D01*
G01X28483Y6176D01*
G01X28544Y6057D01*
G01X28544Y5881D01*
G01X28483Y5762D01*
G01X28425Y5704D01*
G01X28247Y5645D01*
G01X27716Y5645D01*
G01X29761Y6707D02*
G01X29641Y6826D01*
G01X29466Y6885D01*
G01X29227Y6885D01*
G01X29052Y6826D01*
G01X28933Y6707D01*
G01X28933Y6590D01*
G01X28991Y6471D01*
G01X29052Y6412D01*
G01X29169Y6354D01*
G01X29524Y6235D01*
G01X29641Y6176D01*
G01X29702Y6118D01*
G01X29761Y5998D01*
G01X29761Y5821D01*
G01X29641Y5704D01*
G01X29466Y5645D01*
G01X29227Y5645D01*
G01X29052Y5704D01*
G01X28933Y5821D01*
G54D12*
G01X10776Y30285D02*
G01X10776Y28565D01*
G01X10776Y30285D02*
G01X11841Y30285D01*
G01X10776Y29467D02*
G01X11432Y29467D01*
G01X10776Y28565D02*
G01X11841Y28565D01*
G01X13525Y30038D02*
G01X13362Y30203D01*
G01X13116Y30285D01*
G01X12788Y30285D01*
G01X12544Y30203D01*
G01X12379Y30038D01*
G01X12379Y29876D01*
G01X12463Y29711D01*
G01X12544Y29629D01*
G01X12707Y29548D01*
G01X13197Y29386D01*
G01X13362Y29302D01*
G01X13443Y29220D01*
G01X13525Y29058D01*
G01X13525Y28812D01*
G01X13362Y28649D01*
G01X13116Y28565D01*
G01X12788Y28565D01*
G01X12544Y28649D01*
G01X12379Y28812D01*
G01X15293Y29876D02*
G01X15211Y30038D01*
G01X15046Y30203D01*
G01X14884Y30285D01*
G01X14556Y30285D01*
G01X14393Y30203D01*
G01X14228Y30038D01*
G01X14147Y29876D01*
G01X14066Y29629D01*
G01X14066Y29220D01*
G01X14147Y28977D01*
G01X14228Y28812D01*
G01X14393Y28649D01*
G01X14556Y28565D01*
G01X14884Y28565D01*
G01X15046Y28649D01*
G01X15211Y28812D01*
G01X15293Y28977D01*
G01X17093Y30285D02*
G01X17746Y28565D01*
G01X18402Y30285D02*
G01X17746Y28565D01*
G01X19024Y29876D02*
G01X19024Y29957D01*
G01X19105Y30122D01*
G01X19186Y30203D01*
G01X19351Y30285D01*
G01X19679Y30285D01*
G01X19842Y30203D01*
G01X19923Y30122D01*
G01X20004Y29957D01*
G01X20004Y29794D01*
G01X19923Y29629D01*
G01X19760Y29386D01*
G01X18943Y28565D01*
G01X20088Y28565D01*
G01X20710Y28977D02*
G01X20627Y28893D01*
G01X20710Y28812D01*
G01X20792Y28893D01*
G01X20710Y28977D01*
G01X21823Y30285D02*
G01X21577Y30203D01*
G01X21414Y29957D01*
G01X21330Y29548D01*
G01X21330Y29302D01*
G01X21414Y28893D01*
G01X21577Y28649D01*
G01X21823Y28565D01*
G01X21985Y28565D01*
G01X22232Y28649D01*
G01X22394Y28893D01*
G01X22476Y29302D01*
G01X22476Y29548D01*
G01X22394Y29957D01*
G01X22232Y30203D01*
G01X21985Y30285D01*
G01X21823Y30285D01*
G01X55122Y32685D02*
G01X54466Y30968D01*
G01X55122Y32685D02*
G01X55777Y30968D01*
G01X54713Y31539D02*
G01X55531Y31539D01*
G01X54466Y18835D02*
G01X54466Y17115D01*
G01X54466Y18835D02*
G01X55203Y18835D01*
G01X55447Y18751D01*
G01X55531Y18670D01*
G01X55612Y18507D01*
G01X55612Y18342D01*
G01X55531Y18179D01*
G01X55447Y18098D01*
G01X55203Y18014D01*
G01X54466Y18014D02*
G01X55203Y18014D01*
G01X55447Y17933D01*
G01X55531Y17852D01*
G01X55612Y17689D01*
G01X55612Y17443D01*
G01X55531Y17280D01*
G01X55447Y17196D01*
G01X55203Y17115D01*
G01X54466Y17115D01*
G01X55673Y3346D02*
G01X55592Y3508D01*
G01X55427Y3674D01*
G01X55264Y3755D01*
G01X54937Y3755D01*
G01X54774Y3674D01*
G01X54609Y3508D01*
G01X54528Y3346D01*
G01X54446Y3099D01*
G01X54446Y2691D01*
G01X54528Y2444D01*
G01X54609Y2282D01*
G01X54774Y2119D01*
G01X54937Y2035D01*
G01X55264Y2035D01*
G01X55427Y2119D01*
G01X55592Y2282D01*
G01X55673Y2444D01*
G54D14*
G75*
G01X7341Y11100D02*
G03X7343Y11100I1J-150D01*
G01*
G54D13*
G75*
G01X37033Y25664D02*
G03X37033Y25662I-200J-1D01*
G01*
G75*
G01X37160Y10932D02*
G03X37160Y10930I-200J-1D01*
G01*
G75*
G01X28651Y25537D02*
G03X28651Y25535I-200J-1D01*
G01*
G75*
G01X28651Y10932D02*
G03X28651Y10930I-200J-1D01*
G01*
G75*
G01X45542Y25537D02*
G03X45542Y25535I-200J-1D01*
G01*
G75*
G01X45669Y10932D02*
G03X45669Y10930I-200J-1D01*
G01*
G36*
G01X55966Y34985D02*
G01X61656Y34985D01*
G01X61656Y-14D01*
G01X55966Y-14D01*
G01X55966Y34985D01*
G37*
G36*
G01X-23Y34965D02*
G01X2306Y34965D01*
G01X2306Y-34D01*
G01X-23Y-34D01*
G01X-23Y34965D01*
G37*
M00*
M02*
