G04 Layer: BottomSilkLayer*
G04 EasyEDA v6.1.51, Thu, 11 Jul 2019 05:23:43 GMT*
G04 97ee957230b044f1988730904329927e,674c0623d3a246009f606e19fc16e94a,10*
G04 Gerber Generator version 0.2*
G04 Scale: 100 percent, Rotated: No, Reflected: No *
G04 Dimensions in millimeters *
G04 leading zeros omitted , absolute positions ,3 integer and 3 decimal *
%FSLAX33Y33*%
%MOMM*%
G90*
G71D02*

%ADD10C,0.254000*%
%ADD12C,0.200000*%
%ADD13C,0.399999*%
%ADD14C,0.299999*%
%ADD43C,0.228600*%
%ADD44C,0.129032*%
%ADD45C,0.152400*%
%ADD46C,0.180010*%
%ADD47C,0.140005*%
%ADD48C,0.203200*%

%LPD*%

%LPD*%
G36*
G01X38873Y20276D02*
G01X38801Y20277D01*
G01X38701Y20276D01*
G01X38567Y20274D01*
G01X38164Y20269D01*
G01X38091Y19875D01*
G01X38076Y19795D01*
G01X38061Y19720D01*
G01X38047Y19651D01*
G01X38034Y19590D01*
G01X38022Y19539D01*
G01X38011Y19500D01*
G01X38003Y19473D01*
G01X37998Y19461D01*
G01X37968Y19444D01*
G01X37905Y19415D01*
G01X37820Y19378D01*
G01X37724Y19337D01*
G01X37627Y19298D01*
G01X37541Y19265D01*
G01X37476Y19241D01*
G01X37444Y19232D01*
G01X37432Y19237D01*
G01X37407Y19250D01*
G01X37372Y19272D01*
G01X37328Y19300D01*
G01X37276Y19333D01*
G01X37217Y19372D01*
G01X37153Y19415D01*
G01X37086Y19461D01*
G01X36755Y19689D01*
G01X36470Y19405D01*
G01X36413Y19347D01*
G01X36360Y19293D01*
G01X36311Y19243D01*
G01X36269Y19199D01*
G01X36234Y19162D01*
G01X36208Y19133D01*
G01X36191Y19114D01*
G01X36185Y19105D01*
G01X36190Y19095D01*
G01X36202Y19074D01*
G01X36222Y19043D01*
G01X36249Y19002D01*
G01X36280Y18954D01*
G01X36317Y18899D01*
G01X36357Y18839D01*
G01X36400Y18776D01*
G01X36444Y18713D01*
G01X36484Y18652D01*
G01X36520Y18595D01*
G01X36552Y18545D01*
G01X36579Y18501D01*
G01X36598Y18466D01*
G01X36611Y18442D01*
G01X36615Y18428D01*
G01X36606Y18394D01*
G01X36581Y18327D01*
G01X36546Y18237D01*
G01X36505Y18137D01*
G01X36462Y18038D01*
G01X36423Y17950D01*
G01X36393Y17885D01*
G01X36375Y17855D01*
G01X36341Y17844D01*
G01X36262Y17826D01*
G01X36148Y17802D01*
G01X36011Y17776D01*
G01X35940Y17763D01*
G01X35873Y17750D01*
G01X35809Y17738D01*
G01X35752Y17726D01*
G01X35703Y17715D01*
G01X35662Y17706D01*
G01X35633Y17699D01*
G01X35617Y17694D01*
G01X35602Y17686D01*
G01X35591Y17676D01*
G01X35583Y17657D01*
G01X35577Y17627D01*
G01X35574Y17580D01*
G01X35572Y17512D01*
G01X35571Y17419D01*
G01X35571Y17295D01*
G01X35572Y17159D01*
G01X35574Y17054D01*
G01X35579Y16976D01*
G01X35588Y16921D01*
G01X35601Y16885D01*
G01X35621Y16864D01*
G01X35647Y16854D01*
G01X35680Y16851D01*
G01X35714Y16849D01*
G01X35764Y16842D01*
G01X35826Y16832D01*
G01X35896Y16818D01*
G01X35972Y16803D01*
G01X36049Y16787D01*
G01X36125Y16771D01*
G01X36195Y16754D01*
G01X36257Y16739D01*
G01X36308Y16725D01*
G01X36342Y16713D01*
G01X36359Y16705D01*
G01X36370Y16687D01*
G01X36388Y16652D01*
G01X36410Y16604D01*
G01X36435Y16546D01*
G01X36462Y16481D01*
G01X36490Y16413D01*
G01X36516Y16345D01*
G01X36541Y16280D01*
G01X36563Y16221D01*
G01X36580Y16171D01*
G01X36591Y16135D01*
G01X36595Y16114D01*
G01X36591Y16100D01*
G01X36579Y16075D01*
G01X36560Y16041D01*
G01X36535Y15999D01*
G01X36504Y15950D01*
G01X36470Y15896D01*
G01X36431Y15838D01*
G01X36390Y15778D01*
G01X36311Y15661D01*
G01X36246Y15563D01*
G01X36202Y15493D01*
G01X36185Y15463D01*
G01X36191Y15454D01*
G01X36208Y15434D01*
G01X36234Y15405D01*
G01X36269Y15368D01*
G01X36311Y15323D01*
G01X36359Y15274D01*
G01X36412Y15219D01*
G01X36753Y14878D01*
G01X37052Y15085D01*
G01X37112Y15127D01*
G01X37171Y15166D01*
G01X37225Y15201D01*
G01X37274Y15232D01*
G01X37316Y15257D01*
G01X37350Y15276D01*
G01X37374Y15288D01*
G01X37388Y15293D01*
G01X37413Y15287D01*
G01X37455Y15271D01*
G01X37507Y15248D01*
G01X37564Y15219D01*
G01X37702Y15146D01*
G01X37730Y15214D01*
G01X37736Y15228D01*
G01X37746Y15252D01*
G01X37759Y15284D01*
G01X37776Y15324D01*
G01X37795Y15372D01*
G01X37817Y15425D01*
G01X37842Y15484D01*
G01X37868Y15548D01*
G01X37896Y15616D01*
G01X37926Y15687D01*
G01X37956Y15761D01*
G01X37988Y15836D01*
G01X38019Y15912D01*
G01X38049Y15985D01*
G01X38078Y16055D01*
G01X38106Y16122D01*
G01X38131Y16184D01*
G01X38155Y16241D01*
G01X38176Y16292D01*
G01X38194Y16337D01*
G01X38210Y16374D01*
G01X38230Y16424D01*
G01X38235Y16435D01*
G01X38239Y16462D01*
G01X38226Y16489D01*
G01X38189Y16523D01*
G01X38122Y16574D01*
G01X38068Y16614D01*
G01X38019Y16655D01*
G01X37976Y16696D01*
G01X37937Y16740D01*
G01X37901Y16786D01*
G01X37868Y16835D01*
G01X37837Y16889D01*
G01X37808Y16948D01*
G01X37778Y17018D01*
G01X37761Y17084D01*
G01X37754Y17165D01*
G01X37752Y17283D01*
G01X37754Y17406D01*
G01X37762Y17488D01*
G01X37782Y17556D01*
G01X37820Y17638D01*
G01X37854Y17701D01*
G01X37891Y17759D01*
G01X37932Y17814D01*
G01X37977Y17864D01*
G01X38025Y17911D01*
G01X38076Y17952D01*
G01X38131Y17990D01*
G01X38188Y18023D01*
G01X38249Y18051D01*
G01X38312Y18075D01*
G01X38378Y18094D01*
G01X38447Y18108D01*
G01X38502Y18115D01*
G01X38557Y18119D01*
G01X38612Y18119D01*
G01X38666Y18115D01*
G01X38720Y18107D01*
G01X38772Y18096D01*
G01X38824Y18081D01*
G01X38875Y18064D01*
G01X38924Y18042D01*
G01X38972Y18018D01*
G01X39019Y17991D01*
G01X39063Y17960D01*
G01X39106Y17927D01*
G01X39147Y17890D01*
G01X39186Y17851D01*
G01X39223Y17809D01*
G01X39257Y17765D01*
G01X39289Y17718D01*
G01X39318Y17668D01*
G01X39345Y17616D01*
G01X39379Y17537D01*
G01X39398Y17470D01*
G01X39408Y17396D01*
G01X39410Y17293D01*
G01X39409Y17234D01*
G01X39404Y17176D01*
G01X39396Y17121D01*
G01X39385Y17067D01*
G01X39371Y17014D01*
G01X39353Y16964D01*
G01X39332Y16915D01*
G01X39308Y16868D01*
G01X39281Y16822D01*
G01X39250Y16778D01*
G01X39216Y16736D01*
G01X39179Y16696D01*
G01X39138Y16656D01*
G01X39094Y16619D01*
G01X39047Y16583D01*
G01X38996Y16549D01*
G01X38962Y16526D01*
G01X38935Y16505D01*
G01X38916Y16489D01*
G01X38909Y16479D01*
G01X38913Y16465D01*
G01X38925Y16434D01*
G01X38944Y16385D01*
G01X38970Y16322D01*
G01X39000Y16246D01*
G01X39035Y16160D01*
G01X39074Y16066D01*
G01X39115Y15966D01*
G01X39143Y15897D01*
G01X39172Y15829D01*
G01X39199Y15761D01*
G01X39226Y15696D01*
G01X39252Y15633D01*
G01X39276Y15574D01*
G01X39299Y15519D01*
G01X39319Y15469D01*
G01X39337Y15425D01*
G01X39353Y15387D01*
G01X39365Y15356D01*
G01X39374Y15334D01*
G01X39400Y15269D01*
G01X39421Y15222D01*
G01X39439Y15191D01*
G01X39458Y15174D01*
G01X39480Y15170D01*
G01X39508Y15178D01*
G01X39545Y15196D01*
G01X39593Y15222D01*
G01X39646Y15249D01*
G01X39695Y15272D01*
G01X39735Y15287D01*
G01X39760Y15293D01*
G01X39774Y15288D01*
G01X39799Y15276D01*
G01X39834Y15257D01*
G01X39877Y15232D01*
G01X39927Y15201D01*
G01X39982Y15165D01*
G01X40042Y15126D01*
G01X40104Y15085D01*
G01X40408Y14877D01*
G01X40750Y15219D01*
G01X40803Y15274D01*
G01X40850Y15325D01*
G01X40891Y15370D01*
G01X40925Y15408D01*
G01X40950Y15439D01*
G01X40965Y15460D01*
G01X40969Y15470D01*
G01X40948Y15503D01*
G01X40928Y15535D01*
G01X40901Y15576D01*
G01X40869Y15624D01*
G01X40832Y15677D01*
G01X40793Y15735D01*
G01X40751Y15796D01*
G01X40542Y16098D01*
G01X40660Y16398D01*
G01X40707Y16516D01*
G01X40748Y16615D01*
G01X40778Y16684D01*
G01X40793Y16714D01*
G01X40809Y16720D01*
G01X40850Y16730D01*
G01X40911Y16744D01*
G01X40986Y16761D01*
G01X41072Y16779D01*
G01X41256Y16817D01*
G01X41344Y16834D01*
G01X41423Y16850D01*
G01X41490Y16862D01*
G01X41538Y16870D01*
G01X41563Y16873D01*
G01X41564Y16881D01*
G01X41566Y16905D01*
G01X41567Y16943D01*
G01X41569Y16993D01*
G01X41570Y17054D01*
G01X41570Y17123D01*
G01X41571Y17200D01*
G01X41571Y17418D01*
G01X41570Y17519D01*
G01X41569Y17592D01*
G01X41565Y17642D01*
G01X41560Y17673D01*
G01X41552Y17690D01*
G01X41540Y17699D01*
G01X41525Y17703D01*
G01X41504Y17707D01*
G01X41468Y17714D01*
G01X41419Y17724D01*
G01X41361Y17735D01*
G01X41296Y17747D01*
G01X41226Y17760D01*
G01X41155Y17774D01*
G01X41085Y17787D01*
G01X41018Y17799D01*
G01X40959Y17810D01*
G01X40908Y17819D01*
G01X40870Y17826D01*
G01X40838Y17832D01*
G01X40812Y17842D01*
G01X40789Y17860D01*
G01X40766Y17888D01*
G01X40741Y17930D01*
G01X40711Y17991D01*
G01X40675Y18073D01*
G01X40628Y18181D01*
G01X40521Y18433D01*
G01X40635Y18602D01*
G01X40660Y18639D01*
G01X40718Y18726D01*
G01X40749Y18771D01*
G01X40781Y18817D01*
G01X40811Y18862D01*
G01X40840Y18904D01*
G01X40866Y18942D01*
G01X40984Y19113D01*
G01X40699Y19398D01*
G01X40642Y19456D01*
G01X40588Y19509D01*
G01X40538Y19558D01*
G01X40495Y19600D01*
G01X40458Y19635D01*
G01X40430Y19661D01*
G01X40411Y19678D01*
G01X40403Y19684D01*
G01X40394Y19679D01*
G01X40373Y19666D01*
G01X40341Y19645D01*
G01X40299Y19618D01*
G01X40249Y19584D01*
G01X40193Y19546D01*
G01X40131Y19504D01*
G01X40065Y19458D01*
G01X39999Y19413D01*
G01X39936Y19371D01*
G01X39877Y19332D01*
G01X39825Y19299D01*
G01X39781Y19271D01*
G01X39745Y19251D01*
G01X39720Y19238D01*
G01X39708Y19233D01*
G01X39676Y19242D01*
G01X39611Y19267D01*
G01X39522Y19301D01*
G01X39422Y19341D01*
G01X39323Y19382D01*
G01X39235Y19419D01*
G01X39172Y19447D01*
G01X39144Y19462D01*
G01X39136Y19493D01*
G01X39097Y19688D01*
G01X39071Y19828D01*
G01X39058Y19901D01*
G01X39044Y19971D01*
G01X39032Y20036D01*
G01X39020Y20095D01*
G01X39009Y20146D01*
G01X39000Y20187D01*
G01X38993Y20217D01*
G01X38988Y20233D01*
G01X38982Y20249D01*
G01X38972Y20260D01*
G01X38954Y20268D01*
G01X38923Y20273D01*
G01X38873Y20276D01*
G37*

%LPD*%
G36*
G01X30862Y29535D02*
G01X30828Y29540D01*
G01X30803Y29538D01*
G01X30773Y29533D01*
G01X30737Y29525D01*
G01X30697Y29514D01*
G01X30653Y29500D01*
G01X30606Y29484D01*
G01X30555Y29465D01*
G01X30501Y29444D01*
G01X30445Y29420D01*
G01X30388Y29395D01*
G01X30328Y29369D01*
G01X30267Y29341D01*
G01X30206Y29311D01*
G01X30145Y29280D01*
G01X30083Y29249D01*
G01X30023Y29217D01*
G01X29963Y29184D01*
G01X29905Y29151D01*
G01X29849Y29117D01*
G01X29795Y29084D01*
G01X29747Y29053D01*
G01X29698Y29017D01*
G01X29645Y28978D01*
G01X29591Y28935D01*
G01X29534Y28889D01*
G01X29477Y28841D01*
G01X29363Y28739D01*
G01X29307Y28686D01*
G01X29252Y28632D01*
G01X29198Y28580D01*
G01X29148Y28527D01*
G01X29099Y28475D01*
G01X29055Y28426D01*
G01X29014Y28378D01*
G01X28979Y28333D01*
G01X28951Y28295D01*
G01X28924Y28256D01*
G01X28898Y28217D01*
G01X28873Y28177D01*
G01X28848Y28135D01*
G01X28824Y28093D01*
G01X28802Y28049D01*
G01X28779Y28005D01*
G01X28758Y27959D01*
G01X28738Y27912D01*
G01X28718Y27864D01*
G01X28699Y27816D01*
G01X28663Y27714D01*
G01X28647Y27662D01*
G01X28631Y27608D01*
G01X28616Y27553D01*
G01X28602Y27498D01*
G01X28589Y27441D01*
G01X28576Y27383D01*
G01X28564Y27323D01*
G01X28553Y27262D01*
G01X28542Y27200D01*
G01X28533Y27137D01*
G01X28524Y27073D01*
G01X28516Y27007D01*
G01X28508Y26940D01*
G01X28502Y26872D01*
G01X28496Y26802D01*
G01X28491Y26731D01*
G01X28483Y26585D01*
G01X28477Y26433D01*
G01X28476Y26355D01*
G01X28475Y26276D01*
G01X28472Y25737D01*
G01X28402Y25723D01*
G01X28360Y25711D01*
G01X28327Y25693D01*
G01X28301Y25667D01*
G01X28282Y25631D01*
G01X28268Y25581D01*
G01X28260Y25517D01*
G01X28255Y25435D01*
G01X28254Y25332D01*
G01X28252Y25222D01*
G01X28247Y25122D01*
G01X28239Y25044D01*
G01X28229Y24998D01*
G01X28220Y24970D01*
G01X28216Y24937D01*
G01X28215Y24898D01*
G01X28218Y24854D01*
G01X28224Y24806D01*
G01X28233Y24754D01*
G01X28246Y24697D01*
G01X28262Y24637D01*
G01X28282Y24573D01*
G01X28304Y24507D01*
G01X28330Y24438D01*
G01X28359Y24366D01*
G01X28405Y24260D01*
G01X28448Y24171D01*
G01X28489Y24101D01*
G01X28529Y24047D01*
G01X28568Y24008D01*
G01X28607Y23984D01*
G01X28648Y23974D01*
G01X28690Y23976D01*
G01X28718Y23982D01*
G01X28739Y23983D01*
G01X28754Y23975D01*
G01X28767Y23950D01*
G01X28777Y23905D01*
G01X28787Y23835D01*
G01X28800Y23732D01*
G01X28817Y23593D01*
G01X28825Y23529D01*
G01X28834Y23470D01*
G01X28845Y23417D01*
G01X28857Y23368D01*
G01X28871Y23321D01*
G01X28886Y23276D01*
G01X28905Y23230D01*
G01X28926Y23185D01*
G01X29007Y23019D01*
G01X28947Y22687D01*
G01X28931Y22593D01*
G01X28917Y22508D01*
G01X28907Y22433D01*
G01X28899Y22365D01*
G01X28894Y22305D01*
G01X28891Y22251D01*
G01X28891Y22204D01*
G01X28894Y22162D01*
G01X28900Y22124D01*
G01X28908Y22090D01*
G01X28919Y22060D01*
G01X28932Y22031D01*
G01X28952Y21990D01*
G01X28962Y21956D01*
G01X28961Y21926D01*
G01X28951Y21897D01*
G01X28943Y21872D01*
G01X28937Y21842D01*
G01X28935Y21813D01*
G01X28938Y21786D01*
G01X28940Y21756D01*
G01X28934Y21734D01*
G01X28918Y21717D01*
G01X28890Y21702D01*
G01X28861Y21686D01*
G01X28841Y21661D01*
G01X28830Y21625D01*
G01X28823Y21570D01*
G01X28816Y21524D01*
G01X28806Y21484D01*
G01X28790Y21453D01*
G01X28773Y21434D01*
G01X28752Y21416D01*
G01X28744Y21398D01*
G01X28748Y21373D01*
G01X28763Y21338D01*
G01X28779Y21299D01*
G01X28779Y21272D01*
G01X28762Y21247D01*
G01X28685Y21184D01*
G01X28667Y21158D01*
G01X28667Y21127D01*
G01X28683Y21082D01*
G01X28698Y21037D01*
G01X28701Y21006D01*
G01X28688Y20978D01*
G01X28659Y20946D01*
G01X28629Y20913D01*
G01X28618Y20887D01*
G01X28624Y20857D01*
G01X28647Y20812D01*
G01X28677Y20759D01*
G01X28714Y20704D01*
G01X28756Y20646D01*
G01X28803Y20586D01*
G01X28854Y20524D01*
G01X28909Y20463D01*
G01X28966Y20402D01*
G01X29025Y20343D01*
G01X29082Y20291D01*
G01X29136Y20247D01*
G01X29188Y20211D01*
G01X29239Y20184D01*
G01X29292Y20164D01*
G01X29346Y20150D01*
G01X29405Y20142D01*
G01X29467Y20140D01*
G01X29550Y20144D01*
G01X29640Y20155D01*
G01X29731Y20173D01*
G01X29819Y20195D01*
G01X29897Y20220D01*
G01X29963Y20247D01*
G01X30010Y20274D01*
G01X30033Y20300D01*
G01X30046Y20314D01*
G01X30071Y20325D01*
G01X30105Y20331D01*
G01X30148Y20333D01*
G01X30193Y20337D01*
G01X30237Y20346D01*
G01X30276Y20361D01*
G01X30308Y20379D01*
G01X30342Y20407D01*
G01X30355Y20426D01*
G01X30347Y20447D01*
G01X30320Y20476D01*
G01X30298Y20503D01*
G01X30288Y20524D01*
G01X30291Y20543D01*
G01X30305Y20563D01*
G01X30320Y20578D01*
G01X30337Y20589D01*
G01X30355Y20597D01*
G01X30370Y20600D01*
G01X30400Y20611D01*
G01X30416Y20639D01*
G01X30414Y20673D01*
G01X30394Y20707D01*
G01X30373Y20740D01*
G01X30372Y20777D01*
G01X30389Y20806D01*
G01X30420Y20818D01*
G01X30435Y20821D01*
G01X30453Y20829D01*
G01X30470Y20840D01*
G01X30485Y20854D01*
G01X30499Y20875D01*
G01X30503Y20893D01*
G01X30497Y20911D01*
G01X30480Y20933D01*
G01X30457Y20974D01*
G01X30453Y21015D01*
G01X30467Y21047D01*
G01X30496Y21060D01*
G01X30512Y21063D01*
G01X30529Y21071D01*
G01X30547Y21083D01*
G01X30562Y21097D01*
G01X30577Y21119D01*
G01X30582Y21139D01*
G01X30577Y21162D01*
G01X30562Y21193D01*
G01X30547Y21228D01*
G01X30544Y21264D01*
G01X30553Y21312D01*
G01X30577Y21380D01*
G01X30602Y21437D01*
G01X30626Y21479D01*
G01X30651Y21505D01*
G01X30677Y21517D01*
G01X30700Y21523D01*
G01X30726Y21534D01*
G01X30752Y21548D01*
G01X30774Y21564D01*
G01X30790Y21575D01*
G01X30812Y21584D01*
G01X30841Y21591D01*
G01X30878Y21596D01*
G01X30927Y21600D01*
G01X30989Y21602D01*
G01X31066Y21604D01*
G01X31159Y21604D01*
G01X31265Y21605D01*
G01X31349Y21606D01*
G01X31415Y21610D01*
G01X31469Y21615D01*
G01X31513Y21624D01*
G01X31554Y21636D01*
G01X31596Y21652D01*
G01X31643Y21673D01*
G01X31680Y21692D01*
G01X31718Y21714D01*
G01X31757Y21739D01*
G01X31797Y21769D01*
G01X31838Y21801D01*
G01X31880Y21837D01*
G01X31923Y21877D01*
G01X32005Y21959D01*
G01X32039Y21996D01*
G01X32071Y22033D01*
G01X32101Y22072D01*
G01X32132Y22115D01*
G01X32163Y22163D01*
G01X32197Y22217D01*
G01X32234Y22281D01*
G01X32276Y22356D01*
G01X32323Y22444D01*
G01X32377Y22546D01*
G01X32439Y22664D01*
G01X32486Y22753D01*
G01X32529Y22836D01*
G01X32569Y22914D01*
G01X32640Y23056D01*
G01X32672Y23121D01*
G01X32701Y23182D01*
G01X32727Y23239D01*
G01X32752Y23294D01*
G01X32774Y23346D01*
G01X32794Y23395D01*
G01X32813Y23443D01*
G01X32830Y23490D01*
G01X32845Y23535D01*
G01X32859Y23579D01*
G01X32872Y23624D01*
G01X32894Y23712D01*
G01X32903Y23757D01*
G01X32912Y23803D01*
G01X32920Y23851D01*
G01X32928Y23900D01*
G01X32936Y23952D01*
G01X32943Y24007D01*
G01X32958Y24094D01*
G01X32977Y24165D01*
G01X33006Y24224D01*
G01X33045Y24283D01*
G01X33080Y24336D01*
G01X33117Y24403D01*
G01X33151Y24475D01*
G01X33176Y24544D01*
G01X33202Y24629D01*
G01X33214Y24698D01*
G01X33214Y24767D01*
G01X33202Y24849D01*
G01X33197Y24886D01*
G01X33192Y24937D01*
G01X33188Y24997D01*
G01X33184Y25066D01*
G01X33181Y25141D01*
G01X33179Y25220D01*
G01X33177Y25300D01*
G01X33176Y25381D01*
G01X33176Y25504D01*
G01X33175Y25599D01*
G01X33172Y25669D01*
G01X33168Y25719D01*
G01X33161Y25754D01*
G01X33150Y25778D01*
G01X33135Y25797D01*
G01X33116Y25815D01*
G01X33085Y25845D01*
G01X33069Y25873D01*
G01X33069Y25910D01*
G01X33080Y25964D01*
G01X33085Y25992D01*
G01X33088Y26031D01*
G01X33091Y26082D01*
G01X33093Y26141D01*
G01X33095Y26207D01*
G01X33095Y26278D01*
G01X33094Y26351D01*
G01X33092Y26427D01*
G01X33089Y26499D01*
G01X33086Y26565D01*
G01X33082Y26624D01*
G01X33078Y26678D01*
G01X33073Y26728D01*
G01X33067Y26777D01*
G01X33059Y26823D01*
G01X33050Y26870D01*
G01X33040Y26917D01*
G01X33028Y26967D01*
G01X33014Y27021D01*
G01X32998Y27079D01*
G01X32979Y27145D01*
G01X32959Y27211D01*
G01X32938Y27276D01*
G01X32916Y27341D01*
G01X32894Y27405D01*
G01X32871Y27469D01*
G01X32821Y27595D01*
G01X32795Y27657D01*
G01X32769Y27718D01*
G01X32742Y27778D01*
G01X32714Y27838D01*
G01X32685Y27898D01*
G01X32656Y27956D01*
G01X32626Y28014D01*
G01X32595Y28071D01*
G01X32564Y28126D01*
G01X32532Y28181D01*
G01X32499Y28236D01*
G01X32466Y28288D01*
G01X32433Y28341D01*
G01X32398Y28392D01*
G01X32364Y28442D01*
G01X32328Y28491D01*
G01X32292Y28539D01*
G01X32256Y28586D01*
G01X32219Y28632D01*
G01X32182Y28676D01*
G01X32144Y28719D01*
G01X32106Y28761D01*
G01X32067Y28802D01*
G01X32028Y28842D01*
G01X31982Y28886D01*
G01X31935Y28930D01*
G01X31888Y28972D01*
G01X31792Y29054D01*
G01X31742Y29093D01*
G01X31693Y29130D01*
G01X31643Y29167D01*
G01X31594Y29201D01*
G01X31543Y29235D01*
G01X31493Y29267D01*
G01X31443Y29298D01*
G01X31393Y29327D01*
G01X31343Y29354D01*
G01X31293Y29380D01*
G01X31243Y29405D01*
G01X31194Y29427D01*
G01X31145Y29448D01*
G01X31096Y29467D01*
G01X31048Y29483D01*
G01X30979Y29505D01*
G01X30915Y29523D01*
G01X30862Y29535D01*
G37*

%LPC*%
G36*
G01X29257Y20289D02*
G01X29186Y20305D01*
G01X29161Y20300D01*
G01X29176Y20273D01*
G01X29224Y20242D01*
G01X29298Y20214D01*
G01X29386Y20196D01*
G01X29472Y20189D01*
G01X29503Y20193D01*
G01X29500Y20202D01*
G01X29461Y20219D01*
G01X29382Y20248D01*
G01X29257Y20289D01*
G37*
G36*
G01X28878Y21008D02*
G01X28834Y21030D01*
G01X28807Y21029D01*
G01X28794Y21002D01*
G01X28789Y20945D01*
G01X28788Y20908D01*
G01X28788Y20850D01*
G01X28789Y20836D01*
G01X28789Y20829D01*
G01X28784Y20823D01*
G01X28777Y20819D01*
G01X28767Y20818D01*
G01X28757Y20823D01*
G01X28749Y20836D01*
G01X28743Y20856D01*
G01X28741Y20880D01*
G01X28739Y20903D01*
G01X28734Y20920D01*
G01X28726Y20928D01*
G01X28716Y20927D01*
G01X28693Y20897D01*
G01X28697Y20849D01*
G01X28730Y20782D01*
G01X28792Y20695D01*
G01X28851Y20627D01*
G01X28906Y20577D01*
G01X28971Y20537D01*
G01X29056Y20500D01*
G01X29141Y20468D01*
G01X29193Y20454D01*
G01X29221Y20457D01*
G01X29238Y20476D01*
G01X29248Y20492D01*
G01X29256Y20505D01*
G01X29262Y20516D01*
G01X29266Y20521D01*
G01X29281Y20519D01*
G01X29316Y20510D01*
G01X29367Y20495D01*
G01X29430Y20476D01*
G01X29508Y20449D01*
G01X29552Y20429D01*
G01X29568Y20410D01*
G01X29560Y20392D01*
G01X29548Y20374D01*
G01X29550Y20360D01*
G01X29566Y20347D01*
G01X29599Y20334D01*
G01X29694Y20303D01*
G01X29758Y20294D01*
G01X29805Y20307D01*
G01X29852Y20343D01*
G01X29882Y20368D01*
G01X29912Y20388D01*
G01X29941Y20402D01*
G01X29964Y20407D01*
G01X29968Y20411D01*
G01X29946Y20421D01*
G01X29901Y20435D01*
G01X29837Y20452D01*
G01X29766Y20472D01*
G01X29698Y20497D01*
G01X29642Y20523D01*
G01X29605Y20547D01*
G01X29568Y20575D01*
G01X29522Y20600D01*
G01X29472Y20623D01*
G01X29421Y20641D01*
G01X29372Y20654D01*
G01X29330Y20660D01*
G01X29298Y20659D01*
G01X29280Y20648D01*
G01X29270Y20638D01*
G01X29258Y20631D01*
G01X29245Y20630D01*
G01X29233Y20633D01*
G01X29211Y20642D01*
G01X29170Y20652D01*
G01X29117Y20664D01*
G01X29057Y20675D01*
G01X28952Y20698D01*
G01X28886Y20722D01*
G01X28858Y20749D01*
G01X28867Y20779D01*
G01X28877Y20796D01*
G01X28888Y20824D01*
G01X28899Y20858D01*
G01X28908Y20894D01*
G01X28915Y20939D01*
G01X28913Y20970D01*
G01X28901Y20992D01*
G01X28878Y21008D01*
G37*
G36*
G01X29767Y20837D02*
G01X29720Y20849D01*
G01X29694Y20830D01*
G01X29691Y20815D01*
G01X29685Y20804D01*
G01X29681Y20797D01*
G01X29677Y20793D01*
G01X29668Y20795D01*
G01X29651Y20801D01*
G01X29629Y20808D01*
G01X29603Y20817D01*
G01X29575Y20825D01*
G01X29551Y20828D01*
G01X29534Y20825D01*
G01X29523Y20818D01*
G01X29515Y20811D01*
G01X29502Y20806D01*
G01X29487Y20806D01*
G01X29471Y20809D01*
G01X29456Y20814D01*
G01X29445Y20815D01*
G01X29437Y20813D01*
G01X29434Y20809D01*
G01X29446Y20797D01*
G01X29480Y20776D01*
G01X29531Y20749D01*
G01X29593Y20719D01*
G01X29661Y20687D01*
G01X29729Y20657D01*
G01X29793Y20630D01*
G01X29847Y20611D01*
G01X29899Y20595D01*
G01X29926Y20590D01*
G01X29934Y20598D01*
G01X29928Y20620D01*
G01X29920Y20638D01*
G01X29909Y20656D01*
G01X29895Y20673D01*
G01X29882Y20685D01*
G01X29868Y20698D01*
G01X29856Y20717D01*
G01X29846Y20737D01*
G01X29840Y20757D01*
G01X29814Y20803D01*
G01X29767Y20837D01*
G37*
G36*
G01X29825Y21072D02*
G01X29789Y21085D01*
G01X29782Y21082D01*
G01X29773Y21074D01*
G01X29765Y21062D01*
G01X29758Y21048D01*
G01X29747Y21031D01*
G01X29733Y21024D01*
G01X29709Y21028D01*
G01X29673Y21042D01*
G01X29639Y21055D01*
G01X29616Y21060D01*
G01X29602Y21055D01*
G01X29594Y21041D01*
G01X29587Y21031D01*
G01X29578Y21025D01*
G01X29567Y21024D01*
G01X29555Y21028D01*
G01X29546Y21032D01*
G01X29540Y21032D01*
G01X29539Y21029D01*
G01X29542Y21022D01*
G01X29562Y21005D01*
G01X29603Y20981D01*
G01X29659Y20952D01*
G01X29723Y20921D01*
G01X29791Y20890D01*
G01X29855Y20863D01*
G01X29911Y20841D01*
G01X29953Y20829D01*
G01X30001Y20824D01*
G01X30022Y20839D01*
G01X30012Y20868D01*
G01X29972Y20908D01*
G01X29952Y20927D01*
G01X29935Y20946D01*
G01X29925Y20965D01*
G01X29921Y20979D01*
G01X29905Y21008D01*
G01X29868Y21042D01*
G01X29825Y21072D01*
G37*
G36*
G01X28888Y21275D02*
G01X28865Y21281D01*
G01X28850Y21273D01*
G01X28839Y21251D01*
G01X28829Y21233D01*
G01X28814Y21215D01*
G01X28796Y21199D01*
G01X28778Y21187D01*
G01X28753Y21171D01*
G01X28759Y21153D01*
G01X28812Y21121D01*
G01X28926Y21063D01*
G01X28986Y21032D01*
G01X29050Y20999D01*
G01X29110Y20967D01*
G01X29158Y20940D01*
G01X29195Y20920D01*
G01X29226Y20906D01*
G01X29247Y20898D01*
G01X29254Y20899D01*
G01X29245Y20909D01*
G01X29221Y20928D01*
G01X29184Y20950D01*
G01X29140Y20976D01*
G01X29094Y21004D01*
G01X29061Y21031D01*
G01X29042Y21054D01*
G01X29039Y21071D01*
G01X29042Y21085D01*
G01X29040Y21099D01*
G01X29035Y21111D01*
G01X29025Y21120D01*
G01X29014Y21129D01*
G01X29006Y21143D01*
G01X29000Y21160D01*
G01X28998Y21176D01*
G01X28992Y21196D01*
G01X28977Y21217D01*
G01X28954Y21237D01*
G01X28927Y21255D01*
G01X28888Y21275D01*
G37*
G36*
G01X30272Y21034D02*
G01X30268Y21036D01*
G01X30263Y21034D01*
G01X30255Y21029D01*
G01X30248Y21021D01*
G01X30241Y21012D01*
G01X30237Y21002D01*
G01X30238Y20995D01*
G01X30243Y20990D01*
G01X30252Y20988D01*
G01X30263Y20990D01*
G01X30271Y20995D01*
G01X30277Y21002D01*
G01X30279Y21012D01*
G01X30278Y21021D01*
G01X30276Y21029D01*
G01X30272Y21034D01*
G37*
G36*
G01X29162Y21978D02*
G01X29150Y21997D01*
G01X29126Y21993D01*
G01X29116Y21982D01*
G01X29105Y21963D01*
G01X29096Y21937D01*
G01X29087Y21908D01*
G01X29077Y21878D01*
G01X29064Y21855D01*
G01X29047Y21840D01*
G01X29030Y21835D01*
G01X29029Y21832D01*
G01X29043Y21821D01*
G01X29070Y21805D01*
G01X29110Y21783D01*
G01X29160Y21757D01*
G01X29219Y21726D01*
G01X29286Y21693D01*
G01X29360Y21657D01*
G01X29437Y21620D01*
G01X29513Y21582D01*
G01X29586Y21545D01*
G01X29656Y21511D01*
G01X29718Y21478D01*
G01X29771Y21450D01*
G01X29815Y21427D01*
G01X29845Y21409D01*
G01X29903Y21372D01*
G01X29930Y21350D01*
G01X29928Y21338D01*
G01X29879Y21326D01*
G01X29861Y21316D01*
G01X29848Y21303D01*
G01X29843Y21289D01*
G01X29835Y21265D01*
G01X29814Y21256D01*
G01X29781Y21259D01*
G01X29742Y21278D01*
G01X29724Y21285D01*
G01X29709Y21287D01*
G01X29696Y21283D01*
G01X29686Y21272D01*
G01X29674Y21261D01*
G01X29657Y21257D01*
G01X29634Y21261D01*
G01X29602Y21273D01*
G01X29565Y21288D01*
G01X29543Y21295D01*
G01X29536Y21294D01*
G01X29543Y21286D01*
G01X29563Y21272D01*
G01X29596Y21252D01*
G01X29641Y21226D01*
G01X29696Y21196D01*
G01X29769Y21160D01*
G01X29846Y21125D01*
G01X29922Y21093D01*
G01X29994Y21064D01*
G01X30059Y21042D01*
G01X30113Y21026D01*
G01X30151Y21019D01*
G01X30170Y21022D01*
G01X30174Y21027D01*
G01X30172Y21032D01*
G01X30166Y21035D01*
G01X30155Y21036D01*
G01X30126Y21054D01*
G01X30098Y21101D01*
G01X30075Y21169D01*
G01X30060Y21247D01*
G01X30051Y21325D01*
G01X30220Y21265D01*
G01X30287Y21242D01*
G01X30347Y21223D01*
G01X30394Y21211D01*
G01X30419Y21205D01*
G01X30435Y21219D01*
G01X30458Y21255D01*
G01X30483Y21309D01*
G01X30508Y21374D01*
G01X30533Y21440D01*
G01X30558Y21496D01*
G01X30580Y21536D01*
G01X30596Y21554D01*
G01X30604Y21559D01*
G01X30604Y21563D01*
G01X30598Y21566D01*
G01X30584Y21567D01*
G01X30544Y21560D01*
G01X30511Y21529D01*
G01X30480Y21467D01*
G01X30446Y21369D01*
G01X30418Y21283D01*
G01X30393Y21241D01*
G01X30365Y21236D01*
G01X30324Y21260D01*
G01X30302Y21281D01*
G01X30297Y21309D01*
G01X30308Y21358D01*
G01X30337Y21440D01*
G01X30358Y21500D01*
G01X30373Y21550D01*
G01X30381Y21586D01*
G01X30380Y21603D01*
G01X30357Y21613D01*
G01X30302Y21630D01*
G01X30224Y21651D01*
G01X30132Y21675D01*
G01X29897Y21734D01*
G01X29857Y21603D01*
G01X29840Y21552D01*
G01X29823Y21511D01*
G01X29808Y21482D01*
G01X29798Y21472D01*
G01X29753Y21488D01*
G01X29691Y21524D01*
G01X29637Y21564D01*
G01X29613Y21594D01*
G01X29616Y21610D01*
G01X29624Y21637D01*
G01X29636Y21670D01*
G01X29651Y21706D01*
G01X29666Y21740D01*
G01X29678Y21770D01*
G01X29687Y21791D01*
G01X29690Y21801D01*
G01X29662Y21814D01*
G01X29597Y21833D01*
G01X29526Y21852D01*
G01X29481Y21860D01*
G01X29474Y21853D01*
G01X29465Y21835D01*
G01X29456Y21808D01*
G01X29448Y21775D01*
G01X29430Y21719D01*
G01X29399Y21694D01*
G01X29349Y21698D01*
G01X29272Y21729D01*
G01X29193Y21770D01*
G01X29153Y21802D01*
G01X29142Y21838D01*
G01X29153Y21889D01*
G01X29164Y21941D01*
G01X29162Y21978D01*
G37*
G36*
G01X29045Y21758D02*
G01X29021Y21766D01*
G01X29009Y21760D01*
G01X29003Y21738D01*
G01X28995Y21720D01*
G01X28978Y21701D01*
G01X28955Y21682D01*
G01X28929Y21668D01*
G01X28894Y21650D01*
G01X28876Y21628D01*
G01X28872Y21593D01*
G01X28878Y21535D01*
G01X28884Y21480D01*
G01X28881Y21445D01*
G01X28868Y21423D01*
G01X28841Y21408D01*
G01X28821Y21393D01*
G01X28836Y21372D01*
G01X28891Y21338D01*
G01X28998Y21284D01*
G01X29073Y21248D01*
G01X29134Y21219D01*
G01X29180Y21199D01*
G01X29211Y21187D01*
G01X29226Y21183D01*
G01X29225Y21188D01*
G01X29208Y21201D01*
G01X29174Y21224D01*
G01X29150Y21243D01*
G01X29131Y21262D01*
G01X29120Y21280D01*
G01X29118Y21294D01*
G01X29120Y21307D01*
G01X29118Y21319D01*
G01X29111Y21330D01*
G01X29101Y21338D01*
G01X29091Y21347D01*
G01X29083Y21360D01*
G01X29076Y21376D01*
G01X29074Y21392D01*
G01X29067Y21414D01*
G01X29046Y21443D01*
G01X29016Y21477D01*
G01X28978Y21512D01*
G01X28926Y21557D01*
G01X28906Y21578D01*
G01X28916Y21581D01*
G01X28956Y21568D01*
G01X28998Y21552D01*
G01X29057Y21525D01*
G01X29124Y21492D01*
G01X29193Y21457D01*
G01X29252Y21427D01*
G01X29299Y21405D01*
G01X29333Y21390D01*
G01X29353Y21384D01*
G01X29357Y21387D01*
G01X29345Y21397D01*
G01X29315Y21417D01*
G01X29265Y21445D01*
G01X29231Y21467D01*
G01X29206Y21489D01*
G01X29191Y21508D01*
G01X29191Y21521D01*
G01X29195Y21534D01*
G01X29194Y21549D01*
G01X29188Y21565D01*
G01X29177Y21580D01*
G01X29167Y21597D01*
G01X29159Y21615D01*
G01X29156Y21635D01*
G01X29156Y21652D01*
G01X29154Y21670D01*
G01X29140Y21692D01*
G01X29117Y21714D01*
G01X29088Y21735D01*
G01X29045Y21758D01*
G37*
G36*
G01X29275Y27018D02*
G01X29052Y27021D01*
G01X29028Y26941D01*
G01X29022Y26918D01*
G01X29013Y26885D01*
G01X29002Y26845D01*
G01X28990Y26798D01*
G01X28976Y26744D01*
G01X28961Y26685D01*
G01X28945Y26621D01*
G01X28928Y26554D01*
G01X28910Y26484D01*
G01X28893Y26411D01*
G01X28874Y26338D01*
G01X28856Y26265D01*
G01X28839Y26192D01*
G01X28821Y26122D01*
G01X28805Y26053D01*
G01X28789Y25988D01*
G01X28775Y25928D01*
G01X28761Y25872D01*
G01X28750Y25823D01*
G01X28740Y25779D01*
G01X28711Y25661D01*
G01X28686Y25586D01*
G01X28661Y25546D01*
G01X28632Y25529D01*
G01X28604Y25524D01*
G01X28580Y25528D01*
G01X28556Y25542D01*
G01X28532Y25566D01*
G01X28509Y25588D01*
G01X28485Y25602D01*
G01X28461Y25607D01*
G01X28436Y25604D01*
G01X28409Y25586D01*
G01X28392Y25541D01*
G01X28381Y25446D01*
G01X28371Y25281D01*
G01X28365Y25159D01*
G01X28360Y25056D01*
G01X28358Y24968D01*
G01X28357Y24894D01*
G01X28358Y24831D01*
G01X28362Y24776D01*
G01X28368Y24726D01*
G01X28377Y24681D01*
G01X28390Y24636D01*
G01X28406Y24590D01*
G01X28426Y24539D01*
G01X28449Y24482D01*
G01X28498Y24369D01*
G01X28531Y24306D01*
G01X28554Y24285D01*
G01X28572Y24296D01*
G01X28619Y24325D01*
G01X28680Y24327D01*
G01X28740Y24307D01*
G01X28779Y24266D01*
G01X28792Y24244D01*
G01X28810Y24225D01*
G01X28830Y24210D01*
G01X28849Y24202D01*
G01X28871Y24191D01*
G01X28885Y24170D01*
G01X28893Y24136D01*
G01X28895Y24084D01*
G01X28896Y24057D01*
G01X28898Y24019D01*
G01X28902Y23973D01*
G01X28907Y23921D01*
G01X28912Y23863D01*
G01X28919Y23802D01*
G01X28926Y23739D01*
G01X28934Y23676D01*
G01X28945Y23594D01*
G01X28957Y23522D01*
G01X28968Y23461D01*
G01X28980Y23407D01*
G01X28994Y23358D01*
G01X29010Y23313D01*
G01X29028Y23271D01*
G01X29048Y23229D01*
G01X29065Y23199D01*
G01X29084Y23168D01*
G01X29105Y23134D01*
G01X29129Y23099D01*
G01X29156Y23061D01*
G01X29186Y23021D01*
G01X29218Y22979D01*
G01X29253Y22935D01*
G01X29290Y22889D01*
G01X29329Y22841D01*
G01X29371Y22792D01*
G01X29415Y22741D01*
G01X29462Y22688D01*
G01X29510Y22634D01*
G01X29562Y22578D01*
G01X29614Y22521D01*
G01X29669Y22462D01*
G01X29726Y22402D01*
G01X29785Y22341D01*
G01X29846Y22279D01*
G01X29993Y22128D01*
G01X29983Y22267D01*
G01X29973Y22405D01*
G01X30007Y22248D01*
G01X30029Y22163D01*
G01X30055Y22103D01*
G01X30094Y22053D01*
G01X30154Y21999D01*
G01X30196Y21967D01*
G01X30238Y21937D01*
G01X30282Y21910D01*
G01X30328Y21884D01*
G01X30375Y21861D01*
G01X30425Y21840D01*
G01X30477Y21821D01*
G01X30532Y21803D01*
G01X30591Y21788D01*
G01X30653Y21774D01*
G01X30718Y21762D01*
G01X30788Y21751D01*
G01X30863Y21742D01*
G01X30941Y21734D01*
G01X31025Y21728D01*
G01X31114Y21722D01*
G01X31205Y21718D01*
G01X31276Y21715D01*
G01X31333Y21715D01*
G01X31380Y21719D01*
G01X31421Y21726D01*
G01X31460Y21737D01*
G01X31503Y21753D01*
G01X31554Y21774D01*
G01X31630Y21808D01*
G01X31694Y21845D01*
G01X31747Y21883D01*
G01X31793Y21928D01*
G01X31832Y21981D01*
G01X31868Y22046D01*
G01X31902Y22124D01*
G01X31937Y22218D01*
G01X31974Y22315D01*
G01X31999Y22375D01*
G01X32015Y22397D01*
G01X32020Y22380D01*
G01X32017Y22342D01*
G01X32007Y22290D01*
G01X31991Y22232D01*
G01X31973Y22175D01*
G01X31924Y22042D01*
G01X31986Y22114D01*
G01X31999Y22131D01*
G01X32016Y22158D01*
G01X32039Y22194D01*
G01X32064Y22239D01*
G01X32094Y22291D01*
G01X32127Y22348D01*
G01X32162Y22412D01*
G01X32199Y22481D01*
G01X32238Y22552D01*
G01X32278Y22627D01*
G01X32318Y22704D01*
G01X32359Y22781D01*
G01X32399Y22858D01*
G01X32438Y22934D01*
G01X32476Y23008D01*
G01X32546Y23148D01*
G01X32577Y23211D01*
G01X32604Y23268D01*
G01X32628Y23319D01*
G01X32652Y23375D01*
G01X32674Y23424D01*
G01X32693Y23471D01*
G01X32709Y23514D01*
G01X32724Y23557D01*
G01X32737Y23600D01*
G01X32748Y23646D01*
G01X32759Y23695D01*
G01X32770Y23749D01*
G01X32781Y23809D01*
G01X32792Y23877D01*
G01X32805Y23955D01*
G01X32817Y24033D01*
G01X32829Y24098D01*
G01X32841Y24151D01*
G01X32854Y24197D01*
G01X32870Y24237D01*
G01X32888Y24274D01*
G01X32910Y24311D01*
G01X32937Y24351D01*
G01X32983Y24421D01*
G01X33021Y24485D01*
G01X33048Y24547D01*
G01X33068Y24606D01*
G01X33079Y24667D01*
G01X33084Y24730D01*
G01X33081Y24798D01*
G01X33072Y24873D01*
G01X33066Y24913D01*
G01X33062Y24964D01*
G01X33058Y25021D01*
G01X33054Y25084D01*
G01X33052Y25150D01*
G01X33049Y25217D01*
G01X33049Y25349D01*
G01X33051Y25484D01*
G01X33052Y25584D01*
G01X33051Y25655D01*
G01X33047Y25699D01*
G01X33041Y25724D01*
G01X33031Y25734D01*
G01X33016Y25734D01*
G01X32996Y25729D01*
G01X32943Y25730D01*
G01X32904Y25763D01*
G01X32877Y25834D01*
G01X32860Y25946D01*
G01X32844Y26101D01*
G01X32831Y26238D01*
G01X32818Y26361D01*
G01X32807Y26469D01*
G01X32797Y26563D01*
G01X32787Y26646D01*
G01X32778Y26716D01*
G01X32769Y26775D01*
G01X32760Y26824D01*
G01X32751Y26865D01*
G01X32741Y26898D01*
G01X32731Y26923D01*
G01X32719Y26942D01*
G01X32707Y26955D01*
G01X32693Y26964D01*
G01X32677Y26969D01*
G01X32660Y26972D01*
G01X32640Y26973D01*
G01X32618Y26972D01*
G01X32594Y26972D01*
G01X32562Y26971D01*
G01X32520Y26967D01*
G01X32468Y26960D01*
G01X32409Y26951D01*
G01X32345Y26941D01*
G01X32277Y26929D01*
G01X32207Y26915D01*
G01X32138Y26901D01*
G01X32085Y26890D01*
G01X32028Y26878D01*
G01X31968Y26866D01*
G01X31905Y26853D01*
G01X31840Y26841D01*
G01X31774Y26829D01*
G01X31707Y26815D01*
G01X31639Y26803D01*
G01X31571Y26790D01*
G01X31437Y26766D01*
G01X31373Y26755D01*
G01X31310Y26744D01*
G01X31249Y26734D01*
G01X31192Y26724D01*
G01X31138Y26715D01*
G01X31089Y26708D01*
G01X31044Y26700D01*
G01X31004Y26695D01*
G01X30970Y26690D01*
G01X30922Y26686D01*
G01X30871Y26685D01*
G01X30816Y26687D01*
G01X30757Y26693D01*
G01X30695Y26701D01*
G01X30629Y26712D01*
G01X30560Y26726D01*
G01X30489Y26744D01*
G01X30414Y26763D01*
G01X30337Y26787D01*
G01X30256Y26813D01*
G01X30174Y26842D01*
G01X30109Y26865D01*
G01X30047Y26886D01*
G01X29986Y26905D01*
G01X29928Y26923D01*
G01X29872Y26939D01*
G01X29817Y26953D01*
G01X29763Y26966D01*
G01X29709Y26977D01*
G01X29657Y26986D01*
G01X29604Y26995D01*
G01X29551Y27002D01*
G01X29498Y27007D01*
G01X29444Y27012D01*
G01X29389Y27015D01*
G01X29332Y27017D01*
G01X29275Y27018D01*
G37*
G36*
G01X29124Y22901D02*
G01X29108Y22916D01*
G01X29101Y22894D01*
G01X29085Y22836D01*
G01X29063Y22752D01*
G01X29037Y22650D01*
G01X29012Y22542D01*
G01X28991Y22441D01*
G01X28977Y22358D01*
G01X28972Y22305D01*
G01X28976Y22255D01*
G01X29001Y22219D01*
G01X29064Y22181D01*
G01X29184Y22126D01*
G01X29224Y22108D01*
G01X29272Y22089D01*
G01X29326Y22069D01*
G01X29385Y22047D01*
G01X29448Y22024D01*
G01X29515Y22002D01*
G01X29583Y21979D01*
G01X29652Y21956D01*
G01X29722Y21934D01*
G01X29790Y21913D01*
G01X29857Y21893D01*
G01X29920Y21875D01*
G01X29980Y21859D01*
G01X30035Y21844D01*
G01X30084Y21832D01*
G01X30125Y21823D01*
G01X30215Y21806D01*
G01X30100Y21890D01*
G01X30074Y21910D01*
G01X30044Y21934D01*
G01X30011Y21963D01*
G01X29974Y21995D01*
G01X29935Y22031D01*
G01X29893Y22070D01*
G01X29850Y22111D01*
G01X29804Y22155D01*
G01X29711Y22248D01*
G01X29664Y22296D01*
G01X29616Y22344D01*
G01X29569Y22394D01*
G01X29523Y22442D01*
G01X29478Y22491D01*
G01X29435Y22538D01*
G01X29393Y22584D01*
G01X29354Y22628D01*
G01X29318Y22670D01*
G01X29285Y22710D01*
G01X29218Y22791D01*
G01X29162Y22856D01*
G01X29124Y22901D01*
G37*

%LPD*%
G36*
G01X30325Y23134D02*
G01X30301Y23139D01*
G01X30288Y23138D01*
G01X30286Y23132D01*
G01X30295Y23122D01*
G01X30314Y23107D01*
G01X30342Y23089D01*
G01X30380Y23067D01*
G01X30427Y23042D01*
G01X30483Y23014D01*
G01X30546Y22984D01*
G01X30722Y22903D01*
G01X30469Y22896D01*
G01X30390Y22893D01*
G01X30334Y22891D01*
G01X30303Y22889D01*
G01X30298Y22888D01*
G01X30319Y22886D01*
G01X30367Y22885D01*
G01X30443Y22884D01*
G01X30549Y22882D01*
G01X30649Y22880D01*
G01X30745Y22877D01*
G01X30836Y22874D01*
G01X30922Y22871D01*
G01X31003Y22866D01*
G01X31079Y22861D01*
G01X31150Y22856D01*
G01X31216Y22850D01*
G01X31277Y22843D01*
G01X31333Y22836D01*
G01X31384Y22828D01*
G01X31429Y22819D01*
G01X31470Y22811D01*
G01X31506Y22801D01*
G01X31536Y22791D01*
G01X31562Y22780D01*
G01X31632Y22750D01*
G01X31673Y22740D01*
G01X31682Y22749D01*
G01X31653Y22778D01*
G01X31627Y22793D01*
G01X31580Y22812D01*
G01X31520Y22832D01*
G01X31454Y22851D01*
G01X31292Y22895D01*
G01X31608Y22930D01*
G01X31617Y23025D01*
G01X31618Y23087D01*
G01X31599Y23116D01*
G01X31549Y23117D01*
G01X31458Y23094D01*
G01X31406Y23080D01*
G01X31357Y23068D01*
G01X31311Y23059D01*
G01X31265Y23051D01*
G01X31220Y23044D01*
G01X31174Y23040D01*
G01X31126Y23038D01*
G01X31074Y23038D01*
G01X31019Y23039D01*
G01X30959Y23041D01*
G01X30892Y23046D01*
G01X30818Y23052D01*
G01X30686Y23064D01*
G01X30624Y23071D01*
G01X30565Y23079D01*
G01X30513Y23087D01*
G01X30468Y23095D01*
G01X30432Y23102D01*
G01X30408Y23109D01*
G01X30360Y23125D01*
G01X30325Y23134D01*
G37*

%LPD*%
G36*
G01X30918Y22822D02*
G01X30880Y22824D01*
G01X30855Y22823D01*
G01X30847Y22820D01*
G01X30856Y22813D01*
G01X30884Y22804D01*
G01X30933Y22792D01*
G01X30996Y22779D01*
G01X31053Y22769D01*
G01X31097Y22761D01*
G01X31123Y22758D01*
G01X31151Y22761D01*
G01X31138Y22774D01*
G01X31095Y22790D01*
G01X31030Y22806D01*
G01X30969Y22816D01*
G01X30918Y22822D01*
G37*

%LPD*%
G36*
G01X30205Y23150D02*
G01X30200Y23154D01*
G01X30181Y23132D01*
G01X30171Y23095D01*
G01X30169Y23052D01*
G01X30177Y23010D01*
G01X30186Y22993D01*
G01X30193Y22995D01*
G01X30200Y23018D01*
G01X30206Y23063D01*
G01X30209Y23101D01*
G01X30208Y23131D01*
G01X30205Y23150D01*
G37*

%LPD*%
G36*
G01X29042Y23557D02*
G01X29030Y23578D01*
G01X29025Y23548D01*
G01X29032Y23471D01*
G01X29055Y23382D01*
G01X29093Y23283D01*
G01X29133Y23201D01*
G01X29164Y23168D01*
G01X29164Y23177D01*
G01X29157Y23201D01*
G01X29143Y23236D01*
G01X29125Y23279D01*
G01X29104Y23330D01*
G01X29085Y23386D01*
G01X29069Y23440D01*
G01X29058Y23485D01*
G01X29042Y23557D01*
G37*

%LPD*%
G36*
G01X30825Y23528D02*
G01X30781Y23531D01*
G01X30722Y23530D01*
G01X30698Y23525D01*
G01X30706Y23515D01*
G01X30741Y23495D01*
G01X30773Y23482D01*
G01X30812Y23471D01*
G01X30855Y23463D01*
G01X30895Y23460D01*
G01X30943Y23461D01*
G01X30964Y23466D01*
G01X30960Y23476D01*
G01X30935Y23496D01*
G01X30907Y23510D01*
G01X30869Y23521D01*
G01X30825Y23528D01*
G37*

%LPD*%
G36*
G01X31575Y23625D02*
G01X31559Y23628D01*
G01X31539Y23624D01*
G01X31516Y23614D01*
G01X31492Y23599D01*
G01X31472Y23580D01*
G01X31446Y23545D01*
G01X31453Y23533D01*
G01X31487Y23544D01*
G01X31539Y23579D01*
G01X31566Y23602D01*
G01X31578Y23617D01*
G01X31575Y23625D01*
G37*

%LPD*%
G36*
G01X31216Y24276D02*
G01X31213Y24293D01*
G01X31209Y24265D01*
G01X31206Y24205D01*
G01X31205Y24135D01*
G01X31206Y24063D01*
G01X31209Y23999D01*
G01X31213Y23965D01*
G01X31216Y23978D01*
G01X31218Y24032D01*
G01X31218Y24218D01*
G01X31216Y24276D01*
G37*

%LPD*%
G36*
G01X31579Y24061D02*
G01X31572Y24064D01*
G01X31569Y24061D01*
G01X31571Y24050D01*
G01X31577Y24035D01*
G01X31587Y24016D01*
G01X31599Y23997D01*
G01X31610Y23982D01*
G01X31620Y23972D01*
G01X31627Y23967D01*
G01X31630Y23972D01*
G01X31628Y23982D01*
G01X31622Y23997D01*
G01X31612Y24016D01*
G01X31601Y24035D01*
G01X31589Y24050D01*
G01X31579Y24061D01*
G37*

%LPD*%
G36*
G01X28759Y24514D02*
G01X28751Y24516D01*
G01X28741Y24513D01*
G01X28731Y24504D01*
G01X28723Y24492D01*
G01X28718Y24476D01*
G01X28716Y24461D01*
G01X28713Y24448D01*
G01X28707Y24439D01*
G01X28697Y24438D01*
G01X28684Y24442D01*
G01X28670Y24449D01*
G01X28666Y24448D01*
G01X28671Y24440D01*
G01X28685Y24426D01*
G01X28703Y24409D01*
G01X28716Y24405D01*
G01X28728Y24411D01*
G01X28742Y24428D01*
G01X28751Y24444D01*
G01X28759Y24463D01*
G01X28764Y24481D01*
G01X28767Y24496D01*
G01X28764Y24507D01*
G01X28759Y24514D01*
G37*

%LPD*%
G36*
G01X28529Y25294D02*
G01X28504Y25321D01*
G01X28496Y25315D01*
G01X28507Y25277D01*
G01X28536Y25202D01*
G01X28573Y25103D01*
G01X28585Y25032D01*
G01X28571Y24980D01*
G01X28532Y24938D01*
G01X28507Y24916D01*
G01X28494Y24895D01*
G01X28491Y24873D01*
G01X28497Y24849D01*
G01X28505Y24829D01*
G01X28510Y24805D01*
G01X28514Y24782D01*
G01X28513Y24762D01*
G01X28518Y24700D01*
G01X28537Y24621D01*
G01X28564Y24550D01*
G01X28591Y24511D01*
G01X28600Y24507D01*
G01X28603Y24513D01*
G01X28599Y24527D01*
G01X28588Y24549D01*
G01X28577Y24579D01*
G01X28569Y24621D01*
G01X28565Y24671D01*
G01X28566Y24721D01*
G01X28568Y24775D01*
G01X28565Y24812D01*
G01X28557Y24833D01*
G01X28542Y24840D01*
G01X28517Y24847D01*
G01X28513Y24866D01*
G01X28528Y24892D01*
G01X28562Y24918D01*
G01X28586Y24943D01*
G01X28601Y24980D01*
G01X28609Y25028D01*
G01X28608Y25083D01*
G01X28599Y25139D01*
G01X28583Y25196D01*
G01X28560Y25249D01*
G01X28529Y25294D01*
G37*

%LPD*%
G36*
G01X28659Y24660D02*
G01X28655Y24665D01*
G01X28649Y24663D01*
G01X28644Y24655D01*
G01X28642Y24644D01*
G01X28643Y24631D01*
G01X28647Y24617D01*
G01X28653Y24608D01*
G01X28657Y24607D01*
G01X28660Y24615D01*
G01X28662Y24632D01*
G01X28662Y24649D01*
G01X28659Y24660D01*
G37*

%LPD*%
G36*
G01X30175Y25221D02*
G01X30134Y25224D01*
G01X30092Y25223D01*
G01X30049Y25219D01*
G01X29999Y25212D01*
G01X29941Y25200D01*
G01X29883Y25186D01*
G01X29821Y25167D01*
G01X29758Y25144D01*
G01X29697Y25120D01*
G01X29644Y25096D01*
G01X29601Y25073D01*
G01X29572Y25053D01*
G01X29562Y25037D01*
G01X29571Y25021D01*
G01X29597Y24997D01*
G01X29634Y24969D01*
G01X29681Y24938D01*
G01X29733Y24908D01*
G01X29786Y24879D01*
G01X29837Y24856D01*
G01X29882Y24839D01*
G01X29924Y24827D01*
G01X29969Y24819D01*
G01X30018Y24813D01*
G01X30069Y24810D01*
G01X30121Y24809D01*
G01X30176Y24811D01*
G01X30231Y24815D01*
G01X30287Y24821D01*
G01X30344Y24831D01*
G01X30400Y24842D01*
G01X30455Y24856D01*
G01X30509Y24873D01*
G01X30584Y24899D01*
G01X30649Y24922D01*
G01X30696Y24943D01*
G01X30720Y24956D01*
G01X30720Y24974D01*
G01X30697Y25001D01*
G01X30655Y25034D01*
G01X30598Y25070D01*
G01X30533Y25106D01*
G01X30464Y25140D01*
G01X30395Y25169D01*
G01X30331Y25189D01*
G01X30271Y25203D01*
G01X30219Y25214D01*
G01X30175Y25221D01*
G37*

%LPC*%
G36*
G01X30333Y25149D02*
G01X30300Y25155D01*
G01X30261Y25153D01*
G01X30244Y25144D01*
G01X30247Y25121D01*
G01X30265Y25076D01*
G01X30277Y25040D01*
G01X30284Y25005D01*
G01X30284Y24974D01*
G01X30278Y24949D01*
G01X30259Y24894D01*
G01X30260Y24865D01*
G01X30286Y24855D01*
G01X30340Y24863D01*
G01X30453Y24893D01*
G01X30555Y24929D01*
G01X30627Y24964D01*
G01X30649Y24989D01*
G01X30628Y25009D01*
G01X30591Y25034D01*
G01X30543Y25061D01*
G01X30488Y25089D01*
G01X30432Y25114D01*
G01X30378Y25135D01*
G01X30333Y25149D01*
G37*
G36*
G01X29928Y25120D02*
G01X29925Y25131D01*
G01X29912Y25127D01*
G01X29883Y25116D01*
G01X29840Y25099D01*
G01X29791Y25079D01*
G01X29741Y25058D01*
G01X29701Y25037D01*
G01X29674Y25020D01*
G01X29664Y25008D01*
G01X29688Y24981D01*
G01X29745Y24943D01*
G01X29817Y24905D01*
G01X29882Y24879D01*
G01X29910Y24875D01*
G01X29925Y24888D01*
G01X29932Y24926D01*
G01X29933Y24998D01*
G01X29933Y25049D01*
G01X29931Y25092D01*
G01X29928Y25120D01*
G37*

%LPD*%
G36*
G01X32170Y25198D02*
G01X32112Y25199D01*
G01X32054Y25197D01*
G01X31995Y25191D01*
G01X31937Y25182D01*
G01X31882Y25170D01*
G01X31809Y25149D01*
G01X31736Y25123D01*
G01X31665Y25095D01*
G01X31600Y25064D01*
G01X31543Y25033D01*
G01X31497Y25004D01*
G01X31465Y24977D01*
G01X31449Y24954D01*
G01X31445Y24937D01*
G01X31444Y24925D01*
G01X31446Y24919D01*
G01X31450Y24920D01*
G01X31464Y24921D01*
G01X31491Y24914D01*
G01X31528Y24900D01*
G01X31570Y24881D01*
G01X31626Y24859D01*
G01X31692Y24841D01*
G01X31766Y24829D01*
G01X31846Y24820D01*
G01X31928Y24817D01*
G01X32012Y24819D01*
G01X32093Y24826D01*
G01X32170Y24839D01*
G01X32232Y24854D01*
G01X32299Y24874D01*
G01X32367Y24897D01*
G01X32433Y24921D01*
G01X32493Y24946D01*
G01X32542Y24970D01*
G01X32579Y24991D01*
G01X32598Y25007D01*
G01X32581Y25041D01*
G01X32515Y25090D01*
G01X32423Y25139D01*
G01X32327Y25175D01*
G01X32278Y25187D01*
G01X32225Y25194D01*
G01X32170Y25198D01*
G37*

%LPC*%
G36*
G01X31828Y25089D02*
G01X31812Y25103D01*
G01X31757Y25087D01*
G01X31652Y25041D01*
G01X31585Y25008D01*
G01X31547Y24983D01*
G01X31533Y24963D01*
G01X31540Y24944D01*
G01X31595Y24914D01*
G01X31691Y24878D01*
G01X31786Y24852D01*
G01X31836Y24849D01*
G01X31837Y24857D01*
G01X31833Y24874D01*
G01X31826Y24896D01*
G01X31815Y24921D01*
G01X31801Y24955D01*
G01X31797Y24984D01*
G01X31800Y25014D01*
G01X31813Y25046D01*
G01X31828Y25089D01*
G37*
G36*
G01X32250Y25120D02*
G01X32182Y25129D01*
G01X32152Y25128D01*
G01X32138Y25122D01*
G01X32139Y25106D01*
G01X32153Y25079D01*
G01X32163Y25053D01*
G01X32170Y25019D01*
G01X32171Y24982D01*
G01X32169Y24948D01*
G01X32162Y24903D01*
G01X32167Y24882D01*
G01X32186Y24878D01*
G01X32226Y24888D01*
G01X32264Y24900D01*
G01X32313Y24917D01*
G01X32368Y24938D01*
G01X32423Y24960D01*
G01X32489Y24989D01*
G01X32520Y25008D01*
G01X32521Y25023D01*
G01X32498Y25039D01*
G01X32428Y25069D01*
G01X32339Y25098D01*
G01X32250Y25120D01*
G37*

%LPD*%
G36*
G01X29966Y25438D02*
G01X29906Y25441D01*
G01X29861Y25438D01*
G01X29828Y25430D01*
G01X29807Y25418D01*
G01X29796Y25399D01*
G01X29792Y25375D01*
G01X29802Y25353D01*
G01X29840Y25336D01*
G01X29916Y25321D01*
G01X30043Y25306D01*
G01X30097Y25298D01*
G01X30156Y25289D01*
G01X30217Y25279D01*
G01X30278Y25266D01*
G01X30338Y25253D01*
G01X30395Y25239D01*
G01X30447Y25225D01*
G01X30492Y25212D01*
G01X30586Y25182D01*
G01X30652Y25166D01*
G01X30695Y25164D01*
G01X30719Y25173D01*
G01X30729Y25186D01*
G01X30735Y25202D01*
G01X30737Y25219D01*
G01X30734Y25234D01*
G01X30722Y25247D01*
G01X30698Y25261D01*
G01X30663Y25277D01*
G01X30618Y25295D01*
G01X30566Y25314D01*
G01X30508Y25332D01*
G01X30446Y25351D01*
G01X30381Y25369D01*
G01X30317Y25385D01*
G01X30254Y25399D01*
G01X30193Y25411D01*
G01X30139Y25419D01*
G01X30043Y25431D01*
G01X29966Y25438D01*
G37*

%LPD*%
G36*
G01X32609Y25437D02*
G01X32542Y25438D01*
G01X32471Y25437D01*
G01X32396Y25434D01*
G01X32320Y25428D01*
G01X32242Y25421D01*
G01X32165Y25411D01*
G01X32087Y25400D01*
G01X32012Y25388D01*
G01X31939Y25374D01*
G01X31870Y25359D01*
G01X31805Y25343D01*
G01X31746Y25326D01*
G01X31694Y25309D01*
G01X31648Y25291D01*
G01X31612Y25273D01*
G01X31584Y25254D01*
G01X31567Y25236D01*
G01X31561Y25218D01*
G01X31572Y25181D01*
G01X31609Y25168D01*
G01X31682Y25178D01*
G01X31798Y25213D01*
G01X31862Y25232D01*
G01X31926Y25250D01*
G01X31989Y25266D01*
G01X32053Y25280D01*
G01X32117Y25291D01*
G01X32181Y25301D01*
G01X32246Y25309D01*
G01X32312Y25315D01*
G01X32378Y25319D01*
G01X32446Y25321D01*
G01X32516Y25322D01*
G01X32587Y25320D01*
G01X32721Y25317D01*
G01X32794Y25321D01*
G01X32824Y25334D01*
G01X32830Y25361D01*
G01X32825Y25385D01*
G01X32809Y25403D01*
G01X32777Y25415D01*
G01X32727Y25425D01*
G01X32672Y25433D01*
G01X32609Y25437D01*
G37*

%LPD*%
G36*
G01X29724Y25418D02*
G01X29677Y25420D01*
G01X29584Y25411D01*
G01X29474Y25395D01*
G01X29394Y25375D01*
G01X29347Y25351D01*
G01X29331Y25323D01*
G01X29345Y25297D01*
G01X29387Y25284D01*
G01X29460Y25282D01*
G01X29567Y25292D01*
G01X29653Y25305D01*
G01X29703Y25319D01*
G01X29727Y25339D01*
G01X29737Y25370D01*
G01X29739Y25403D01*
G01X29724Y25418D01*
G37*

%LPD*%
G36*
G01X31012Y25729D02*
G01X30972Y25730D01*
G01X30931Y25729D01*
G01X30907Y25727D01*
G01X30901Y25723D01*
G01X30914Y25719D01*
G01X30941Y25716D01*
G01X30972Y25715D01*
G01X31002Y25716D01*
G01X31029Y25719D01*
G01X31042Y25723D01*
G01X31036Y25727D01*
G01X31012Y25729D01*
G37*

%LPD*%
G36*
G01X30549Y25879D02*
G01X30514Y25879D01*
G01X30496Y25875D01*
G01X30496Y25868D01*
G01X30510Y25857D01*
G01X30534Y25849D01*
G01X30571Y25841D01*
G01X30616Y25837D01*
G01X30664Y25836D01*
G01X30724Y25838D01*
G01X30749Y25841D01*
G01X30741Y25847D01*
G01X30703Y25857D01*
G01X30666Y25865D01*
G01X30625Y25871D01*
G01X30585Y25876D01*
G01X30549Y25879D01*
G37*

%LPD*%
G54D12*
G01X5346Y2776D02*
G01X5346Y454D01*
G01X14437Y454D01*
G01X14417Y2776D01*
G01X5346Y2776D01*
G01X6626Y6505D02*
G01X9346Y6505D01*
G01X9346Y11865D01*
G01X6596Y11865D01*
G01X6596Y6505D01*
G01X6576Y8285D02*
G01X9346Y8285D01*
G01X9346Y10205D01*
G01X6586Y10205D01*
G54D10*
G01X59309Y-241D02*
G01X59461Y-241D01*
G01X59461Y-241D02*
G01X59766Y-241D01*
G01X59766Y-241D02*
G01X59766Y1028D01*
G01X59766Y2806D02*
G01X59766Y3416D01*
G01X58166Y4762D02*
G01X57759Y4762D01*
G01X54254Y4762D02*
G01X53848Y4762D01*
G01X52247Y3416D02*
G01X52247Y2806D01*
G01X52247Y1028D02*
G01X52247Y-241D01*
G01X52247Y-241D02*
G01X52552Y-241D01*
G01X52552Y-241D02*
G01X52705Y-241D01*
G01X58953Y-622D02*
G01X53060Y-622D01*
G01X58953Y-825D02*
G01X53060Y-825D01*
G01X59105Y-444D02*
G01X59105Y-469D01*
G01X59105Y-469D02*
G01X59105Y-673D01*
G01X52908Y-444D02*
G01X52908Y-469D01*
G01X52908Y-469D02*
G01X52908Y-673D01*
G01X59766Y-241D02*
G01X60020Y-673D01*
G01X60020Y-673D02*
G01X59766Y-825D01*
G01X59766Y-825D02*
G01X59486Y-368D01*
G01X52247Y-241D02*
G01X51993Y-673D01*
G01X51993Y-673D02*
G01X52247Y-825D01*
G01X52247Y-825D02*
G01X52527Y-393D01*
G54D12*
G01X59763Y13141D02*
G01X59763Y13665D01*
G01X49964Y13665D01*
G01X49964Y10642D01*
G01X59763Y10642D01*
G01X59763Y13141D01*
G54D10*
G01X15418Y28636D02*
G01X18617Y28636D01*
G01X18617Y29936D02*
G01X18617Y28636D01*
G01X18617Y29936D02*
G01X15418Y29936D01*
G01X15418Y28636D02*
G01X15418Y29936D01*
G01X9750Y16430D02*
G01X9750Y22330D01*
G01X15649Y22330D01*
G01X15649Y16430D01*
G01X9750Y16430D01*
G54D12*
G01X45028Y2781D02*
G01X43928Y2781D01*
G01X43928Y1181D01*
G01X45028Y1181D01*
G01X45827Y2781D02*
G01X46928Y2781D01*
G01X46928Y1781D01*
G01X46928Y1181D01*
G01X45827Y1181D01*
G01X45028Y4559D02*
G01X43928Y4559D01*
G01X43928Y2959D01*
G01X45028Y2959D01*
G01X45827Y4559D02*
G01X46928Y4559D01*
G01X46928Y3559D01*
G01X46928Y2959D01*
G01X45827Y2959D01*
G01X45836Y4725D02*
G01X46936Y4725D01*
G01X46936Y6325D01*
G01X45836Y6325D01*
G01X45036Y4725D02*
G01X43936Y4725D01*
G01X43936Y5725D01*
G01X43936Y6325D01*
G01X45036Y6325D01*
G01X33890Y4686D02*
G01X32790Y4686D01*
G01X32790Y3086D01*
G01X33890Y3086D01*
G01X34690Y4686D02*
G01X35790Y4686D01*
G01X35790Y3686D01*
G01X35790Y3086D01*
G01X34690Y3086D01*
G01X33890Y6464D02*
G01X32790Y6464D01*
G01X32790Y4864D01*
G01X33890Y4864D01*
G01X34690Y6464D02*
G01X35790Y6464D01*
G01X35790Y5464D01*
G01X35790Y4864D01*
G01X34690Y4864D01*
G01X34689Y1308D02*
G01X35789Y1308D01*
G01X35789Y2908D01*
G01X34689Y2908D01*
G01X33889Y1308D02*
G01X32789Y1308D01*
G01X32789Y2308D01*
G01X32789Y2908D01*
G01X33889Y2908D01*
G54D10*
G01X22987Y558D02*
G01X23368Y558D01*
G01X23368Y558D02*
G01X24765Y558D01*
G01X22987Y1879D02*
G01X23368Y1879D01*
G01X23368Y1879D02*
G01X24765Y1879D01*
G01X24376Y618D02*
G01X24376Y1839D01*
G54D12*
G01X45865Y10071D02*
G01X46965Y10071D01*
G01X46965Y11671D01*
G01X45865Y11671D01*
G01X45065Y10071D02*
G01X43965Y10071D01*
G01X43965Y11071D01*
G01X43965Y11671D01*
G01X45065Y11671D01*
G01X45865Y8293D02*
G01X46965Y8293D01*
G01X46965Y9893D01*
G01X45865Y9893D01*
G01X45065Y8293D02*
G01X43965Y8293D01*
G01X43965Y9293D01*
G01X43965Y9893D01*
G01X45065Y9893D01*
G01X53485Y18072D02*
G01X54585Y18072D01*
G01X54585Y19672D01*
G01X53485Y19672D01*
G01X52685Y18072D02*
G01X51585Y18072D01*
G01X51585Y19072D01*
G01X51585Y19672D01*
G01X52685Y19672D01*
G01X51834Y26962D02*
G01X52934Y26962D01*
G01X52934Y28562D01*
G01X51834Y28562D01*
G01X51034Y26962D02*
G01X49934Y26962D01*
G01X49934Y27962D01*
G01X49934Y28562D01*
G01X51034Y28562D01*
G01X55861Y19672D02*
G01X54761Y19672D01*
G01X54761Y18072D01*
G01X55861Y18072D01*
G01X56661Y19672D02*
G01X57761Y19672D01*
G01X57761Y18672D01*
G01X57761Y18072D01*
G01X56661Y18072D01*
G01X54210Y28562D02*
G01X53110Y28562D01*
G01X53110Y26962D01*
G01X54210Y26962D01*
G01X55010Y28562D02*
G01X56110Y28562D01*
G01X56110Y27562D01*
G01X56110Y26962D01*
G01X55010Y26962D01*
G01X45066Y13322D02*
G01X43966Y13322D01*
G01X43966Y11722D01*
G01X45066Y11722D01*
G01X45866Y13322D02*
G01X46966Y13322D01*
G01X46966Y12322D01*
G01X46966Y11722D01*
G01X45866Y11722D01*
G01X45955Y18148D02*
G01X44855Y18148D01*
G01X44855Y16548D01*
G01X45955Y16548D01*
G01X46755Y18148D02*
G01X47855Y18148D01*
G01X47855Y17148D01*
G01X47855Y16548D01*
G01X46755Y16548D01*
G01X25000Y23482D02*
G01X23900Y23482D01*
G01X23900Y21882D01*
G01X25000Y21882D01*
G01X25800Y23482D02*
G01X26900Y23482D01*
G01X26900Y22482D01*
G01X26900Y21882D01*
G01X25800Y21882D01*
G01X14359Y8303D02*
G01X13259Y8303D01*
G01X13259Y6703D01*
G01X14359Y6703D01*
G01X15159Y8303D02*
G01X16259Y8303D01*
G01X16259Y7303D01*
G01X16259Y6703D01*
G01X15159Y6703D01*
G01X1993Y17456D02*
G01X1993Y16356D01*
G01X3594Y16356D01*
G01X3594Y17456D01*
G01X1993Y18256D02*
G01X1993Y19356D01*
G01X2993Y19356D01*
G01X3594Y19356D01*
G01X3594Y18256D01*
G54D10*
G01X22275Y2616D02*
G01X22275Y7442D01*
G01X25425Y7442D01*
G01X25425Y2616D01*
G01X25425Y2616D02*
G01X24485Y2616D01*
G01X23215Y2616D02*
G01X22275Y2616D01*
G54D12*
G01X33255Y30848D02*
G01X32155Y30848D01*
G01X32155Y29248D01*
G01X33255Y29248D01*
G01X34055Y30848D02*
G01X35155Y30848D01*
G01X35155Y29848D01*
G01X35155Y29248D01*
G01X34055Y29248D01*
G01X33255Y34277D02*
G01X32155Y34277D01*
G01X32155Y32677D01*
G01X33255Y32677D01*
G01X34055Y34277D02*
G01X35155Y34277D01*
G01X35155Y33277D01*
G01X35155Y32677D01*
G01X34055Y32677D01*
G01X33255Y32499D02*
G01X32155Y32499D01*
G01X32155Y30899D01*
G01X33255Y30899D01*
G01X34055Y32499D02*
G01X35155Y32499D01*
G01X35155Y31499D01*
G01X35155Y30899D01*
G01X34055Y30899D01*
G54D10*
G01X25019Y26847D02*
G01X25400Y26847D01*
G01X25400Y26847D02*
G01X26797Y26847D01*
G01X25019Y28168D02*
G01X25400Y28168D01*
G01X25400Y28168D02*
G01X26797Y28168D01*
G01X26408Y26907D02*
G01X26408Y28128D01*
G01X24434Y29413D02*
G01X24434Y34239D01*
G01X27584Y34239D01*
G01X27584Y29413D01*
G01X27584Y29413D02*
G01X26644Y29413D01*
G01X25374Y29413D02*
G01X24434Y29413D01*
G54D12*
G01X33890Y11036D02*
G01X32790Y11036D01*
G01X32790Y9436D01*
G01X33890Y9436D01*
G01X34690Y11036D02*
G01X35790Y11036D01*
G01X35790Y10036D01*
G01X35790Y9436D01*
G01X34690Y9436D01*
G01X33890Y14592D02*
G01X32790Y14592D01*
G01X32790Y12992D01*
G01X33890Y12992D01*
G01X34690Y14592D02*
G01X35790Y14592D01*
G01X35790Y13592D01*
G01X35790Y12992D01*
G01X34690Y12992D01*
G01X33890Y12814D02*
G01X32790Y12814D01*
G01X32790Y11214D01*
G01X33890Y11214D01*
G01X34690Y12814D02*
G01X35790Y12814D01*
G01X35790Y11814D01*
G01X35790Y11214D01*
G01X34690Y11214D01*
G54D10*
G01X22987Y8813D02*
G01X23368Y8813D01*
G01X23368Y8813D02*
G01X24765Y8813D01*
G01X22987Y10134D02*
G01X23368Y10134D01*
G01X23368Y10134D02*
G01X24765Y10134D01*
G01X24376Y8873D02*
G01X24376Y10094D01*
G01X22275Y10871D02*
G01X22275Y15697D01*
G01X25425Y15697D01*
G01X25425Y10871D01*
G01X25425Y10871D02*
G01X24485Y10871D01*
G01X23215Y10871D02*
G01X22275Y10871D01*
G01X12956Y27585D02*
G01X12956Y32665D01*
G01X9146Y32665D01*
G01X7876Y31395D01*
G01X7876Y27585D01*
G01X7876Y27585D02*
G01X12956Y27585D01*
G54D12*
G01X3594Y21430D02*
G01X3594Y22531D01*
G01X1993Y22531D01*
G01X1993Y21430D01*
G01X3594Y20631D02*
G01X3594Y19531D01*
G01X2594Y19531D01*
G01X1993Y19531D01*
G01X1993Y20631D01*
G54D43*
G01X19037Y8185D02*
G01X19037Y13185D01*
G01X16836Y13185D01*
G01X16836Y8185D01*
G01X19037Y8185D01*
G54D12*
G01X17769Y32763D02*
G01X16669Y32763D01*
G01X16669Y31163D01*
G01X17769Y31163D01*
G01X18569Y32763D02*
G01X19669Y32763D01*
G01X19669Y31763D01*
G01X19669Y31163D01*
G01X18569Y31163D01*
G01X13666Y31935D02*
G01X13666Y30835D01*
G01X15267Y30835D01*
G01X15267Y31935D01*
G01X13666Y32735D02*
G01X13666Y33835D01*
G01X14666Y33835D01*
G01X15267Y33835D01*
G01X15267Y32735D01*
G54D44*
G01X10894Y33135D02*
G01X10894Y34151D01*
G01X11503Y34151D02*
G01X11503Y33135D01*
G01X11198Y33542D02*
G01X11198Y33745D01*
G01X11300Y33846D02*
G01X11300Y33440D01*
G01X11300Y33440D02*
G01X11097Y33643D01*
G01X11097Y33643D02*
G01X11300Y33846D01*
G01X12011Y34151D02*
G01X10386Y34151D01*
G01X10386Y34151D02*
G01X10386Y33135D01*
G01X10386Y33135D02*
G01X12011Y33135D01*
G01X12011Y33135D02*
G01X12011Y34151D01*
G54D47*
G01X10441Y2965D02*
G01X9296Y2965D01*
G01X10441Y2965D02*
G01X10441Y3456D01*
G01X10386Y3619D01*
G01X10332Y3674D01*
G01X10223Y3728D01*
G01X10114Y3728D01*
G01X10005Y3674D01*
G01X9950Y3619D01*
G01X9896Y3456D01*
G01X9896Y2965D01*
G01X9896Y3347D02*
G01X9296Y3728D01*
G01X10441Y4088D02*
G01X9296Y4852D01*
G01X10441Y4852D02*
G01X9296Y4088D01*
G01X12441Y3347D02*
G01X11296Y3347D01*
G01X12441Y2965D02*
G01X12441Y3728D01*
G01X12441Y4088D02*
G01X11296Y4852D01*
G01X12441Y4852D02*
G01X11296Y4088D01*
G01X14322Y2954D02*
G01X13176Y2954D01*
G01X14322Y2954D02*
G01X14322Y3336D01*
G01X14267Y3499D01*
G01X14158Y3608D01*
G01X14049Y3663D01*
G01X13886Y3718D01*
G01X13613Y3718D01*
G01X13449Y3663D01*
G01X13340Y3608D01*
G01X13231Y3499D01*
G01X13176Y3336D01*
G01X13176Y2954D01*
G01X14322Y4459D02*
G01X13176Y4459D01*
G01X14322Y4077D02*
G01X14322Y4841D01*
G01X14322Y5201D02*
G01X13176Y5201D01*
G01X14322Y5201D02*
G01X14322Y5692D01*
G01X14267Y5856D01*
G01X14213Y5910D01*
G01X14104Y5965D01*
G01X13995Y5965D01*
G01X13886Y5910D01*
G01X13831Y5856D01*
G01X13776Y5692D01*
G01X13776Y5201D01*
G01X13776Y5583D02*
G01X13176Y5965D01*
G01X8581Y2955D02*
G01X7436Y3391D01*
G01X8581Y3828D02*
G01X7436Y3391D01*
G01X8036Y4842D02*
G01X8145Y4733D01*
G01X8199Y4624D01*
G01X8199Y4460D01*
G01X8145Y4351D01*
G01X8036Y4242D01*
G01X7872Y4188D01*
G01X7763Y4188D01*
G01X7599Y4242D01*
G01X7490Y4351D01*
G01X7436Y4460D01*
G01X7436Y4624D01*
G01X7490Y4733D01*
G01X7599Y4842D01*
G01X8036Y5857D02*
G01X8145Y5748D01*
G01X8199Y5638D01*
G01X8199Y5475D01*
G01X8145Y5366D01*
G01X8036Y5257D01*
G01X7872Y5202D01*
G01X7763Y5202D01*
G01X7599Y5257D01*
G01X7490Y5366D01*
G01X7436Y5475D01*
G01X7436Y5638D01*
G01X7490Y5748D01*
G01X7599Y5857D01*
G01X6418Y3773D02*
G01X6527Y3718D01*
G01X6636Y3609D01*
G01X6691Y3500D01*
G01X6691Y3282D01*
G01X6636Y3173D01*
G01X6527Y3064D01*
G01X6418Y3009D01*
G01X6255Y2955D01*
G01X5982Y2955D01*
G01X5818Y3009D01*
G01X5709Y3064D01*
G01X5600Y3173D01*
G01X5546Y3282D01*
G01X5546Y3500D01*
G01X5600Y3609D01*
G01X5709Y3718D01*
G01X5818Y3773D01*
G01X5982Y3773D01*
G01X5982Y3500D02*
G01X5982Y3773D01*
G01X6691Y4133D02*
G01X5546Y4133D01*
G01X6691Y4133D02*
G01X5546Y4897D01*
G01X6691Y4897D02*
G01X5546Y4897D01*
G01X6691Y5257D02*
G01X5546Y5257D01*
G01X6691Y5257D02*
G01X6691Y5638D01*
G01X6636Y5802D01*
G01X6527Y5911D01*
G01X6418Y5966D01*
G01X6255Y6020D01*
G01X5982Y6020D01*
G01X5818Y5966D01*
G01X5709Y5911D01*
G01X5600Y5802D01*
G01X5546Y5638D01*
G01X5546Y5257D01*
G01X6418Y11665D02*
G01X5982Y10519D01*
G01X5546Y11665D02*
G01X5982Y10519D01*
G01X4531Y11119D02*
G01X4640Y11228D01*
G01X4749Y11283D01*
G01X4913Y11283D01*
G01X5022Y11228D01*
G01X5131Y11119D01*
G01X5186Y10956D01*
G01X5186Y10847D01*
G01X5131Y10683D01*
G01X5022Y10574D01*
G01X4913Y10519D01*
G01X4749Y10519D01*
G01X4640Y10574D01*
G01X4531Y10683D01*
G01X3517Y11119D02*
G01X3626Y11228D01*
G01X3735Y11283D01*
G01X3898Y11283D01*
G01X4007Y11228D01*
G01X4117Y11119D01*
G01X4171Y10956D01*
G01X4171Y10847D01*
G01X4117Y10683D01*
G01X4007Y10574D01*
G01X3898Y10519D01*
G01X3735Y10519D01*
G01X3626Y10574D01*
G01X3517Y10683D01*
G01X6306Y9799D02*
G01X6306Y8654D01*
G01X6306Y9799D02*
G01X5816Y9799D01*
G01X5652Y9745D01*
G01X5597Y9690D01*
G01X5543Y9581D01*
G01X5543Y9417D01*
G01X5597Y9308D01*
G01X5652Y9254D01*
G01X5816Y9199D01*
G01X6306Y9199D01*
G01X5183Y9799D02*
G01X4910Y8654D01*
G01X4637Y9799D02*
G01X4910Y8654D01*
G01X4637Y9799D02*
G01X4365Y8654D01*
G01X4092Y9799D02*
G01X4365Y8654D01*
G01X3732Y9799D02*
G01X3732Y8654D01*
G01X3732Y9799D02*
G01X3296Y8654D01*
G01X2859Y9799D02*
G01X3296Y8654D01*
G01X2859Y9799D02*
G01X2859Y8654D01*
G01X5574Y7742D02*
G01X5628Y7851D01*
G01X5737Y7960D01*
G01X5847Y8015D01*
G01X6065Y8015D01*
G01X6174Y7960D01*
G01X6283Y7851D01*
G01X6337Y7742D01*
G01X6392Y7578D01*
G01X6392Y7306D01*
G01X6337Y7142D01*
G01X6283Y7033D01*
G01X6174Y6924D01*
G01X6065Y6869D01*
G01X5847Y6869D01*
G01X5737Y6924D01*
G01X5628Y7033D01*
G01X5574Y7142D01*
G01X5574Y7306D01*
G01X5847Y7306D02*
G01X5574Y7306D01*
G01X5214Y8015D02*
G01X5214Y6869D01*
G01X5214Y8015D02*
G01X4450Y6869D01*
G01X4450Y8015D02*
G01X4450Y6869D01*
G01X4090Y8015D02*
G01X4090Y6869D01*
G01X4090Y8015D02*
G01X3708Y8015D01*
G01X3545Y7960D01*
G01X3436Y7851D01*
G01X3381Y7742D01*
G01X3326Y7578D01*
G01X3326Y7306D01*
G01X3381Y7142D01*
G01X3436Y7033D01*
G01X3545Y6924D01*
G01X3708Y6869D01*
G01X4090Y6869D01*
G01X56715Y12562D02*
G01X56770Y12671D01*
G01X56879Y12780D01*
G01X56988Y12835D01*
G01X57206Y12835D01*
G01X57315Y12780D01*
G01X57425Y12671D01*
G01X57479Y12562D01*
G01X57534Y12398D01*
G01X57534Y12126D01*
G01X57479Y11962D01*
G01X57425Y11853D01*
G01X57315Y11744D01*
G01X57206Y11689D01*
G01X56988Y11689D01*
G01X56879Y11744D01*
G01X56770Y11853D01*
G01X56715Y11962D01*
G01X56355Y12835D02*
G01X56355Y11689D01*
G01X55592Y12835D02*
G01X55592Y11689D01*
G01X56355Y12289D02*
G01X55592Y12289D01*
G01X55123Y12835D02*
G01X54523Y12835D01*
G01X54850Y12398D01*
G01X54686Y12398D01*
G01X54577Y12344D01*
G01X54523Y12289D01*
G01X54468Y12126D01*
G01X54468Y12017D01*
G01X54523Y11853D01*
G01X54632Y11744D01*
G01X54795Y11689D01*
G01X54959Y11689D01*
G01X55123Y11744D01*
G01X55177Y11798D01*
G01X55232Y11907D01*
G01X53563Y12835D02*
G01X54108Y12071D01*
G01X53290Y12071D01*
G01X53563Y12835D02*
G01X53563Y11689D01*
G01X52603Y12835D02*
G01X52766Y12780D01*
G01X52875Y12617D01*
G01X52930Y12344D01*
G01X52930Y12180D01*
G01X52875Y11907D01*
G01X52766Y11744D01*
G01X52603Y11689D01*
G01X52494Y11689D01*
G01X52330Y11744D01*
G01X52221Y11907D01*
G01X52166Y12180D01*
G01X52166Y12344D01*
G01X52221Y12617D01*
G01X52330Y12780D01*
G01X52494Y12835D01*
G01X52603Y12835D01*
G01X57617Y7915D02*
G01X57617Y7097D01*
G01X57563Y6933D01*
G01X57454Y6824D01*
G01X57290Y6769D01*
G01X57181Y6769D01*
G01X57017Y6824D01*
G01X56908Y6933D01*
G01X56854Y7097D01*
G01X56854Y7915D01*
G01X55730Y7751D02*
G01X55839Y7860D01*
G01X56003Y7915D01*
G01X56221Y7915D01*
G01X56385Y7860D01*
G01X56494Y7751D01*
G01X56494Y7642D01*
G01X56439Y7533D01*
G01X56385Y7478D01*
G01X56275Y7424D01*
G01X55948Y7315D01*
G01X55839Y7260D01*
G01X55785Y7206D01*
G01X55730Y7097D01*
G01X55730Y6933D01*
G01X55839Y6824D01*
G01X56003Y6769D01*
G01X56221Y6769D01*
G01X56385Y6824D01*
G01X56494Y6933D01*
G01X55370Y7915D02*
G01X55370Y6769D01*
G01X55370Y7915D02*
G01X54879Y7915D01*
G01X54715Y7860D01*
G01X54661Y7806D01*
G01X54606Y7697D01*
G01X54606Y7588D01*
G01X54661Y7478D01*
G01X54715Y7424D01*
G01X54879Y7369D01*
G01X55370Y7369D02*
G01X54879Y7369D01*
G01X54715Y7315D01*
G01X54661Y7260D01*
G01X54606Y7151D01*
G01X54606Y6988D01*
G01X54661Y6878D01*
G01X54715Y6824D01*
G01X54879Y6769D01*
G01X55370Y6769D01*
G01X14632Y19935D02*
G01X14032Y19935D01*
G01X14359Y19498D01*
G01X14196Y19498D01*
G01X14086Y19444D01*
G01X14032Y19389D01*
G01X13977Y19226D01*
G01X13977Y19117D01*
G01X14032Y18953D01*
G01X14141Y18844D01*
G01X14305Y18789D01*
G01X14468Y18789D01*
G01X14632Y18844D01*
G01X14686Y18898D01*
G01X14741Y19007D01*
G01X13563Y19662D02*
G01X13563Y19717D01*
G01X13508Y19826D01*
G01X13454Y19880D01*
G01X13345Y19935D01*
G01X13126Y19935D01*
G01X13017Y19880D01*
G01X12963Y19826D01*
G01X12908Y19717D01*
G01X12908Y19607D01*
G01X12963Y19498D01*
G01X13072Y19335D01*
G01X13617Y18789D01*
G01X12854Y18789D01*
G01X12221Y19935D02*
G01X12385Y19880D01*
G01X12439Y19771D01*
G01X12439Y19662D01*
G01X12385Y19553D01*
G01X12276Y19498D01*
G01X12057Y19444D01*
G01X11894Y19389D01*
G01X11785Y19280D01*
G01X11730Y19171D01*
G01X11730Y19007D01*
G01X11785Y18898D01*
G01X11839Y18844D01*
G01X12003Y18789D01*
G01X12221Y18789D01*
G01X12385Y18844D01*
G01X12439Y18898D01*
G01X12494Y19007D01*
G01X12494Y19171D01*
G01X12439Y19280D01*
G01X12330Y19389D01*
G01X12166Y19444D01*
G01X11948Y19498D01*
G01X11839Y19553D01*
G01X11785Y19662D01*
G01X11785Y19771D01*
G01X11839Y19880D01*
G01X12003Y19935D01*
G01X12221Y19935D01*
G01X11370Y19935D02*
G01X11370Y18789D01*
G01X11370Y19935D02*
G01X10879Y19935D01*
G01X10716Y19880D01*
G01X10661Y19826D01*
G01X10606Y19717D01*
G01X10606Y19553D01*
G01X10661Y19444D01*
G01X10716Y19389D01*
G01X10879Y19335D01*
G01X11370Y19335D01*
G54D46*
G01X29659Y19855D02*
G01X29659Y18900D01*
G01X29659Y19855D02*
G01X29068Y19855D01*
G01X29659Y19400D02*
G01X29296Y19400D01*
G01X29659Y18900D02*
G01X29068Y18900D01*
G01X28768Y19855D02*
G01X28768Y18900D01*
G01X28768Y18900D02*
G01X28223Y18900D01*
G01X27923Y19855D02*
G01X27923Y18900D01*
G01X27923Y19855D02*
G01X27332Y19855D01*
G01X27923Y19400D02*
G01X27559Y19400D01*
G01X27923Y18900D02*
G01X27332Y18900D01*
G01X26350Y19628D02*
G01X26396Y19718D01*
G01X26486Y19809D01*
G01X26577Y19855D01*
G01X26759Y19855D01*
G01X26850Y19809D01*
G01X26941Y19718D01*
G01X26986Y19628D01*
G01X27032Y19491D01*
G01X27032Y19264D01*
G01X26986Y19128D01*
G01X26941Y19037D01*
G01X26850Y18946D01*
G01X26759Y18900D01*
G01X26577Y18900D01*
G01X26486Y18946D01*
G01X26396Y19037D01*
G01X26350Y19128D01*
G01X25732Y19855D02*
G01X25732Y18900D01*
G01X26050Y19855D02*
G01X25414Y19855D01*
G01X25114Y19855D02*
G01X25114Y18900D01*
G01X25114Y19855D02*
G01X24705Y19855D01*
G01X24568Y19809D01*
G01X24523Y19764D01*
G01X24477Y19673D01*
G01X24477Y19582D01*
G01X24523Y19491D01*
G01X24568Y19446D01*
G01X24705Y19400D01*
G01X25114Y19400D01*
G01X24796Y19400D02*
G01X24477Y18900D01*
G01X23905Y19855D02*
G01X23996Y19809D01*
G01X24086Y19718D01*
G01X24132Y19628D01*
G01X24177Y19491D01*
G01X24177Y19264D01*
G01X24132Y19128D01*
G01X24086Y19037D01*
G01X23996Y18946D01*
G01X23905Y18900D01*
G01X23723Y18900D01*
G01X23632Y18946D01*
G01X23541Y19037D01*
G01X23496Y19128D01*
G01X23450Y19264D01*
G01X23450Y19491D01*
G01X23496Y19628D01*
G01X23541Y19718D01*
G01X23632Y19809D01*
G01X23723Y19855D01*
G01X23905Y19855D01*
G01X23150Y19855D02*
G01X23150Y18900D01*
G01X23150Y19855D02*
G01X22514Y18900D01*
G01X22514Y19855D02*
G01X22514Y18900D01*
G01X21941Y19855D02*
G01X22032Y19809D01*
G01X22123Y19718D01*
G01X22168Y19628D01*
G01X22214Y19491D01*
G01X22214Y19264D01*
G01X22168Y19128D01*
G01X22123Y19037D01*
G01X22032Y18946D01*
G01X21941Y18900D01*
G01X21759Y18900D01*
G01X21668Y18946D01*
G01X21577Y19037D01*
G01X21532Y19128D01*
G01X21486Y19264D01*
G01X21486Y19491D01*
G01X21532Y19628D01*
G01X21577Y19718D01*
G01X21668Y19809D01*
G01X21759Y19855D01*
G01X21941Y19855D01*
G01X20914Y19855D02*
G01X21005Y19809D01*
G01X21096Y19718D01*
G01X21141Y19628D01*
G01X21186Y19491D01*
G01X21186Y19264D01*
G01X21141Y19128D01*
G01X21096Y19037D01*
G01X21005Y18946D01*
G01X20914Y18900D01*
G01X20732Y18900D01*
G01X20641Y18946D01*
G01X20550Y19037D01*
G01X20505Y19128D01*
G01X20459Y19264D01*
G01X20459Y19491D01*
G01X20505Y19628D01*
G01X20550Y19718D01*
G01X20641Y19809D01*
G01X20732Y19855D01*
G01X20914Y19855D01*
G01X20159Y19855D02*
G01X20159Y18900D01*
G01X20159Y19855D02*
G01X19750Y19855D01*
G01X19614Y19809D01*
G01X19568Y19764D01*
G01X19523Y19673D01*
G01X19523Y19582D01*
G01X19568Y19491D01*
G01X19614Y19446D01*
G01X19750Y19400D01*
G01X20159Y19400D02*
G01X19750Y19400D01*
G01X19614Y19355D01*
G01X19568Y19309D01*
G01X19523Y19218D01*
G01X19523Y19082D01*
G01X19568Y18991D01*
G01X19614Y18946D01*
G01X19750Y18900D01*
G01X20159Y18900D01*
G01X18586Y19718D02*
G01X18677Y19809D01*
G01X18814Y19855D01*
G01X18996Y19855D01*
G01X19132Y19809D01*
G01X19223Y19718D01*
G01X19223Y19628D01*
G01X19177Y19537D01*
G01X19132Y19491D01*
G01X19041Y19446D01*
G01X18768Y19355D01*
G01X18677Y19309D01*
G01X18632Y19264D01*
G01X18586Y19173D01*
G01X18586Y19037D01*
G01X18677Y18946D01*
G01X18814Y18900D01*
G01X18996Y18900D01*
G01X19132Y18946D01*
G01X19223Y19037D01*
G54D12*
G01X28248Y18245D02*
G01X28248Y16908D01*
G01X28248Y18245D02*
G01X27421Y18245D01*
G01X28248Y17608D02*
G01X27739Y17608D01*
G01X28248Y16908D02*
G01X27421Y16908D01*
G01X26110Y18054D02*
G01X26237Y18181D01*
G01X26428Y18245D01*
G01X26683Y18245D01*
G01X26874Y18181D01*
G01X27001Y18054D01*
G01X27001Y17927D01*
G01X26937Y17799D01*
G01X26874Y17736D01*
G01X26746Y17672D01*
G01X26365Y17545D01*
G01X26237Y17481D01*
G01X26174Y17417D01*
G01X26110Y17290D01*
G01X26110Y17099D01*
G01X26237Y16972D01*
G01X26428Y16908D01*
G01X26683Y16908D01*
G01X26874Y16972D01*
G01X27001Y17099D01*
G01X24735Y17927D02*
G01X24799Y18054D01*
G01X24926Y18181D01*
G01X25054Y18245D01*
G01X25308Y18245D01*
G01X25436Y18181D01*
G01X25563Y18054D01*
G01X25626Y17927D01*
G01X25690Y17736D01*
G01X25690Y17417D01*
G01X25626Y17227D01*
G01X25563Y17099D01*
G01X25436Y16972D01*
G01X25308Y16908D01*
G01X25054Y16908D01*
G01X24926Y16972D01*
G01X24799Y17099D01*
G01X24735Y17227D01*
G01X23335Y18245D02*
G01X22826Y16908D01*
G01X22317Y18245D02*
G01X22826Y16908D01*
G01X21834Y17927D02*
G01X21834Y17990D01*
G01X21770Y18117D01*
G01X21706Y18181D01*
G01X21579Y18245D01*
G01X21325Y18245D01*
G01X21197Y18181D01*
G01X21134Y18117D01*
G01X21070Y17990D01*
G01X21070Y17863D01*
G01X21134Y17736D01*
G01X21261Y17545D01*
G01X21897Y16908D01*
G01X21006Y16908D01*
G54D45*
G01X20775Y29955D02*
G01X20048Y28863D01*
G01X20048Y29955D02*
G01X20775Y28863D01*
G01X19652Y29693D02*
G01X19652Y29746D01*
G01X19601Y29851D01*
G01X19548Y29901D01*
G01X19444Y29955D01*
G01X19238Y29955D01*
G01X19134Y29901D01*
G01X19081Y29851D01*
G01X19030Y29746D01*
G01X19030Y29642D01*
G01X19081Y29538D01*
G01X19185Y29383D01*
G01X19705Y28863D01*
G01X18976Y28863D01*
G01X49487Y2465D02*
G01X49487Y1375D01*
G01X49487Y2465D02*
G01X49019Y2465D01*
G01X48864Y2414D01*
G01X48811Y2363D01*
G01X48760Y2259D01*
G01X48760Y2155D01*
G01X48811Y2051D01*
G01X48864Y1997D01*
G01X49019Y1947D01*
G01X49487Y1947D01*
G01X49124Y1947D02*
G01X48760Y1375D01*
G01X48417Y2259D02*
G01X48313Y2310D01*
G01X48156Y2465D01*
G01X48156Y1375D01*
G01X47554Y2465D02*
G01X47709Y2414D01*
G01X47762Y2310D01*
G01X47762Y2206D01*
G01X47709Y2102D01*
G01X47607Y2051D01*
G01X47399Y1997D01*
G01X47241Y1947D01*
G01X47137Y1843D01*
G01X47086Y1738D01*
G01X47086Y1583D01*
G01X47137Y1479D01*
G01X47191Y1426D01*
G01X47346Y1375D01*
G01X47554Y1375D01*
G01X47709Y1426D01*
G01X47762Y1479D01*
G01X47813Y1583D01*
G01X47813Y1738D01*
G01X47762Y1843D01*
G01X47658Y1947D01*
G01X47503Y1997D01*
G01X47295Y2051D01*
G01X47191Y2102D01*
G01X47137Y2206D01*
G01X47137Y2310D01*
G01X47191Y2414D01*
G01X47346Y2465D01*
G01X47554Y2465D01*
G01X49466Y4394D02*
G01X49466Y3304D01*
G01X49466Y4394D02*
G01X48999Y4394D01*
G01X48844Y4343D01*
G01X48790Y4292D01*
G01X48740Y4188D01*
G01X48740Y4084D01*
G01X48790Y3980D01*
G01X48844Y3926D01*
G01X48999Y3876D01*
G01X49466Y3876D01*
G01X49103Y3876D02*
G01X48740Y3304D01*
G01X48397Y4188D02*
G01X48293Y4239D01*
G01X48135Y4394D01*
G01X48135Y3304D01*
G01X47117Y4031D02*
G01X47170Y3876D01*
G01X47274Y3771D01*
G01X47429Y3721D01*
G01X47482Y3721D01*
G01X47637Y3771D01*
G01X47741Y3876D01*
G01X47792Y4031D01*
G01X47792Y4084D01*
G01X47741Y4239D01*
G01X47637Y4343D01*
G01X47482Y4394D01*
G01X47429Y4394D01*
G01X47274Y4343D01*
G01X47170Y4239D01*
G01X47117Y4031D01*
G01X47117Y3771D01*
G01X47170Y3512D01*
G01X47274Y3355D01*
G01X47429Y3304D01*
G01X47533Y3304D01*
G01X47688Y3355D01*
G01X47741Y3459D01*
G01X48206Y5676D02*
G01X48259Y5780D01*
G01X48363Y5884D01*
G01X48465Y5935D01*
G01X48673Y5935D01*
G01X48777Y5884D01*
G01X48881Y5780D01*
G01X48935Y5676D01*
G01X48985Y5521D01*
G01X48985Y5262D01*
G01X48935Y5104D01*
G01X48881Y5000D01*
G01X48777Y4896D01*
G01X48673Y4845D01*
G01X48465Y4845D01*
G01X48363Y4896D01*
G01X48259Y5000D01*
G01X48206Y5104D01*
G01X47136Y5935D02*
G01X47654Y4845D01*
G01X47863Y5935D02*
G01X47136Y5935D01*
G01X37866Y4521D02*
G01X37866Y3431D01*
G01X37866Y4521D02*
G01X37399Y4521D01*
G01X37244Y4470D01*
G01X37190Y4419D01*
G01X37139Y4315D01*
G01X37139Y4211D01*
G01X37190Y4107D01*
G01X37244Y4053D01*
G01X37399Y4003D01*
G01X37866Y4003D01*
G01X37503Y4003D02*
G01X37139Y3431D01*
G01X36535Y4521D02*
G01X36692Y4470D01*
G01X36743Y4366D01*
G01X36743Y4262D01*
G01X36692Y4158D01*
G01X36588Y4107D01*
G01X36380Y4053D01*
G01X36225Y4003D01*
G01X36121Y3898D01*
G01X36068Y3794D01*
G01X36068Y3639D01*
G01X36121Y3535D01*
G01X36172Y3482D01*
G01X36329Y3431D01*
G01X36535Y3431D01*
G01X36692Y3482D01*
G01X36743Y3535D01*
G01X36797Y3639D01*
G01X36797Y3794D01*
G01X36743Y3898D01*
G01X36639Y4003D01*
G01X36484Y4053D01*
G01X36276Y4107D01*
G01X36172Y4158D01*
G01X36121Y4262D01*
G01X36121Y4366D01*
G01X36172Y4470D01*
G01X36329Y4521D01*
G01X36535Y4521D01*
G01X37813Y6299D02*
G01X37813Y5209D01*
G01X37813Y6299D02*
G01X37345Y6299D01*
G01X37190Y6248D01*
G01X37137Y6197D01*
G01X37086Y6093D01*
G01X37086Y5989D01*
G01X37137Y5885D01*
G01X37190Y5831D01*
G01X37345Y5781D01*
G01X37813Y5781D01*
G01X37449Y5781D02*
G01X37086Y5209D01*
G01X36068Y5936D02*
G01X36118Y5781D01*
G01X36222Y5676D01*
G01X36377Y5626D01*
G01X36431Y5626D01*
G01X36586Y5676D01*
G01X36690Y5781D01*
G01X36743Y5936D01*
G01X36743Y5989D01*
G01X36690Y6144D01*
G01X36586Y6248D01*
G01X36431Y6299D01*
G01X36377Y6299D01*
G01X36222Y6248D01*
G01X36118Y6144D01*
G01X36068Y5936D01*
G01X36068Y5676D01*
G01X36118Y5417D01*
G01X36222Y5260D01*
G01X36377Y5209D01*
G01X36482Y5209D01*
G01X36639Y5260D01*
G01X36690Y5364D01*
G01X37739Y2357D02*
G01X37792Y2461D01*
G01X37896Y2565D01*
G01X37998Y2616D01*
G01X38206Y2616D01*
G01X38310Y2565D01*
G01X38414Y2461D01*
G01X38468Y2357D01*
G01X38519Y2202D01*
G01X38519Y1943D01*
G01X38468Y1785D01*
G01X38414Y1681D01*
G01X38310Y1577D01*
G01X38206Y1526D01*
G01X37998Y1526D01*
G01X37896Y1577D01*
G01X37792Y1681D01*
G01X37739Y1785D01*
G01X37396Y2410D02*
G01X37292Y2461D01*
G01X37137Y2616D01*
G01X37137Y1526D01*
G01X36690Y2616D02*
G01X36118Y2616D01*
G01X36431Y2202D01*
G01X36273Y2202D01*
G01X36169Y2148D01*
G01X36118Y2098D01*
G01X36067Y1943D01*
G01X36067Y1838D01*
G01X36118Y1681D01*
G01X36222Y1577D01*
G01X36377Y1526D01*
G01X36535Y1526D01*
G01X36690Y1577D01*
G01X36741Y1630D01*
G01X36794Y1734D01*
G01X27706Y1727D02*
G01X27706Y637D01*
G01X27706Y1727D02*
G01X27343Y1727D01*
G01X27185Y1676D01*
G01X27084Y1572D01*
G01X27030Y1468D01*
G01X26979Y1313D01*
G01X26979Y1054D01*
G01X27030Y896D01*
G01X27084Y792D01*
G01X27185Y688D01*
G01X27343Y637D01*
G01X27706Y637D01*
G01X26583Y1468D02*
G01X26583Y1521D01*
G01X26532Y1625D01*
G01X26479Y1676D01*
G01X26375Y1727D01*
G01X26169Y1727D01*
G01X26065Y1676D01*
G01X26012Y1625D01*
G01X25961Y1521D01*
G01X25961Y1417D01*
G01X26012Y1313D01*
G01X26116Y1155D01*
G01X26637Y637D01*
G01X25908Y637D01*
G01X43677Y11445D02*
G01X43677Y10355D01*
G01X43677Y11445D02*
G01X43209Y11445D01*
G01X43054Y11394D01*
G01X43001Y11343D01*
G01X42950Y11239D01*
G01X42950Y11135D01*
G01X43001Y11031D01*
G01X43054Y10977D01*
G01X43209Y10927D01*
G01X43677Y10927D01*
G01X43314Y10927D02*
G01X42950Y10355D01*
G01X42607Y11239D02*
G01X42503Y11290D01*
G01X42346Y11445D01*
G01X42346Y10355D01*
G01X41952Y11186D02*
G01X41952Y11239D01*
G01X41899Y11343D01*
G01X41848Y11394D01*
G01X41744Y11445D01*
G01X41536Y11445D01*
G01X41431Y11394D01*
G01X41381Y11343D01*
G01X41327Y11239D01*
G01X41327Y11135D01*
G01X41381Y11031D01*
G01X41485Y10873D01*
G01X42003Y10355D01*
G01X41276Y10355D01*
G01X43675Y9601D02*
G01X43675Y8511D01*
G01X43675Y9601D02*
G01X43207Y9601D01*
G01X43053Y9550D01*
G01X42999Y9499D01*
G01X42948Y9395D01*
G01X42948Y9291D01*
G01X42999Y9187D01*
G01X43053Y9133D01*
G01X43207Y9083D01*
G01X43675Y9083D01*
G01X43312Y9083D02*
G01X42948Y8511D01*
G01X42605Y9395D02*
G01X42501Y9446D01*
G01X42344Y9601D01*
G01X42344Y8511D01*
G01X41897Y9601D02*
G01X41325Y9601D01*
G01X41638Y9187D01*
G01X41483Y9187D01*
G01X41379Y9133D01*
G01X41325Y9083D01*
G01X41275Y8928D01*
G01X41275Y8823D01*
G01X41325Y8666D01*
G01X41429Y8562D01*
G01X41587Y8511D01*
G01X41742Y8511D01*
G01X41897Y8562D01*
G01X41950Y8615D01*
G01X42001Y8719D01*
G01X51247Y19375D02*
G01X51247Y18285D01*
G01X51247Y19375D02*
G01X50780Y19375D01*
G01X50625Y19324D01*
G01X50572Y19273D01*
G01X50521Y19169D01*
G01X50521Y19065D01*
G01X50572Y18961D01*
G01X50625Y18907D01*
G01X50780Y18857D01*
G01X51247Y18857D01*
G01X50884Y18857D02*
G01X50521Y18285D01*
G01X50178Y19169D02*
G01X50074Y19220D01*
G01X49916Y19375D01*
G01X49916Y18285D01*
G01X49055Y19375D02*
G01X49574Y18648D01*
G01X48796Y18648D01*
G01X49055Y19375D02*
G01X49055Y18285D01*
G01X49644Y28270D02*
G01X49644Y27180D01*
G01X49644Y28270D02*
G01X49176Y28270D01*
G01X49022Y28219D01*
G01X48968Y28168D01*
G01X48917Y28064D01*
G01X48917Y27960D01*
G01X48968Y27856D01*
G01X49022Y27802D01*
G01X49176Y27752D01*
G01X49644Y27752D01*
G01X49281Y27752D02*
G01X48917Y27180D01*
G01X48574Y28064D02*
G01X48470Y28115D01*
G01X48313Y28270D01*
G01X48313Y27180D01*
G01X47348Y28270D02*
G01X47866Y28270D01*
G01X47919Y27802D01*
G01X47866Y27856D01*
G01X47711Y27906D01*
G01X47556Y27906D01*
G01X47398Y27856D01*
G01X47294Y27752D01*
G01X47244Y27597D01*
G01X47244Y27492D01*
G01X47294Y27335D01*
G01X47398Y27231D01*
G01X47556Y27180D01*
G01X47711Y27180D01*
G01X47866Y27231D01*
G01X47919Y27284D01*
G01X47970Y27388D01*
G01X60316Y19395D02*
G01X60316Y18305D01*
G01X60316Y19395D02*
G01X59849Y19395D01*
G01X59694Y19344D01*
G01X59640Y19293D01*
G01X59589Y19189D01*
G01X59589Y19085D01*
G01X59640Y18981D01*
G01X59694Y18927D01*
G01X59849Y18877D01*
G01X60316Y18877D01*
G01X59953Y18877D02*
G01X59589Y18305D01*
G01X59247Y19189D02*
G01X59142Y19240D01*
G01X58985Y19395D01*
G01X58985Y18305D01*
G01X58020Y19240D02*
G01X58071Y19344D01*
G01X58228Y19395D01*
G01X58332Y19395D01*
G01X58487Y19344D01*
G01X58591Y19189D01*
G01X58642Y18927D01*
G01X58642Y18668D01*
G01X58591Y18460D01*
G01X58487Y18356D01*
G01X58332Y18305D01*
G01X58279Y18305D01*
G01X58124Y18356D01*
G01X58020Y18460D01*
G01X57966Y18618D01*
G01X57966Y18668D01*
G01X58020Y18823D01*
G01X58124Y18927D01*
G01X58279Y18981D01*
G01X58332Y18981D01*
G01X58487Y18927D01*
G01X58591Y18823D01*
G01X58642Y18668D01*
G01X58788Y28270D02*
G01X58788Y27180D01*
G01X58788Y28270D02*
G01X58320Y28270D01*
G01X58165Y28219D01*
G01X58112Y28168D01*
G01X58061Y28064D01*
G01X58061Y27960D01*
G01X58112Y27856D01*
G01X58165Y27802D01*
G01X58320Y27752D01*
G01X58788Y27752D01*
G01X58425Y27752D02*
G01X58061Y27180D01*
G01X57718Y28064D02*
G01X57614Y28115D01*
G01X57457Y28270D01*
G01X57457Y27180D01*
G01X56387Y28270D02*
G01X56908Y27180D01*
G01X57114Y28270D02*
G01X56387Y28270D01*
G01X43724Y13095D02*
G01X43724Y12005D01*
G01X43724Y13095D02*
G01X43257Y13095D01*
G01X43102Y13044D01*
G01X43048Y12993D01*
G01X42998Y12889D01*
G01X42998Y12785D01*
G01X43048Y12681D01*
G01X43102Y12627D01*
G01X43257Y12577D01*
G01X43724Y12577D01*
G01X43361Y12577D02*
G01X42998Y12005D01*
G01X42601Y12836D02*
G01X42601Y12889D01*
G01X42551Y12993D01*
G01X42497Y13044D01*
G01X42393Y13095D01*
G01X42187Y13095D01*
G01X42083Y13044D01*
G01X42030Y12993D01*
G01X41979Y12889D01*
G01X41979Y12785D01*
G01X42030Y12681D01*
G01X42134Y12523D01*
G01X42655Y12005D01*
G01X41926Y12005D01*
G01X41273Y13095D02*
G01X41428Y13044D01*
G01X41532Y12889D01*
G01X41583Y12627D01*
G01X41583Y12473D01*
G01X41532Y12213D01*
G01X41428Y12056D01*
G01X41273Y12005D01*
G01X41169Y12005D01*
G01X41011Y12056D01*
G01X40907Y12213D01*
G01X40856Y12473D01*
G01X40856Y12627D01*
G01X40907Y12889D01*
G01X41011Y13044D01*
G01X41169Y13095D01*
G01X41273Y13095D01*
G01X44564Y17983D02*
G01X44564Y16893D01*
G01X44564Y17983D02*
G01X44096Y17983D01*
G01X43941Y17932D01*
G01X43888Y17881D01*
G01X43837Y17777D01*
G01X43837Y17673D01*
G01X43888Y17569D01*
G01X43941Y17515D01*
G01X44096Y17465D01*
G01X44564Y17465D01*
G01X44201Y17465D02*
G01X43837Y16893D01*
G01X43441Y17724D02*
G01X43441Y17777D01*
G01X43390Y17881D01*
G01X43337Y17932D01*
G01X43233Y17983D01*
G01X43027Y17983D01*
G01X42923Y17932D01*
G01X42870Y17881D01*
G01X42819Y17777D01*
G01X42819Y17673D01*
G01X42870Y17569D01*
G01X42974Y17411D01*
G01X43494Y16893D01*
G01X42765Y16893D01*
G01X42423Y17777D02*
G01X42318Y17828D01*
G01X42163Y17983D01*
G01X42163Y16893D01*
G01X26754Y24845D02*
G01X26754Y23755D01*
G01X26754Y24845D02*
G01X26287Y24845D01*
G01X26132Y24794D01*
G01X26078Y24743D01*
G01X26028Y24639D01*
G01X26028Y24535D01*
G01X26078Y24431D01*
G01X26132Y24377D01*
G01X26287Y24327D01*
G01X26754Y24327D01*
G01X26391Y24327D02*
G01X26028Y23755D01*
G01X25631Y24586D02*
G01X25631Y24639D01*
G01X25581Y24743D01*
G01X25527Y24794D01*
G01X25423Y24845D01*
G01X25217Y24845D01*
G01X25113Y24794D01*
G01X25060Y24743D01*
G01X25009Y24639D01*
G01X25009Y24535D01*
G01X25060Y24431D01*
G01X25164Y24273D01*
G01X25685Y23755D01*
G01X24956Y23755D01*
G01X24562Y24586D02*
G01X24562Y24639D01*
G01X24509Y24743D01*
G01X24458Y24794D01*
G01X24354Y24845D01*
G01X24146Y24845D01*
G01X24041Y24794D01*
G01X23991Y24743D01*
G01X23937Y24639D01*
G01X23937Y24535D01*
G01X23991Y24431D01*
G01X24095Y24273D01*
G01X24613Y23755D01*
G01X23886Y23755D01*
G01X12126Y7826D02*
G01X12179Y7930D01*
G01X12283Y8034D01*
G01X12385Y8085D01*
G01X12593Y8085D01*
G01X12697Y8034D01*
G01X12801Y7930D01*
G01X12855Y7826D01*
G01X12906Y7671D01*
G01X12906Y7412D01*
G01X12855Y7254D01*
G01X12801Y7150D01*
G01X12697Y7046D01*
G01X12593Y6995D01*
G01X12385Y6995D01*
G01X12283Y7046D01*
G01X12179Y7150D01*
G01X12126Y7254D01*
G01X11732Y7826D02*
G01X11732Y7879D01*
G01X11679Y7983D01*
G01X11628Y8034D01*
G01X11524Y8085D01*
G01X11316Y8085D01*
G01X11211Y8034D01*
G01X11161Y7983D01*
G01X11107Y7879D01*
G01X11107Y7775D01*
G01X11161Y7671D01*
G01X11265Y7513D01*
G01X11783Y6995D01*
G01X11056Y6995D01*
G01X2545Y15298D02*
G01X2440Y15351D01*
G01X2336Y15455D01*
G01X2285Y15557D01*
G01X2285Y15765D01*
G01X2336Y15869D01*
G01X2440Y15974D01*
G01X2545Y16027D01*
G01X2699Y16078D01*
G01X2959Y16078D01*
G01X3116Y16027D01*
G01X3220Y15974D01*
G01X3324Y15869D01*
G01X3375Y15765D01*
G01X3375Y15557D01*
G01X3324Y15455D01*
G01X3220Y15351D01*
G01X3116Y15298D01*
G01X2440Y14333D02*
G01X2336Y14384D01*
G01X2285Y14541D01*
G01X2285Y14643D01*
G01X2336Y14800D01*
G01X2491Y14904D01*
G01X2753Y14955D01*
G01X3012Y14955D01*
G01X3220Y14904D01*
G01X3324Y14800D01*
G01X3375Y14643D01*
G01X3375Y14592D01*
G01X3324Y14437D01*
G01X3220Y14333D01*
G01X3063Y14279D01*
G01X3012Y14279D01*
G01X2857Y14333D01*
G01X2753Y14437D01*
G01X2699Y14592D01*
G01X2699Y14643D01*
G01X2753Y14800D01*
G01X2857Y14904D01*
G01X3012Y14955D01*
G01X24675Y5585D02*
G01X24675Y4808D01*
G01X24624Y4650D01*
G01X24520Y4546D01*
G01X24362Y4495D01*
G01X24258Y4495D01*
G01X24103Y4546D01*
G01X23999Y4650D01*
G01X23948Y4808D01*
G01X23948Y5585D01*
G01X22876Y5585D02*
G01X23397Y4495D01*
G01X23605Y5585D02*
G01X22876Y5585D01*
G01X37071Y30585D02*
G01X37071Y29495D01*
G01X37071Y30585D02*
G01X36604Y30585D01*
G01X36449Y30534D01*
G01X36396Y30483D01*
G01X36345Y30379D01*
G01X36345Y30275D01*
G01X36396Y30171D01*
G01X36449Y30117D01*
G01X36604Y30067D01*
G01X37071Y30067D01*
G01X36708Y30067D02*
G01X36345Y29495D01*
G01X35377Y30430D02*
G01X35431Y30534D01*
G01X35586Y30585D01*
G01X35690Y30585D01*
G01X35845Y30534D01*
G01X35949Y30379D01*
G01X36002Y30117D01*
G01X36002Y29858D01*
G01X35949Y29650D01*
G01X35845Y29546D01*
G01X35690Y29495D01*
G01X35636Y29495D01*
G01X35481Y29546D01*
G01X35377Y29650D01*
G01X35326Y29808D01*
G01X35326Y29858D01*
G01X35377Y30013D01*
G01X35481Y30117D01*
G01X35636Y30171D01*
G01X35690Y30171D01*
G01X35845Y30117D01*
G01X35949Y30013D01*
G01X36002Y29858D01*
G01X37104Y33985D02*
G01X37104Y32895D01*
G01X37104Y33985D02*
G01X36637Y33985D01*
G01X36482Y33934D01*
G01X36428Y33883D01*
G01X36377Y33779D01*
G01X36377Y33675D01*
G01X36428Y33571D01*
G01X36482Y33517D01*
G01X36637Y33467D01*
G01X37104Y33467D01*
G01X36741Y33467D02*
G01X36377Y32895D01*
G01X35306Y33985D02*
G01X35826Y32895D01*
G01X36035Y33985D02*
G01X35306Y33985D01*
G01X36426Y31976D02*
G01X36479Y32080D01*
G01X36583Y32184D01*
G01X36685Y32235D01*
G01X36893Y32235D01*
G01X36997Y32184D01*
G01X37101Y32080D01*
G01X37155Y31976D01*
G01X37205Y31821D01*
G01X37205Y31562D01*
G01X37155Y31404D01*
G01X37101Y31300D01*
G01X36997Y31196D01*
G01X36893Y31145D01*
G01X36685Y31145D01*
G01X36583Y31196D01*
G01X36479Y31300D01*
G01X36426Y31404D01*
G01X35979Y32235D02*
G01X35407Y32235D01*
G01X35720Y31821D01*
G01X35565Y31821D01*
G01X35461Y31767D01*
G01X35407Y31717D01*
G01X35356Y31562D01*
G01X35356Y31458D01*
G01X35407Y31300D01*
G01X35511Y31196D01*
G01X35669Y31145D01*
G01X35824Y31145D01*
G01X35979Y31196D01*
G01X36032Y31249D01*
G01X36083Y31353D01*
G01X26687Y26555D02*
G01X26687Y25465D01*
G01X26687Y26555D02*
G01X26324Y26555D01*
G01X26167Y26504D01*
G01X26065Y26400D01*
G01X26012Y26296D01*
G01X25961Y26141D01*
G01X25961Y25882D01*
G01X26012Y25724D01*
G01X26065Y25620D01*
G01X26167Y25516D01*
G01X26324Y25465D01*
G01X26687Y25465D01*
G01X25618Y26349D02*
G01X25514Y26400D01*
G01X25356Y26555D01*
G01X25356Y25465D01*
G01X26627Y32475D02*
G01X26627Y31697D01*
G01X26577Y31540D01*
G01X26472Y31436D01*
G01X26315Y31385D01*
G01X26211Y31385D01*
G01X26056Y31436D01*
G01X25952Y31540D01*
G01X25901Y31697D01*
G01X25901Y32475D01*
G01X25558Y32269D02*
G01X25454Y32320D01*
G01X25296Y32475D01*
G01X25296Y31385D01*
G01X38497Y10665D02*
G01X38497Y9575D01*
G01X38497Y10665D02*
G01X38029Y10665D01*
G01X37874Y10614D01*
G01X37821Y10563D01*
G01X37770Y10459D01*
G01X37770Y10355D01*
G01X37821Y10251D01*
G01X37874Y10197D01*
G01X38029Y10147D01*
G01X38497Y10147D01*
G01X38133Y10147D02*
G01X37770Y9575D01*
G01X37427Y10459D02*
G01X37323Y10510D01*
G01X37166Y10665D01*
G01X37166Y9575D01*
G01X36513Y10665D02*
G01X36668Y10614D01*
G01X36772Y10459D01*
G01X36823Y10197D01*
G01X36823Y10043D01*
G01X36772Y9783D01*
G01X36668Y9626D01*
G01X36513Y9575D01*
G01X36409Y9575D01*
G01X36251Y9626D01*
G01X36147Y9783D01*
G01X36096Y10043D01*
G01X36096Y10197D01*
G01X36147Y10459D01*
G01X36251Y10614D01*
G01X36409Y10665D01*
G01X36513Y10665D01*
G01X38129Y14335D02*
G01X38129Y13245D01*
G01X38129Y14335D02*
G01X37662Y14335D01*
G01X37507Y14284D01*
G01X37454Y14233D01*
G01X37403Y14129D01*
G01X37403Y14025D01*
G01X37454Y13921D01*
G01X37507Y13867D01*
G01X37662Y13817D01*
G01X38129Y13817D01*
G01X37766Y13817D02*
G01X37403Y13245D01*
G01X37060Y14129D02*
G01X36956Y14180D01*
G01X36798Y14335D01*
G01X36798Y13245D01*
G01X36455Y14129D02*
G01X36351Y14180D01*
G01X36196Y14335D01*
G01X36196Y13245D01*
G01X37370Y12176D02*
G01X37424Y12280D01*
G01X37528Y12384D01*
G01X37629Y12435D01*
G01X37838Y12435D01*
G01X37942Y12384D01*
G01X38046Y12280D01*
G01X38099Y12176D01*
G01X38150Y12021D01*
G01X38150Y11762D01*
G01X38099Y11604D01*
G01X38046Y11500D01*
G01X37942Y11396D01*
G01X37838Y11345D01*
G01X37629Y11345D01*
G01X37528Y11396D01*
G01X37424Y11500D01*
G01X37370Y11604D01*
G01X37028Y12229D02*
G01X36923Y12280D01*
G01X36768Y12435D01*
G01X36768Y11345D01*
G01X36426Y12229D02*
G01X36321Y12280D01*
G01X36166Y12435D01*
G01X36166Y11345D01*
G01X27575Y9915D02*
G01X27575Y8825D01*
G01X27575Y9915D02*
G01X27212Y9915D01*
G01X27054Y9864D01*
G01X26952Y9760D01*
G01X26899Y9656D01*
G01X26848Y9501D01*
G01X26848Y9242D01*
G01X26899Y9084D01*
G01X26952Y8980D01*
G01X27054Y8876D01*
G01X27212Y8825D01*
G01X27575Y8825D01*
G01X26401Y9915D02*
G01X25830Y9915D01*
G01X26140Y9501D01*
G01X25985Y9501D01*
G01X25881Y9447D01*
G01X25830Y9397D01*
G01X25776Y9242D01*
G01X25776Y9138D01*
G01X25830Y8980D01*
G01X25934Y8876D01*
G01X26089Y8825D01*
G01X26244Y8825D01*
G01X26401Y8876D01*
G01X26452Y8929D01*
G01X26505Y9033D01*
G01X24607Y13921D02*
G01X24607Y13144D01*
G01X24557Y12987D01*
G01X24452Y12882D01*
G01X24295Y12832D01*
G01X24191Y12832D01*
G01X24036Y12882D01*
G01X23932Y12987D01*
G01X23881Y13144D01*
G01X23881Y13921D01*
G01X23017Y13921D02*
G01X23538Y13195D01*
G01X22758Y13195D01*
G01X23017Y13921D02*
G01X23017Y12832D01*
G54D48*
G01X9719Y32058D02*
G01X11172Y32058D01*
G01X9719Y32058D02*
G01X9719Y31435D01*
G01X9788Y31227D01*
G01X9857Y31156D01*
G01X9996Y31087D01*
G01X10133Y31087D01*
G01X10273Y31156D01*
G01X10342Y31227D01*
G01X10410Y31435D01*
G01X10410Y32058D02*
G01X10410Y31435D01*
G01X10481Y31227D01*
G01X10550Y31156D01*
G01X10690Y31087D01*
G01X10895Y31087D01*
G01X11035Y31156D01*
G01X11104Y31227D01*
G01X11172Y31435D01*
G01X11172Y32058D01*
G01X9719Y30630D02*
G01X10758Y30630D01*
G01X10967Y30562D01*
G01X11104Y30422D01*
G01X11172Y30216D01*
G01X11172Y30077D01*
G01X11104Y29868D01*
G01X10967Y29731D01*
G01X10758Y29660D01*
G01X9719Y29660D01*
G01X9719Y28235D02*
G01X11172Y29203D01*
G01X9719Y29203D02*
G01X9719Y28235D01*
G01X11172Y29203D02*
G01X11172Y28235D01*
G54D45*
G01X2286Y24205D02*
G01X3376Y24205D01*
G01X2286Y24205D02*
G01X2286Y23737D01*
G01X2337Y23582D01*
G01X2388Y23529D01*
G01X2492Y23478D01*
G01X2596Y23478D01*
G01X2700Y23529D01*
G01X2754Y23582D01*
G01X2805Y23737D01*
G01X2805Y24205D01*
G01X2805Y23841D02*
G01X3376Y23478D01*
G01X2492Y23135D02*
G01X2441Y23031D01*
G01X2286Y22874D01*
G01X3376Y22874D01*
G01X15546Y11447D02*
G01X15442Y11500D01*
G01X15338Y11604D01*
G01X15284Y11706D01*
G01X15284Y11914D01*
G01X15338Y12018D01*
G01X15442Y12122D01*
G01X15546Y12176D01*
G01X15701Y12226D01*
G01X15960Y12226D01*
G01X16118Y12176D01*
G01X16222Y12122D01*
G01X16326Y12018D01*
G01X16377Y11914D01*
G01X16377Y11706D01*
G01X16326Y11604D01*
G01X16222Y11500D01*
G01X16118Y11447D01*
G01X15546Y11053D02*
G01X15493Y11053D01*
G01X15389Y11000D01*
G01X15338Y10949D01*
G01X15284Y10845D01*
G01X15284Y10636D01*
G01X15338Y10532D01*
G01X15389Y10481D01*
G01X15493Y10428D01*
G01X15597Y10428D01*
G01X15701Y10481D01*
G01X15856Y10585D01*
G01X16377Y11104D01*
G01X16377Y10377D01*
G01X15493Y10034D02*
G01X15442Y9930D01*
G01X15284Y9775D01*
G01X16377Y9775D01*
G01X19614Y34215D02*
G01X19614Y33122D01*
G01X19614Y34215D02*
G01X19147Y34215D01*
G01X18992Y34164D01*
G01X18938Y34111D01*
G01X18888Y34006D01*
G01X18888Y33902D01*
G01X18938Y33798D01*
G01X18992Y33747D01*
G01X19147Y33694D01*
G01X19614Y33694D01*
G01X19251Y33694D02*
G01X18888Y33122D01*
G01X18491Y33956D02*
G01X18491Y34006D01*
G01X18441Y34111D01*
G01X18387Y34164D01*
G01X18283Y34215D01*
G01X18077Y34215D01*
G01X17973Y34164D01*
G01X17920Y34111D01*
G01X17869Y34006D01*
G01X17869Y33902D01*
G01X17920Y33798D01*
G01X18024Y33643D01*
G01X18545Y33122D01*
G01X17816Y33122D01*
G01X17369Y34215D02*
G01X16797Y34215D01*
G01X17110Y33798D01*
G01X16955Y33798D01*
G01X16851Y33747D01*
G01X16797Y33694D01*
G01X16746Y33539D01*
G01X16746Y33435D01*
G01X16797Y33280D01*
G01X16901Y33176D01*
G01X17059Y33122D01*
G01X17214Y33122D01*
G01X17369Y33176D01*
G01X17422Y33227D01*
G01X17473Y33331D01*
G01X13806Y30575D02*
G01X14896Y30575D01*
G01X13806Y30575D02*
G01X13806Y30107D01*
G01X13857Y29952D01*
G01X13908Y29899D01*
G01X14012Y29848D01*
G01X14116Y29848D01*
G01X14221Y29899D01*
G01X14274Y29952D01*
G01X14325Y30107D01*
G01X14325Y30575D01*
G01X14325Y30211D02*
G01X14896Y29848D01*
G01X14066Y29452D02*
G01X14012Y29452D01*
G01X13908Y29401D01*
G01X13857Y29348D01*
G01X13806Y29244D01*
G01X13806Y29038D01*
G01X13857Y28934D01*
G01X13908Y28881D01*
G01X14012Y28830D01*
G01X14116Y28830D01*
G01X14221Y28881D01*
G01X14378Y28985D01*
G01X14896Y29505D01*
G01X14896Y28776D01*
G01X13806Y27915D02*
G01X14533Y28433D01*
G01X14533Y27654D01*
G01X13806Y27915D02*
G01X14896Y27915D01*
G01X9721Y34145D02*
G01X9721Y33055D01*
G01X9721Y33055D02*
G01X9099Y33055D01*
G01X8756Y34145D02*
G01X8756Y33055D01*
G01X8756Y34145D02*
G01X8080Y34145D01*
G01X8756Y33627D02*
G01X8339Y33627D01*
G01X8756Y33055D02*
G01X8080Y33055D01*
G01X7737Y34145D02*
G01X7737Y33055D01*
G01X7737Y34145D02*
G01X7372Y34145D01*
G01X7217Y34094D01*
G01X7113Y33990D01*
G01X7062Y33886D01*
G01X7008Y33731D01*
G01X7008Y33472D01*
G01X7062Y33314D01*
G01X7113Y33210D01*
G01X7217Y33106D01*
G01X7372Y33055D01*
G01X7737Y33055D01*
G01X6666Y33939D02*
G01X6561Y33990D01*
G01X6406Y34145D01*
G01X6406Y33055D01*
G54D10*
G75*
G01X59307Y-232D02*
G03X59107Y-432I0J-200D01*
G01*
G75*
G01X59107Y-472D02*
G02X58957Y-622I-150J0D01*
G01*
G75*
G01X59107Y-682D02*
G02X58957Y-832I-150J0D01*
G01*
G75*
G01X53057Y-832D02*
G02X52907Y-682I0J150D01*
G01*
G75*
G01X53057Y-622D02*
G02X52907Y-472I0J150D01*
G01*
G75*
G01X52907Y-432D02*
G03X52707Y-232I-200J0D01*
G01*
G75*
G01X59490Y-371D02*
G02X59457Y-232I242J132D01*
G01*
G75*
G01X52517Y-382D02*
G03X52557Y-232I-260J150D01*
G01*
G54D14*
G75*
G01X60020Y10211D02*
G02X60018Y10211I-1J-150D01*
G01*
G75*
G01X8999Y23531D02*
G02X9002Y23531I1J150D01*
G01*
G54D13*
G75*
G01X10500Y21379D02*
G02X10503Y21379I2J200D01*
G01*
G54D10*
G75*
G01X24486Y2616D02*
G03X23216Y2616I-635J0D01*
G01*
G75*
G01X26645Y29413D02*
G03X25375Y29413I-635J0D01*
G01*
G75*
G01X24486Y10871D02*
G03X23216Y10871I-635J0D01*
G01*
G75*
G01X21882Y2388D02*
G03X21882Y2388I-190J0D01*
G01*
G75*
G01X24041Y29185D02*
G03X24041Y29185I-190J0D01*
G01*
G75*
G01X21882Y10643D02*
G03X21882Y10643I-190J0D01*
G01*
M00*
M02*
