;Layer: Drill PTH
;EasyEDA v6.1.51, Thu, 11 Jul 2019 05:23:43 GMT
;97ee957230b044f1988730904329927e,674c0623d3a246009f606e19fc16e94a,10
;Gerber Generator version 0.2
M48
METRIC,LZ,000.000
;Holesize 1 = 0.305 METRIC
T01C0.305
;Holesize 2 = 0.320 METRIC
T02C0.320
;Holesize 3 = 1.000 METRIC
T03C1.000
%
G05
G90
T01
X+019227Y+028245
X+011936Y+009265
X+010167Y+028994
X+022585Y+028176
X+022786Y+023614
X+022755Y+021506
X+017345Y+024155
X+017248Y+026843
X+013477Y+026045
X+014876Y+027696
X+006296Y+017645
X+001938Y+023134
X+021076Y+016175
X+022687Y+014325
X+016378Y+009013
X+017156Y+007085
X+006417Y+012265
X+015656Y+013445
X+018935Y+014815
X+019296Y+012995
T02
X+030482Y+023401
X+036121Y+012649
X+018630Y+005090
X+024444Y+005090
X+023870Y+018516
X+020144Y+018516
X+004521Y+021910
X+012184Y+025052
X+044564Y+014569
X+014389Y+017553
X+009088Y+026823
X+005797Y+026855
X+013586Y+009335
X+039804Y+011107
X+036703Y+006903
X+050812Y+012161
X+005389Y+005521
X+011033Y+005140
X+016838Y+014083
X+006639Y+013353
X+012877Y+010215
X+044729Y+016248
X+055699Y+006273
X+052501Y+010820
X+031475Y+006093
X+012417Y+005285
X+050134Y+001010
X+027973Y+022395
X+024586Y+015405
X+030822Y+011087
X+003648Y+011103
X+005456Y+010745
X+007874Y+027508
X+023622Y+028778
X+017099Y+027853
X+006604Y+007569
X+012447Y+007545
X+021082Y+020142
X+016002Y+005029
X+020701Y+009474
X+022556Y+017585
X+044958Y+006426
X+043942Y+010109
X+054229Y+005664
X+049276Y+009982
X+054009Y+020303
X+053978Y+017623
X+037084Y+009982
X+048260Y+012141
X+001397Y+008204
X+001143Y+027127
T03
X+058306Y+022805
X+042536Y+020665
X+054168Y+031553
X+033836Y+020445
M30
